<svg id="Layer_2" data-name="Layer 2" xmlns="http://www.w3.org/2000/svg" viewBox="0 0 335.63 306.06"><defs><style>.cls-1{fill:#fff;}.cls-2{fill:none;stroke:#fff;stroke-miterlimit:10;stroke-width:0.25px;}</style></defs><title>bartenderkit</title><path class="cls-1" d="M265.94,349.25l0-1.26c38.75-.62,43.24-4.92,43.69-6.23a1,1,0,0,0-.33-1.07l.79-1a2.27,2.27,0,0,1,.74,2.46C309.33,346.42,294.23,348.8,265.94,349.25Z" transform="translate(-40.37 -44.94)"/><path class="cls-2" d="M316.55,305.73" transform="translate(-40.37 -44.94)"/><path class="cls-2" d="M317.24,300.27" transform="translate(-40.37 -44.94)"/><path class="cls-1" d="M325.45,241l-1.26-.14c6.37-59.9,3.82-65.43,3.25-65.93a.29.29,0,0,0,.35,0l-.92-.86.06-.07,3.15-3.14V141.2l-10.23-5.11.16-.52c2.72-8.62,2.19-16.15-1.57-22.39-7.34-12.19-24.69-15.47-24.86-15.5l-.52-.09V66.77c-.22-6.3-2.38-11.27-6.42-14.74-8.38-7.2-22.18-5.68-22.32-5.66l-.15-1.26c.59-.07,14.48-1.6,23.29,6,4.32,3.71,6.63,9,6.86,15.68V96.54c3.05.65,18.21,4.38,25.2,16,3.89,6.43,4.51,14.14,1.85,22.91l10,5v30.94l-2.89,2.89C331.34,178.75,328.47,212.62,325.45,241Z" transform="translate(-40.37 -44.94)"/><path class="cls-1" d="M265.92,349.25c-35.92-.58-45.67-4.68-47.52-8a2.37,2.37,0,0,1-.25-1.93l-1.36-6.36,1.24-.27,1.45,6.81-.13.21h0a1.12,1.12,0,0,0,.19,1c1.21,2,8.14,6.68,46.4,7.3Z" transform="translate(-40.37 -44.94)"/><path class="cls-1" d="M203,210.69c-1.65-20.69-1.73-33.42-.25-36.21l-3.12-3.12V140.42l10-5c-2.66-8.77-2-16.48,1.85-22.91,7-11.61,22.15-15.34,25.2-16V66.77c.46-6.74,3-12,7.44-15.72,9.08-7.54,23-6,23.55-5.94l-.15,1.26c-.13,0-13.94-1.54-22.6,5.65-4.19,3.48-6.54,8.46-7,14.8V97.59l-.52.09c-.17,0-17.53,3.32-24.87,15.5-3.76,6.24-4.28,13.78-1.56,22.39l.16.52-10.23,5.11v29.64l4.71,4.7-1.8-.39c-.44.87-1.89,6,.46,35.44Z" transform="translate(-40.37 -44.94)"/><path class="cls-1" d="M256.41,174.75c-35.66,0-55.92-3.81-56.23-3.87l.24-1.24c.49.09,49.66,9.33,130.21-1.16l.16,1.25A577.28,577.28,0,0,1,256.41,174.75Z" transform="translate(-40.37 -44.94)"/><path class="cls-1" d="M331.43,142.27c-33.2-6.64-130.12-1.72-131.1-1.67l-.06-1.26c1-.05,98.06-5,131.4,1.69Z" transform="translate(-40.37 -44.94)"/><path class="cls-1" d="M369.22,349.25H313V348h54.87c-1.23-32.84-5.78-38.42-7.68-39.3a1.53,1.53,0,0,0-.94-.13,3.76,3.76,0,0,1-.62.27L355.32,310l2.76-2.21a2.39,2.39,0,0,1,.76-.37c7.61-4.52,13.85-48.08,15.76-65.81h-70V240.3H376l-.07.69c0,.17-1.72,16.2-4.64,32.44-3.36,18.75-6.94,30.17-10.66,34.06l.12.05c4.65,2.13,7.57,16.33,8.45,41.06Z" transform="translate(-40.37 -44.94)"/><path class="cls-1" d="M366,349.25H309.86l0-.65c.88-24.73,3.8-38.93,8.44-41.06l.13-.05c-3.72-3.89-7.3-15.31-10.67-34.06-2.91-16.24-4.62-32.27-4.63-32.44l-.08-.69h71.38v1.26h-70c1.91,17.73,8.15,61.29,15.76,65.81a2.7,2.7,0,0,1,.76.37l2.76,2.21-3.36-1.12a4.16,4.16,0,0,1-.62-.27,1.52,1.52,0,0,0-1,.15c-1.9.91-6.42,6.58-7.65,39.28H366Z" transform="translate(-40.37 -44.94)"/><rect class="cls-1" x="278.45" y="261.42" width="41.44" height="1.26"/><path class="cls-1" d="M52.35,350a5.37,5.37,0,0,1-3.22-1c-5-3.55-4.39-15.35-4.28-17.06-4.19-7.74-5.45-13.86-3.74-18.2a7.47,7.47,0,0,1,4.19-4.41c.79-.16,70.77-13.49,75.72-15.14,3.74-1.25,3.39-12.09,2.94-16.16l1.25-.14c.18,1.6,1.58,15.7-3.79,17.49-5,1.68-72.92,14.62-75.8,15.17a6.34,6.34,0,0,0-3.35,3.69c-1.07,2.75-1.28,8,3.78,17.26l.09.16v.19c0,.13-.93,12.79,3.73,16.13,1.43,1,3.22,1,5.48.07l69-28.61c.49-.1,9.1-1.76,10.94,3.75l-1.2.4c-1.49-4.47-9.3-3-9.37-2.95L55.83,349.2A8.83,8.83,0,0,1,52.35,350Z" transform="translate(-40.37 -44.94)"/><path class="cls-1" d="M181.79,345.88A57.84,57.84,0,1,1,239.63,288,57.9,57.9,0,0,1,181.79,345.88Zm0-114.42A56.58,56.58,0,1,0,238.37,288,56.64,56.64,0,0,0,181.79,231.46Z" transform="translate(-40.37 -44.94)"/><path class="cls-1" d="M234,339.27a12.11,12.11,0,0,1-1.58-.11c-7.22-1-12.21-8.33-12.42-8.64l1-.7c.05.07,4.89,7.18,11.55,8.09,3.22.43,6.38-.65,9.4-3.23,2.52-2.17,3.68-4.56,3.43-7.1-.68-7.05-11.64-13.31-11.75-13.37l.63-1.1c.47.27,11.63,6.65,12.38,14.35.29,3-1,5.73-3.87,8.18A13.51,13.51,0,0,1,234,339.27Z" transform="translate(-40.37 -44.94)"/><path class="cls-1" d="M209.16,237.76l-1.15-.54c.07-.13,6.23-13.45,3.24-21.31a8,8,0,0,0-4.47-4.69,6.27,6.27,0,0,0-5.71.13c-7,3.67-10.21,19.45-10.25,19.61l-1.23-.25c.13-.67,3.38-16.52,10.89-20.48a7.62,7.62,0,0,1,6.8-.17,9.2,9.2,0,0,1,5.15,5.4C215.61,223.82,209.42,237.19,209.16,237.76Z" transform="translate(-40.37 -44.94)"/><path class="cls-1" d="M59.09,331.2a5.13,5.13,0,0,1-1.39-10.07l15.63-4.39a5.13,5.13,0,0,1,2.78,9.88L60.48,331A5.12,5.12,0,0,1,59.09,331.2Zm15.63-13.39a4.07,4.07,0,0,0-1,.14L58,322.34a3.87,3.87,0,0,0-.84,7.1,3.8,3.8,0,0,0,2.93.35l15.64-4.38a3.89,3.89,0,0,0,2.68-4.78,3.91,3.91,0,0,0-3.73-2.82Z" transform="translate(-40.37 -44.94)"/><path class="cls-1" d="M156.55,285.31a3.9,3.9,0,0,1-3.26-1.43c-1.68-2.14-.76-5.93-.71-6.09.26-.86,6.52-20.48,20.65-24l.3,1.22c-13.45,3.36-19.68,22.94-19.74,23.13h0s-.8,3.32.5,5a2.66,2.66,0,0,0,2.26.94c4.37,0,4.42-4.24,4.42-4.42l0-.22c.21-.56,5.24-13.76,13.82-17.19l.47,1.17c-7.68,3.07-12.59,15.13-13.07,16.36A5.47,5.47,0,0,1,156.55,285.31Z" transform="translate(-40.37 -44.94)"/><path class="cls-1" d="M199.48,270.67a6,6,0,0,1-4.55-2.44h0s-11.62-9.64-19.54-4.89l-.65-1.08c8.69-5.22,20.6,4.69,21.11,5.11.2.26,2.76,3.63,6.27,1.07a2.67,2.67,0,0,0,1.27-2.1c.06-1.75-1.83-3.72-2.56-4.33-.13-.11-13.32-11-27.28-7l-.34-1.22c14.6-4.15,28.29,7.15,28.43,7.26s3.1,2.62,3,5.34a3.93,3.93,0,0,1-1.79,3.08A5.74,5.74,0,0,1,199.48,270.67Z" transform="translate(-40.37 -44.94)"/><path class="cls-1" d="M192.55,321.25l-.34-1.21c13.36-3.74,19-23.48,19.1-23.67h0s.7-3.34-.64-5a2.67,2.67,0,0,0-2.29-.88,4,4,0,0,0-3.79,2.28,5.56,5.56,0,0,0-.5,2.26v.11l0,.11c-.2.57-4.87,13.91-13.34,17.57l-.5-1.16c7.61-3.29,12.17-15.51,12.61-16.72a6.78,6.78,0,0,1,.62-2.7,5.14,5.14,0,0,1,4.9-3,3.91,3.91,0,0,1,3.3,1.33c1.73,2.1.92,5.91.88,6.07C212.29,297.55,206.58,317.33,192.55,321.25Z" transform="translate(-40.37 -44.94)"/><path class="cls-1" d="M185.19,322.36c-11.52,0-21.12-7.49-21.24-7.58s-3.17-2.53-3.16-5.25a3.9,3.9,0,0,1,1.7-3.13,5.18,5.18,0,0,1,5.7-.78,7.09,7.09,0,0,1,2.27,1.79h0s11.88,9.31,19.67,4.34l.68,1.06c-8.55,5.46-20.73-4.11-21.24-4.52-.22-.25-2.87-3.55-6.31-.89a2.67,2.67,0,0,0-1.21,2.13c0,2.11,2.66,4.24,2.68,4.26s13.62,10.6,27.47,6.25l.37,1.21A24.67,24.67,0,0,1,185.19,322.36Z" transform="translate(-40.37 -44.94)"/><path class="cls-1" d="M185.69,351a2.38,2.38,0,0,1-.68-.09c-2.79-.69-4-3.6-4.47-7-.79,2.94-1.87,5.38-3.33,5.92a2.37,2.37,0,0,1-2.59-.81,10.88,10.88,0,0,1-2.79-6.27c-1.14,3.49-2.8,6.45-5.18,6.45a2.31,2.31,0,0,1-1.88-.94c-1.46-1.92-1.07-6.79-.34-11.05-2,4.17-4.86,8.62-7.88,8.62a2.13,2.13,0,0,1-1.81-.93c-1.24-1.78-.6-6.17.41-10.24-1.72,2.41-4.05,4.44-7,4.44a2.45,2.45,0,0,1-2.33-1.22c-1-1.83.23-5.63,1.92-9.31-2.93,3.7-6.17,7.17-8,7.17-.41,0-1.16-.17-1.59-1.32a7.53,7.53,0,0,1-.37-2.59c0-5.59,3.3-15.86,8.69-15.86v1.26c-4.36,0-7.42,9.47-7.42,14.6a6.35,6.35,0,0,0,.28,2.15c.07.18.22.5.41.5,2.2,0,9.1-9.12,12.93-14.87l1.06.69c-3.35,5.26-8.15,14.52-6.8,17,.13.24.4.56,1.22.56,4.59,0,7.58-6.19,8.83-9.41.32-1,.57-1.67.67-2l1.2.39c0,.12-.27.95-.72,2.11-1.58,4.81-3.84,13.07-2.34,15.2a.86.86,0,0,0,.77.39c3.77,0,8.14-10.62,9.5-14.71l1.21.37c-1.08,3.93-3.44,14.71-1.48,17.26a1,1,0,0,0,.87.45c2.22,0,3.95-4.61,5-9.54a34,34,0,0,1,1.09-6.83l1.24.23a66.27,66.27,0,0,1-1.06,6.73c-.17,3.39.25,7.28,2.56,9.59.72.73,1.12.58,1.26.53,1.57-.58,2.81-5.36,3.6-10.27a51.9,51.9,0,0,1,.8-6.76l1.25.17c-.08,1.07-.32,3.81-.8,6.85-.2,4.87.43,10.18,3.69,11,.43.1,1.08.13,1.79-.87,1.25-1.73,1.89-5.32,2.15-8.89a13.21,13.21,0,0,1-1.35-8.24c.3-1.81.6-2.46,1.17-2.58a.8.8,0,0,1,.84.39c.59.9.93,5.43.62,10.08a23.8,23.8,0,0,0,7.37,7.83c-.35-4.89-.82-11-1.15-14.67a10.1,10.1,0,0,1-.44-2.63c0-.71,0-1.32.65-1.34.47,0,.69,0,1.08,4,1.39,4.75,5.46,11.57,7.48,11.82.39.05.69-.36.9-1.21,1.61-6.45-1.62-14.68-1.66-14.76l1.17-.49c1.8,4.05,5.51,10.55,7.8,10.75.29,0,.71,0,1.19-.75,2.27-3.4-.57-9.53-2.26-12.59-.36-.59-.74-1.22-1.13-1.88l1.08-.67c.07.11.58.88,1.23,2.06,5.16,8.42,7.31,9,8,8.75,1-.27,1.34-2.63,1.34-3.73-.42-2.27-.93-4.66-1.45-6.81-2.44-1.92-4.4-4.34-3.57-6.85.3-.91.78-1.33,1.34-1.3,1.19.08,2.37,3.35,3.38,7.45a32.91,32.91,0,0,0,5.64,3.3,11.25,11.25,0,0,0,.83-4.49c-4.68-1-9.25-9.14-9.46-9.5l-.7-1.27,1.41.35c.27.06,6.61,1.7,9.07,6.67a9.09,9.09,0,0,1,.83,2.57,3.87,3.87,0,0,0,2.86-2.22,4.88,4.88,0,0,0,.6-4.64c-.94-2.18-3.56-3.74-5.92-4.75-2-.59-3.71-1.2-4.45-1.48l.36-1.2a28.35,28.35,0,0,1,4.46,1.46c4.56,1.31,9.24,2,10,.55s-4.87-6.77-11.17-11.22c-1.21-.78-2-1.37-2.11-1.45l.73-1c.42.28,1.1.74,2,1.33,2.86,1.85,8.28,4.92,11.67,4.11a3.26,3.26,0,0,0,2.29-1.83,2.06,2.06,0,0,0,0-2c-1-1.89-4.56-3.48-8.52-4.7A48.69,48.69,0,0,1,222,288.64l-5.71-2.08,6,.86a84.19,84.19,0,0,1,11.29,2.5,11.63,11.63,0,0,0,6.18-.92,3.88,3.88,0,0,0,2-2.76,3.11,3.11,0,0,0-.74-3,6.35,6.35,0,0,0-3.19-1.51c-5,.92-11.95.25-12.34.21l-4.46-.45,4.41-.8c.39-.07,7.37-1.31,12.43-.24a7.2,7.2,0,0,0,3.31-1.33,1.53,1.53,0,0,0,.57-1.17,1.3,1.3,0,0,0-.49-1,5.43,5.43,0,0,0-2-1c-5.87,2-16.69-.63-17.21-.76l-3.69-.92,3.79-.32c.55,0,11.22-.9,17,.69a5.55,5.55,0,0,0,1.29-.73,3.21,3.21,0,0,0,1.28-2.69,2.79,2.79,0,0,0-1.16-2.4c-2.71-2-9.19-1.17-14-.16-2.86.86-5.3,1.37-5.94,1.49l-.31-1.22c.25-.08,2.7-.82,5.91-1.49,5.27-1.6,10.47-3.94,10.47-6.32a.59.59,0,0,0-.28-.59c-1.27-.75-5.38.6-9.65,2.46a79.81,79.81,0,0,1-7.71,3.76l-.54-1.14c1.11-.6,4.23-2.27,7.65-3.76,3.83-2.18,7.51-4.81,7.94-7a1.81,1.81,0,0,0-.59-1.72c-1.18-1.18-3-1.28-5-.75-2.83,3.91-11.67,7.22-12.81,7.63l-3.17,1.15L215,259c.39-.34,6.89-6,12.66-7.66a2.69,2.69,0,0,0,.36-1,2.35,2.35,0,0,0-1.2-2.18,6,6,0,0,0-3.44-1.28,11.12,11.12,0,0,1-3.61,4,15.26,15.26,0,0,1-6,2.42l-1.39.2.78-1.17c.16-.24,3.92-5.81,8.8-6.64l.57-.08a11.79,11.79,0,0,0,.62-6.31c-.26-1.87-.83-2.91-1.68-3.11-1.25-.29-3.2,1.06-5.25,3.07-1.08,4.45-7,8.69-7.22,8.88l-2.8,2,1.91-2.86a63.47,63.47,0,0,1,7-8.67,3.68,3.68,0,0,0,.06-.66,4,4,0,0,0-1.82-3.28,3.33,3.33,0,0,0-3.26-.73,7,7,0,0,0-3.16,3.3,42,42,0,0,1-2.74,7.31l-2.29,4.58,1.11-5a31,31,0,0,1,2.73-7.36c1-3.8,1.4-8.13-1-10.35-.68-.64-1.13-.58-1.41-.49-1.71.6-3.33,5.09-4.48,9.79a40.59,40.59,0,0,1-1.38,7l-1.23-.27c.1-.7.56-3.7,1.37-7.05.29-2.87.18-5.92-1.11-7.67a3.49,3.49,0,0,0-3-1.38,4.12,4.12,0,0,0-3.43,1.53,9.7,9.7,0,0,0-1.62,5.45,51.52,51.52,0,0,1,.63,7.53v5.75l-1.24-5.62a31.68,31.68,0,0,1-.66-7.58c-.73-4.54-2.28-9.62-5.61-10.45a1.75,1.75,0,0,0-1.83.34c-1.83,1.91-.45,9,.55,12.75.22.72.34,1.19.36,1.29l-1.21.33c-.06-.18-.18-.58-.33-1.13-1-3.19-4.13-12.28-9.32-13.58-1.16-.29-1.53.14-1.66.28-1.6,1.84.62,9.58,2.4,14l-1.12.57c-.08-.13-8.18-12.92-14.33-9.87a2.47,2.47,0,0,0-1.51,1.93,5,5,0,0,0,.45,2.42,20.87,20.87,0,0,1,8.11,10l.73,2.21-1.75-1.53c-.3-.27-6-5.28-8.06-9.82a15,15,0,0,0-5.08-1.81c-1.33-.23-2.17-.05-2.51.51-1.4,2.3,3.5,10.56,7.37,15.92.48.61.76,1,.81,1.1l-1,.73-.62-.84c-1.79-2.31-7.38-8.63-13.89-7.33-1.09.21-1.73.67-1.95,1.39-.34,1.15.25,2.83,1.29,4.67,7.79,2.21,7.9,10.05,7.9,10.15v1.52l-1.08-1.08a54.93,54.93,0,0,1-7.65-9.51,16.13,16.13,0,0,0-3.68-.4c-1.68,0-2.73.44-3.11,1.3-.92,2.09,1.48,6.42,4.33,10.44,3.68,2,6,7.32,6.09,7.57l1.46,3.41-2.51-2.73a88.52,88.52,0,0,1-5.93-7.29,4.26,4.26,0,0,0-.92-.35,4.53,4.53,0,0,0-4.08,1,3.42,3.42,0,0,0-1.63,3,4.65,4.65,0,0,0,.44,1.72c3.73,1.13,7.59,7.16,8.07,7.93l1.45,2.32-2.32-1.45c-.29-.18-5.87-3.71-8-7.7a2,2,0,0,0-.49,0c-.94.08-1.72.87-2.31,2.36a5.52,5.52,0,0,0,.09,4.8c2.17,4.24,9.5,6.11,9.57,6.13l-.31,1.23c-.32-.09-8-2-10.38-6.79a6.8,6.8,0,0,1-.15-5.84c.79-2,1.92-3,3.37-3.15h0a5.31,5.31,0,0,1-.29-1.49,4.67,4.67,0,0,1,2.13-4,5.92,5.92,0,0,1,4.6-1.32c-2.52-3.79-4.48-7.84-3.43-10.22.6-1.36,2-2.05,4.26-2.05a18.49,18.49,0,0,1,2.9.22c-.85-1.75-1.27-3.4-.88-4.67a3.39,3.39,0,0,1,2.9-2.27c4.05-.81,7.67.9,10.43,3-2.67-4.36-5.31-9.7-3.9-12,.64-1,1.91-1.42,3.79-1.11a16,16,0,0,1,4.26,1.32,4.92,4.92,0,0,1-.11-1.73,3.68,3.68,0,0,1,2.2-2.9c4.83-2.42,10.26,2.88,13.38,6.75-1.21-3.85-2.43-9.21-.72-11.17a2.7,2.7,0,0,1,2.92-.67c3.37.84,5.9,4.34,7.64,7.81-.31-2.9-.21-5.77,1.08-7.12a3,3,0,0,1,3.06-.69c3.07.77,4.83,4.3,5.85,8.13a7.6,7.6,0,0,1,1.36-2.78,5.38,5.38,0,0,1,4.41-2,4.73,4.73,0,0,1,4,1.9,8.21,8.21,0,0,1,1.37,4c1.05-3.06,2.39-5.68,4-6.25a2.56,2.56,0,0,1,2.69.75c2.17,2,2.43,5.39,1.93,8.73a5.63,5.63,0,0,1,2.1-1.46,4.51,4.51,0,0,1,4.44.9,5.32,5.32,0,0,1,2.31,3.74c1.92-1.68,3.84-2.79,5.38-2.44s2.31,1.73,2.65,4.17a13.2,13.2,0,0,1-.53,6.49,7.38,7.38,0,0,1,3.65,1.5,3.51,3.51,0,0,1,1.69,3.38,3.15,3.15,0,0,1-.09.42,5.71,5.71,0,0,1,5.2,1.31,3.06,3.06,0,0,1,.93,2.86c-.3,1.54-1.75,3.14-3.66,4.65,2.33-.69,4.33-.95,5.38-.32a1.82,1.82,0,0,1,.9,1.67c0,2.14-2.43,3.94-5.48,5.36,3.53-.29,6.94-.09,8.85,1.32a4,4,0,0,1,1.68,3.42,4.44,4.44,0,0,1-1.76,3.68,4.37,4.37,0,0,1-.44.31,5.17,5.17,0,0,1,1.31.83A2.55,2.55,0,0,1,243,278a2.75,2.75,0,0,1-1,2.11,5.85,5.85,0,0,1-1.92,1.08,5.79,5.79,0,0,1,1.82,1.21,4.36,4.36,0,0,1,1.08,4.13,5.13,5.13,0,0,1-2.63,3.62,9.15,9.15,0,0,1-3.4,1c2.78,1.12,5.1,2.51,6,4.17a3.3,3.3,0,0,1,0,3.14,4.5,4.5,0,0,1-3.13,2.5,10.9,10.9,0,0,1-6.06-.83c3.6,3,6.81,6.47,5.83,8.43-.86,1.71-3.86,1.72-7.07,1.16a8.22,8.22,0,0,1,2.67,3.19,6.16,6.16,0,0,1-.67,5.79c-1.06,1.75-2.34,2.7-3.83,2.83a13.13,13.13,0,0,1-1.18,5.5l-.25.58-.58-.25a35.28,35.28,0,0,1-5.3-2.88c.41,1.83.79,3.74,1.12,5.56,0,.55,0,4.47-2.26,5.06-1.06.28-2.71,0-5.82-4,.78,2.73,1,5.64-.43,7.77a2.49,2.49,0,0,1-2.34,1.31c-2-.18-4.29-3.15-6-6a23,23,0,0,1,0,9.57c-.52,2.06-1.66,2.24-2.29,2.16-2.13-.26-5-4.5-7-8.71.22,2.78.49,6.48.84,11.4l.08,1.18-1-.58a26.41,26.41,0,0,1-8-7.39c-.36,3.17-1.05,6.14-2.2,7.76A3,3,0,0,1,185.69,351Zm3.5-19.36c0,.08,0,.17,0,.26a11.27,11.27,0,0,0,.24,4.83A40.16,40.16,0,0,0,189.19,331.64Zm30.34-15.11-.12.32c-.47,1.41.4,2.92,1.82,4.31A17.15,17.15,0,0,0,219.53,316.53Zm2.39-3.78c1.66,2.59,4.61,6.43,7.31,7.31a7,7,0,0,0-.64-1.83C227.1,315.22,223.87,313.53,221.92,312.75ZM227.54,275a35.81,35.81,0,0,0,8.66.37A61.68,61.68,0,0,0,227.54,275Zm-99.09-6.56a23.7,23.7,0,0,0,3.35,3.3A19,19,0,0,0,128.45,268.4Zm97.29-15a38.62,38.62,0,0,0-6.16,3.63A32.88,32.88,0,0,0,225.74,253.38Zm-87.17-4.06a57.28,57.28,0,0,0,5.34,6.62A9.19,9.19,0,0,0,138.57,249.32ZM221.88,247c-2.78.64-5.21,3.07-6.53,4.64A11.71,11.71,0,0,0,221.88,247Zm-66.3-12a36.35,36.35,0,0,0,3.89,4.67A19.7,19.7,0,0,0,155.58,235Z" transform="translate(-40.37 -44.94)"/><path class="cls-1" d="M168,300.23,166,286l.43-.19c.18-.09,18.32-8.41,21.55-16.49l.27-.69.64.38c.17.11,17.25,10.62,7,27.79l-.2.33-.39,0c-12.2-.82-25.38-.54-26.31,1.33Zm-.65-13.49L168.8,297c4.59-2.35,21.56-1.44,26.11-1.15,8.33-14.31-3.23-23.37-6.11-25.34C185,278.14,170.14,285.42,167.34,286.74Z" transform="translate(-40.37 -44.94)"/></svg>