<svg id="Layer_2" data-name="Layer 2" xmlns="http://www.w3.org/2000/svg" viewBox="0 0 288.14 262.79"><defs><style>.cls-1,.cls-2{fill:#fff;}.cls-2{stroke:#fff;stroke-miterlimit:10;stroke-width:0.5px;}</style></defs><title>bartenderKit2</title><path class="cls-1" d="M241.61,329.62l0-1.44c33-.53,36.85-4.12,37.23-5.21a.73.73,0,0,0-.24-.72l.91-1.11a2.12,2.12,0,0,1,.69,2.3C278.88,327.15,265.91,329.23,241.61,329.62Z" transform="translate(-48.13 -68.58)"/><path class="cls-1" d="M241.36,329.87l0-1.94h.25c33.73-.54,36.74-4.29,37-5,.08-.23-.15-.44-.16-.45l-.18-.16,1.22-1.49.19.16a2.37,2.37,0,0,1,.76,2.58c-1.35,3.87-14,5.94-38.8,6.34Zm.48-1.45v.94c29.92-.49,37.23-3.53,38.09-6a1.83,1.83,0,0,0-.42-1.85l-.61.74a.86.86,0,0,1,.14.8C278.55,324.49,273.92,327.9,241.84,328.42Z" transform="translate(-48.13 -68.58)"/><path class="cls-2" d="M284.93,292.19" transform="translate(-48.13 -68.58)"/><path class="cls-2" d="M285.51,287.52" transform="translate(-48.13 -68.58)"/><path class="cls-1" d="M292.71,236.81l-1.43-.15c5.39-50.62,3.3-55.76,2.83-56.28a.37.37,0,0,0,.27.09.44.44,0,0,0,.29-.11l-1.05-1,.06-.07,2.64-2.64V151.5l-8.79-4.4.18-.59c2.32-7.32,1.87-13.72-1.32-19-6.25-10.36-21-13.15-21.16-13.18l-.59-.11V87.69c-.19-5.34-2-9.55-5.44-12.49-7.11-6.11-18.84-4.81-19-4.8L240.07,69c.51-.06,12.48-1.38,20.07,5.14,3.74,3.21,5.74,7.77,5.94,13.56V113c2.93.64,15.62,3.91,21.54,13.73,3.33,5.52,3.88,12.12,1.65,19.61l8.49,4.25v26.66l-2.44,2.44C297.23,183.36,296.36,202.54,292.71,236.81Z" transform="translate(-48.13 -68.58)"/><path class="cls-1" d="M292.94,237.08l-1.93-.2,0-.25c5.49-51.57,3.18-55.77,2.9-56.08h0l.29-.27-1-.89.24-.26,2.56-2.56V151.65l-8.85-4.42.25-.79c2.29-7.26,1.86-13.59-1.3-18.82-6.17-10.24-20.84-13-21-13.06l-.79-.14V87.69c-.18-5.27-2-9.41-5.35-12.3-7-6-18.65-4.75-18.77-4.74l-.25,0-.23-1.93.25,0c.51-.06,12.61-1.39,20.26,5.19,3.8,3.26,5.82,7.88,6,13.74v25.16a43.55,43.55,0,0,1,9.51,3.4c5.42,2.69,9.46,6.19,12,10.4,3.34,5.53,3.92,12.13,1.74,19.61l8.44,4.22v26.92l-2.39,2.39c1.83,4.08.94,23.28-2.66,57.08Zm-1.38-.64.93.09c3.62-34,4.49-53.11,2.61-56.7l-.09-.17,2.5-2.49V150.76L289,146.49l.06-.2c2.21-7.42,1.67-13.95-1.62-19.41-5.92-9.81-18.85-13.06-21.38-13.61l-.2,0V87.67c-.2-5.71-2.17-10.21-5.85-13.37-7-6-17.81-5.28-19.63-5.1l.11.93c1.75-.15,12.3-.79,18.91,4.88,3.47,3,5.33,7.25,5.52,12.67V114l.38.07c.15,0,15,2.86,21.33,13.3,3.23,5.36,3.69,11.82,1.35,19.22l-.12.38,8.74,4.37v25.44L294,179.37l1,1-.19.18a.69.69,0,0,1-.29.16C295.29,182.82,296.22,192.55,291.56,236.44Z" transform="translate(-48.13 -68.58)"/><path class="cls-1" d="M241.59,329.62c-24.4-.4-38.51-2.8-40.82-7a2.18,2.18,0,0,1-.23-1.79l-.54-6,1.44-.13.57,6.37-.12.2h0a.93.93,0,0,0,.18.69c1.06,1.67,7,5.61,39.54,6.14Z" transform="translate(-48.13 -68.58)"/><path class="cls-1" d="M241.83,329.87h-.25c-17.08-.28-38.06-1.73-41-7.09a2.4,2.4,0,0,1-.26-1.94l-.56-6.15,1.93-.18.61,6.69-.14.24a.74.74,0,0,0,.16.47c1,1.63,6.94,5.49,39.32,6h.25Zm-41.56-14.73.53,5.76,0,.05a1.93,1.93,0,0,0,.2,1.59c1.58,2.83,9.87,6.31,40.36,6.82v-.94c-11-.18-36.27-1.17-39.49-6.24a1.28,1.28,0,0,1-.23-.76l0-.06.17-.27-.55-6Z" transform="translate(-48.13 -68.58)"/><path class="cls-1" d="M187.6,210.87c-1-12.51-1.8-27.58-.25-31l-2.63-2.63V150.61l8.49-4.25c-2.24-7.49-1.69-14.09,1.64-19.61,5.93-9.82,18.62-13.09,21.55-13.73V87.69c.4-5.83,2.56-10.39,6.43-13.6,7.83-6.5,19.78-5.17,20.29-5.12L243,70.4c-.11,0-11.86-1.3-19.21,4.81-3.55,2.94-5.54,7.16-5.91,12.53v26.47l-.59.11c-.15,0-14.93,2.83-21.17,13.18-3.19,5.3-3.63,11.69-1.32,19l.19.59-8.79,4.4v25.17l4.4,4.41-2-.43c-.4,1-1.46,6,.46,30.11Z" transform="translate(-48.13 -68.58)"/><path class="cls-1" d="M187.37,211.14l0-.25c-1-12.09-1.79-27.18-.3-30.93l-2.58-2.59V150.45l8.44-4.22c-2.19-7.48-1.61-14.08,1.73-19.61,5.88-9.76,18.53-13.13,21.51-13.8V87.69c.4-5.9,2.59-10.54,6.52-13.79,7.89-6.54,20-5.23,20.48-5.17l.25,0-.23,1.93-.24,0c-.49-.05-11.87-1.19-19,4.75-3.49,2.9-5.45,7.06-5.82,12.36v26.66l-.8.14c-.15,0-14.82,2.82-21,13.07-3.15,5.23-3.59,11.56-1.3,18.81l.25.79-8.84,4.42v24.92l4.93,4.94-2.6-.57c-.42,1.35-1.27,7,.54,29.8l0,.25Zm-2.4-34,2.68,2.68-.07.16c-1.22,2.64-1.13,13.22.25,30.59l.93-.07c-1.85-23.36-.91-28.75-.42-30l.08-.19,1.36.29-3.87-3.87V151.34l8.74-4.37-.13-.38c-2.33-7.39-1.88-13.86,1.35-19.22,6.29-10.44,21.18-13.27,21.33-13.3l.39-.07V87.74c.38-5.46,2.4-9.74,6-12.73,6.83-5.66,17.37-5,19.15-4.88l.11-.93C241,69,230.2,68.31,223,74.29c-3.82,3.16-6,7.67-6.34,13.42v25.51l-.2,0c-2.53.55-15.46,3.79-21.38,13.61-3.29,5.46-3.84,12-1.62,19.41l.06.2L185,150.76Z" transform="translate(-48.13 -68.58)"/><path class="cls-1" d="M233.45,180.27c-30.54,0-47.88-3.26-48.15-3.31l.27-1.41c.42.08,42.47,8,111.38-1l.18,1.43A494.61,494.61,0,0,1,233.45,180.27Z" transform="translate(-48.13 -68.58)"/><path class="cls-1" d="M233.45,180.52c-30.59,0-48-3.28-48.2-3.32l-.25,0,.38-1.91.24.05c.42.08,42.72,7.94,111.29-1l.25,0,.25,1.93-.25,0A495.73,495.73,0,0,1,233.45,180.52Zm-47.86-3.76c2.22.4,19.29,3.26,47.86,3.26a496,496,0,0,0,63.4-4.25l-.12-.94c-65.8,8.54-107.4,1.64-111,1Z" transform="translate(-48.13 -68.58)"/><path class="cls-1" d="M297.62,152.48c-28.39-5.68-111.31-1.47-112.15-1.43l-.07-1.44c.83,0,83.94-4.26,112.5,1.46Z" transform="translate(-48.13 -68.58)"/><path class="cls-1" d="M297.81,152.77l-.24-.05c-28.46-5.69-111.25-1.46-112.08-1.42h-.25l-.1-1.93.25,0c3.42-.17,84.23-4.21,112.56,1.46l.24.05Zm-52-3.52c20,0,40.12.68,51.62,2.93l.19-.92c-14.83-2.9-44.24-3.14-66.35-2.83-23.15.33-43,1.29-45.6,1.42l.05.94C188.69,150.64,217.17,149.25,245.8,149.25Z" transform="translate(-48.13 -68.58)"/><path class="cls-1" d="M330.19,329.62H281.92v-1.44h46.77c-1.05-27.84-4.87-32.56-6.47-33.29a1.15,1.15,0,0,0-.66-.11,3.49,3.49,0,0,1-.53.24l-3.83,1.28,3.15-2.53a2.23,2.23,0,0,1,.71-.35c6.39-3.85,11.69-40.71,13.34-56H274.72V236H336l-.08.8c-.55,5.23-5.28,48.16-13,56.82,4,2,6.48,14.2,7.23,35.24Z" transform="translate(-48.13 -68.58)"/><path class="cls-1" d="M330.45,329.87H281.67v-1.94h46.76c-.29-7.5-1.58-30.64-6.31-32.81a.93.93,0,0,0-.49-.09,3.43,3.43,0,0,1-.52.23L316,297l4.24-3.4a2.29,2.29,0,0,1,.77-.39c5.6-3.46,10.92-34.95,13.16-55.49H274.47v-1.94h61.81l-.11,1.08c-.52,4.86-5.19,47.47-12.85,56.73,4.92,3.1,6.57,20.82,7.09,35.29Zm-48.28-.5h47.76l0-.49c-1-26.45-4.38-33.65-7.09-35l-.29-.15.22-.24c7.67-8.64,12.4-51.79,12.92-56.69l.05-.52H275v.94h59.71l0,.28c-.9,8.29-2.66,21.13-4.9,32.28-2.83,14.13-5.71,22.16-8.56,23.88l-.06,0a1.8,1.8,0,0,0-.63.3l-2.05,1.65,2.5-.84a3.44,3.44,0,0,0,.49-.21l.08,0a1.44,1.44,0,0,1,.81.12c2,.93,5.59,6.53,6.61,33.51v.26H282.17Z" transform="translate(-48.13 -68.58)"/><path class="cls-1" d="M327.28,329.62H279l0-.75c.75-21,3.25-33.22,7.23-35.24-7.71-8.66-12.44-51.59-13-56.82l-.08-.8h61.28v1.44H274.8c1.65,15.26,6.94,52.12,13.34,56a2.23,2.23,0,0,1,.71.35L292,296.3,288.17,295a3.1,3.1,0,0,1-.53-.24,1.18,1.18,0,0,0-.71.13c-1.59.78-5.37,5.59-6.43,33.27h46.78Z" transform="translate(-48.13 -68.58)"/><path class="cls-1" d="M327.53,329.87H278.75l0-1c.52-14.47,2.17-32.19,7.09-35.29-7.66-9.26-12.34-51.87-12.85-56.73l-.11-1.08h61.81v1.94H275.08c1.94,17.75,7.13,51.77,13.16,55.49a2.12,2.12,0,0,1,.76.39l4.25,3.4-5.16-1.72a3.59,3.59,0,0,1-.53-.24.93.93,0,0,0-.51.11c-4.71,2.31-6,25.34-6.29,32.8h46.77Zm-48.26-.5H327v-.94H280.25v-.26c1-26.83,4.56-32.5,6.57-33.49a1.37,1.37,0,0,1,.87-.14l.07,0a3,3,0,0,0,.49.21l2.5.84L288.69,294a1.63,1.63,0,0,0-.62-.3l-.06,0c-2.85-1.72-5.73-9.75-8.56-23.88-2.24-11.15-4-24-4.9-32.28l0-.28h59.71v-.94H273.48l0,.52c.51,4.9,5.25,48,12.92,56.69l.22.24-.29.15c-2.71,1.37-6.15,8.57-7.09,35Z" transform="translate(-48.13 -68.58)"/><rect class="cls-1" x="238.73" y="223.97" width="35.47" height="1.44"/><path class="cls-1" d="M322.58,294.24h-36V292.3h36Zm-35.46-.5h35v-.94h-35Z" transform="translate(-48.13 -68.58)"/><path class="cls-1" d="M58.81,330.27a4.75,4.75,0,0,1-2.86-.91c-4.27-3.06-3.83-13.06-3.73-14.7C48.62,308,47.55,302.73,49,299a6.64,6.64,0,0,1,3.69-3.88c.7-.14,60.58-11.55,64.81-13,2.74-.91,2.92-8.85,2.39-13.64l1.43-.16c.15,1.39,1.37,13.59-3.37,15.17-4.32,1.44-62.42,12.51-64.89,13a5.32,5.32,0,0,0-2.74,3.06c-.9,2.32-1.06,6.74,3.23,14.61l.11.19,0,.21c0,.11-.78,10.85,3.12,13.64,1.17.84,2.64.85,4.52,0l59.05-24.48c.45-.1,8-1.55,9.6,3.32l-1.37.45c-1.22-3.67-7.75-2.41-7.82-2.4l-58.9,24.44A7.85,7.85,0,0,1,58.81,330.27Z" transform="translate(-48.13 -68.58)"/><path class="cls-1" d="M58.81,330.52a5.05,5.05,0,0,1-3-.95c-4.29-3.08-4-12.75-3.85-14.86-3.6-6.69-4.67-12-3.17-15.83a6.8,6.8,0,0,1,3.86-4c.09,0,.64-.13,1.59-.31,38.29-7.34,60.74-11.83,63.21-12.66s2.78-8.31,2.22-13.37l0-.25,1.93-.21,0,.25c.15,1.4,1.38,13.78-3.54,15.43-4.06,1.35-54.66,11-64.76,13l-.14,0a5.19,5.19,0,0,0-2.58,2.91c-.87,2.27-1,6.61,3.22,14.4l.14.25,0,.29c0,.11-.77,10.7,3,13.42,1.08.78,2.48.78,4.27,0l59.05-24.48c.12,0,8.2-1.73,9.93,3.47l.08.24-1.84.61-.08-.24c-1.14-3.42-7.46-2.25-7.52-2.23L62,329.79A8.09,8.09,0,0,1,58.81,330.52Zm61.38-61.81c.38,3.68.59,12.6-2.59,13.66-3.35,1.12-41.08,8.42-63.26,12.67l-1.57.3a6.45,6.45,0,0,0-3.51,3.72c-1.45,3.69-.38,8.89,3.18,15.48l0,.06v.07c-.07,1.17-.59,11.47,3.63,14.49,1.5,1.08,3.42,1.13,5.67.17l58.91-24.44c.11,0,6.58-1.27,8.06,2.32l.89-.3c-1.76-4.49-9.14-2.93-9.22-2.91l-59,24.46c-2,.85-3.51.82-4.75-.06-4-2.88-3.24-13.76-3.23-13.87v-.14l-.07-.12c-4.34-8-4.16-12.45-3.24-14.82a5.64,5.64,0,0,1,2.68-3.11v0l.42-.08c10.09-1.93,60.67-11.61,64.69-12.95,3.64-1.21,3.75-9.66,3.23-14.65Z" transform="translate(-48.13 -68.58)"/><path class="cls-1" d="M169.59,326.74a49.69,49.69,0,1,1,49.69-49.68A49.74,49.74,0,0,1,169.59,326.74Zm0-97.93a48.25,48.25,0,1,0,48.25,48.25A48.3,48.3,0,0,0,169.59,228.81Z" transform="translate(-48.13 -68.58)"/><path class="cls-1" d="M169.59,327a49.94,49.94,0,1,1,49.94-49.93A50,50,0,0,1,169.59,327Zm0-99.37A49.44,49.44,0,1,0,219,277.06,49.5,49.5,0,0,0,169.59,227.62Zm0,97.93a48.5,48.5,0,1,1,48.5-48.49A48.55,48.55,0,0,1,169.59,325.55Zm0-96.49a48,48,0,1,0,48,48A48,48,0,0,0,169.59,229.06Z" transform="translate(-48.13 -68.58)"/><path class="cls-1" d="M214.24,321.07a10.51,10.51,0,0,1-1.37-.09c-6.26-.86-10.58-7.2-10.76-7.47l1.2-.8c0,.06,4.15,6.08,9.76,6.84,2.7.38,5.36-.55,7.9-2.72,2.11-1.81,3.08-3.81,2.88-5.92-.58-5.94-9.87-11.25-10-11.3l.71-1.26c.41.23,10,5.74,10.69,12.42.25,2.61-.88,5-3.38,7.15A11.66,11.66,0,0,1,214.24,321.07Z" transform="translate(-48.13 -68.58)"/><path class="cls-1" d="M214.24,321.33a11.14,11.14,0,0,1-1.41-.1c-6.39-.88-10.74-7.31-10.92-7.58l-.14-.21,1.61-1.08.14.21c0,.06,4.11,6,9.58,6.74,2.62.36,5.22-.54,7.7-2.67,2.06-1.76,3-3.68,2.8-5.71-.57-5.81-9.75-11.05-9.84-11.1l-.22-.13,1-1.69.21.12c.42.24,10.15,5.82,10.82,12.62.26,2.69-.9,5.17-3.46,7.36A11.94,11.94,0,0,1,214.24,321.33Zm-11.78-7.75c.81,1.13,4.82,6.38,10.44,7.15,3,.42,6-.59,8.84-3,2.43-2.08,3.54-4.41,3.29-6.94-.59-6.07-8.86-11.21-10.35-12.09l-.46.82c1.43.85,9.33,5.84,9.87,11.37.22,2.2-.78,4.26-3,6.13-2.6,2.23-5.32,3.16-8.1,2.78-5.16-.7-9-5.66-9.78-6.75Z" transform="translate(-48.13 -68.58)"/><path class="cls-1" d="M193.18,234.1l-1.31-.61c.06-.12,5.3-11.45,2.77-18.1a6.58,6.58,0,0,0-3.73-3.91,5.18,5.18,0,0,0-4.73.1c-5.9,3.1-8.65,16.52-8.68,16.65l-1.41-.28c.12-.58,2.91-14.22,9.42-17.64a6.63,6.63,0,0,1,6-.16,8.1,8.1,0,0,1,4.51,4.72C198.73,222.1,193.4,233.61,193.18,234.1Z" transform="translate(-48.13 -68.58)"/><path class="cls-1" d="M193.3,234.43l-1.76-.82.11-.23c0-.11,5.26-11.34,2.75-17.91a6.32,6.32,0,0,0-3.59-3.76,5,5,0,0,0-4.51.09c-5.76,3-8.53,16.35-8.55,16.48l-.05.25-1.9-.38,0-.25c.12-.58,2.94-14.34,9.55-17.82a6.94,6.94,0,0,1,6.19-.16,8.34,8.34,0,0,1,4.64,4.87c2.78,7.3-2.59,18.92-2.82,19.41Zm-1.1-1.07.85.4c.78-1.72,5.23-12.15,2.7-18.8a7.86,7.86,0,0,0-4.37-4.58,6.41,6.41,0,0,0-5.76.15c-6,3.16-8.82,15.28-9.23,17.23l.92.18c.41-1.9,3.15-13.64,8.75-16.58a5.43,5.43,0,0,1,4.95-.11,6.8,6.8,0,0,1,3.86,4.05C197.25,221.53,192.94,231.71,192.2,233.36Z" transform="translate(-48.13 -68.58)"/><path class="cls-1" d="M64.58,314.17a4.57,4.57,0,0,1-1.23-9l13.38-3.76a4.53,4.53,0,0,1,3.47.42,4.48,4.48,0,0,1,2.16,2.75,4.56,4.56,0,0,1-3.16,5.63L65.82,314A4.75,4.75,0,0,1,64.58,314.17ZM78,302.71a3,3,0,0,0-.84.12l-13.38,3.75a3.14,3.14,0,0,0-1.88,1.49,3.07,3.07,0,0,0-.29,2.37,3.12,3.12,0,0,0,3.86,2.17l13.38-3.75A3.14,3.14,0,0,0,81,305a3.18,3.18,0,0,0-3-2.29Z" transform="translate(-48.13 -68.58)"/><path class="cls-1" d="M64.58,314.42a4.82,4.82,0,0,1-1.3-9.46l13.38-3.76a4.82,4.82,0,0,1,2.61,9.28l-13.38,3.76A4.87,4.87,0,0,1,64.58,314.42ZM78,301.52a4.29,4.29,0,0,0-1.17.16l-13.37,3.76a4.31,4.31,0,0,0-1,7.92,4.38,4.38,0,0,0,3.28.4L79.13,310A4.32,4.32,0,0,0,78,301.52ZM64.58,313a3.37,3.37,0,0,1-1.65-.44,3.37,3.37,0,0,1-1.29-4.6,3.39,3.39,0,0,1,2-1.6l13.38-3.75a3.41,3.41,0,0,1,2.57.31,3.32,3.32,0,0,1,1.6,2,3.4,3.4,0,0,1-2.34,4.17L65.5,312.85A3.2,3.2,0,0,1,64.58,313ZM78,303a2.87,2.87,0,0,0-.77.11L63.8,306.82a2.92,2.92,0,0,0-1.73,1.37,2.88,2.88,0,0,0,1.1,3.92,2.85,2.85,0,0,0,2.19.26l13.38-3.75a2.89,2.89,0,0,0,2-3.56,2.85,2.85,0,0,0-1.37-1.73A2.91,2.91,0,0,0,78,303Z" transform="translate(-48.13 -68.58)"/><path class="cls-1" d="M148,274.9a3.53,3.53,0,0,1-2.93-1.29c-1.49-1.91-.68-5.23-.64-5.37.23-.76,5.61-17.64,17.8-20.68l.35,1.39c-11.41,2.86-16.72,19.51-16.77,19.68-.18.73-.48,3,.4,4.09a2.09,2.09,0,0,0,1.79.74,3.49,3.49,0,0,0,3.6-3.6l0-.26c.18-.48,4.52-11.85,11.93-14.81l.53,1.33C157.65,258.7,153.5,268.81,153,270A4.84,4.84,0,0,1,148,274.9Z" transform="translate(-48.13 -68.58)"/><path class="cls-1" d="M148,275.15a3.73,3.73,0,0,1-3.12-1.39c-1.57-2-.73-5.43-.7-5.58.23-.74,5.64-17.78,18-20.87l.24-.06.47,1.88-.24.07C151.35,252,146.09,268.54,146,268.7c-.16.67-.45,2.83.36,3.87a1.86,1.86,0,0,0,1.59.64,3.25,3.25,0,0,0,3.35-3.35l0-.3c.2-.53,4.58-12,12.08-15l.24-.09.72,1.8-.24.1c-6.29,2.51-10.39,12.38-10.91,13.69A5.08,5.08,0,0,1,148,275.15Zm14-27.29c-11.91,3.18-17.17,19.75-17.39,20.45,0,.13-.81,3.33.61,5.14a3.28,3.28,0,0,0,2.73,1.2,4.59,4.59,0,0,0,4.79-4.66l0-.09c.45-1.14,4.55-11.15,11-13.91l-.35-.88c-7.16,3.07-11.38,14.11-11.56,14.58l0,.21a3.73,3.73,0,0,1-3.85,3.81,2.38,2.38,0,0,1-2-.83c-.94-1.2-.64-3.52-.44-4.31.06-.18,5.33-16.74,16.71-19.8Z" transform="translate(-48.13 -68.58)"/><path class="cls-1" d="M184.73,262.37a5.24,5.24,0,0,1-4-2.09c-.84-.68-10.15-8-16.54-4.21l-.75-1.23c7.56-4.54,17.84,4,18.28,4.39l.11.12a3.46,3.46,0,0,0,5,.78,2.12,2.12,0,0,0,1-1.65c0-1.43-1.52-3.06-2.13-3.56-.11-.1-11.33-9.34-23.18-6l-.39-1.39c12.59-3.59,24,5.85,24.5,6.25.11.09,2.72,2.29,2.64,4.71a3.48,3.48,0,0,1-1.6,2.77A5.05,5.05,0,0,1,184.73,262.37Z" transform="translate(-48.13 -68.58)"/><path class="cls-1" d="M184.73,262.62a5.47,5.47,0,0,1-4.18-2.19c-1-.78-10-7.87-16.22-4.14l-.21.13-1-1.67.22-.13c7.73-4.64,18.12,4.05,18.56,4.42l.14.14a3.22,3.22,0,0,0,4.7.75,1.9,1.9,0,0,0,.91-1.46c0-1.32-1.49-2.91-2-3.36-.11-.09-11.21-9.26-23-5.92l-.24.06-.53-1.86.24-.07c12.72-3.63,24.24,5.89,24.73,6.3,0,0,2.81,2.33,2.73,4.91a3.75,3.75,0,0,1-1.71,3,5.3,5.3,0,0,1-3.15,1.12Zm-16.32-7.9c5.69,0,11.68,4.7,12.5,5.36a5,5,0,0,0,3.82,2,4.83,4.83,0,0,0,2.86-1,3.28,3.28,0,0,0,1.5-2.58c.07-2.33-2.53-4.48-2.55-4.5-.48-.4-11.66-9.64-24-6.27l.25.9c11.9-3.22,23.06,6,23.17,6.09s2.28,1.91,2.22,3.76a2.34,2.34,0,0,1-1.12,1.84,3.69,3.69,0,0,1-5.38-.83l-.09-.1c-.41-.34-10.34-8.65-17.75-4.47l.48.8A8.38,8.38,0,0,1,168.41,254.72Z" transform="translate(-48.13 -68.58)"/><path class="cls-1" d="M178.85,305.65l-.38-1.39c11.32-3.16,16.16-20,16.21-20.13.16-.74.4-3-.51-4.08a2.08,2.08,0,0,0-1.82-.68,3.21,3.21,0,0,0-3.08,1.84,4.62,4.62,0,0,0-.41,1.85v.14l0,.12c-.17.49-4.19,12-11.51,15.14l-.58-1.32c6.4-2.77,10.27-13,10.69-14.18a6.25,6.25,0,0,1,.54-2.35,4.58,4.58,0,0,1,4.35-2.68,3.51,3.51,0,0,1,3,1.2c1.54,1.87.83,5.21.8,5.35C195.86,285.24,191,302.27,178.85,305.65Z" transform="translate(-48.13 -68.58)"/><path class="cls-1" d="M178.68,306l-.52-1.87.24-.07c11.15-3.12,16-19.79,16-20,.14-.67.38-2.84-.46-3.85a1.84,1.84,0,0,0-1.62-.59,3,3,0,0,0-2.86,1.7,4.35,4.35,0,0,0-.39,1.74v.17l-.06.17c-.16.49-4.2,12.07-11.65,15.29l-.22.1-.77-1.78.22-.1c6.23-2.69,10.06-12.68,10.54-14a6.34,6.34,0,0,1,.57-2.41,4.8,4.8,0,0,1,4.57-2.82,3.74,3.74,0,0,1,3.16,1.29c1.63,2,.88,5.42.85,5.56-.21.75-5.12,17.93-17.4,21.36Zm.09-1.53.26.91c11.83-3.52,16.61-20.21,16.81-20.93,0,0,.72-3.34-.75-5.12a3.31,3.31,0,0,0-2.77-1.11,4.34,4.34,0,0,0-4.13,2.53,5.82,5.82,0,0,0-.52,2.25l0,.08c-.42,1.16-4.24,11.28-10.59,14.23l.37.86c7.11-3.27,11-14.42,11.15-14.89l0-.08v-.09a4.94,4.94,0,0,1,.43-2,3.44,3.44,0,0,1,3.31-2,2.33,2.33,0,0,1,2,.77c1,1.17.74,3.5.56,4.29C194.87,284.37,190,301.07,178.77,304.43Z" transform="translate(-48.13 -68.58)"/><path class="cls-1" d="M172.39,306.63c-9.79,0-17.77-6.23-18.18-6.55-.11-.09-2.78-2.22-2.77-4.64a3.5,3.5,0,0,1,1.53-2.81,4.56,4.56,0,0,1,5.06-.69,6.16,6.16,0,0,1,1.94,1.5c.83.64,10.36,7.78,16.66,3.75l.78,1.22c-7.43,4.73-17.95-3.53-18.39-3.89l-.12-.12a3.47,3.47,0,0,0-5.05-.64,2.13,2.13,0,0,0-1,1.68c0,1.43,1.61,3,2.23,3.51.11.09,11.58,9,23.33,5.32l.44,1.37A21.43,21.43,0,0,1,172.39,306.63Z" transform="translate(-48.13 -68.58)"/><path class="cls-1" d="M172.39,306.88c-9.88,0-18-6.34-18.33-6.61-.12-.09-2.88-2.27-2.87-4.83a3.74,3.74,0,0,1,1.62-3,4.84,4.84,0,0,1,5.33-.72,6.59,6.59,0,0,1,2,1.57,29.9,29.9,0,0,0,6.17,3.56c4.18,1.73,7.6,1.78,10.16.14l.21-.13,1,1.63-.21.14c-7.57,4.83-18.23-3.54-18.68-3.9l-.14-.14A3.19,3.19,0,0,0,154,294a1.9,1.9,0,0,0-.87,1.49c0,1.31,1.58,2.86,2.13,3.3s11.61,8.89,23.11,5.28l.24-.07.58,1.85-.24.07A21.82,21.82,0,0,1,172.39,306.88ZM156,291.72a4.73,4.73,0,0,0-2.92,1.1,3.27,3.27,0,0,0-1.43,2.62c0,2.32,2.65,4.42,2.68,4.44.33.27,8.31,6.5,18,6.5a21.17,21.17,0,0,0,6.17-.9l-.28-.9c-11.66,3.5-22.85-5.07-23.33-5.44,0,0-2.33-1.86-2.32-3.7a2.32,2.32,0,0,1,1.07-1.87,3.71,3.71,0,0,1,5.4.68l.1.1c.41.32,10.6,8.33,17.86,4l-.51-.8c-6.4,3.81-15.68-3.08-16.73-3.89a6.22,6.22,0,0,0-1.9-1.48A4.42,4.42,0,0,0,156,291.72Z" transform="translate(-48.13 -68.58)"/><path class="cls-1" d="M172.94,331.12a3.11,3.11,0,0,1-.64-.08c-2.25-.57-3.35-2.74-3.82-5.35-.68,2.24-1.57,4-2.75,4.46a2.2,2.2,0,0,1-2.4-.74,9,9,0,0,1-2.31-4.73c-1,2.74-2.4,4.94-4.39,4.94a2.13,2.13,0,0,1-1.74-.88c-1.16-1.51-1-5.08-.51-8.47-1.7,3.29-4,6.47-6.39,6.47a2,2,0,0,1-1.69-.88c-1-1.44-.62-4.81.13-8.09-1.44,1.79-3.31,3.21-5.64,3.21a2.27,2.27,0,0,1-2.15-1.14c-.77-1.42-.09-4.08,1.06-6.83-2.3,2.76-4.66,5.09-6.11,5.09a1.63,1.63,0,0,1-1.52-1.25,6.43,6.43,0,0,1-.33-2.28c0-4.67,2.69-13.75,7.61-13.75v1.44c-2.46,0-4.55,3.92-5.53,7.81s-.65,6.36-.22,6.59c1.53,0,6.86-6.56,10.92-12.64l1.2.78c-2.84,4.47-6.93,12.31-5.81,14.34.1.19.29.4.88.4,3.83,0,6.33-5.2,7.39-7.93.27-.83.49-1.44.58-1.68l1.37.44c0,.11-.25.84-.65,1.86-1.55,4.72-3.13,11.19-2,12.81a.57.57,0,0,0,.51.26c2.77,0,6.35-7.65,8-12.47l1.38.42c-1.27,4.65-2.74,12.73-1.3,14.62a.72.72,0,0,0,.6.31c1.74,0,3.2-3.8,4.13-8a29.28,29.28,0,0,1,.94-5.85l1.41.27a54.87,54.87,0,0,1-.91,5.87c-.13,2.83.24,6,2.14,7.95.54.54.81.44.89.41,1.24-.46,2.29-4.44,3-8.68a42.58,42.58,0,0,1,.69-5.76l1.42.19c-.07.92-.27,3.27-.69,5.88-.17,4.1.34,8.54,3,9.21.33.08.76.09,1.28-.59,1.09-1.42,1.64-4.48,1.87-7.55a11.46,11.46,0,0,1-1.16-7.12c.28-1.66.56-2.23,1.14-2.35a.86.86,0,0,1,.92.41c.55.85.85,4.74.58,8.73a20,20,0,0,0,5.89,6.33c-.29-4-.68-9.06-.95-12.12a9.09,9.09,0,0,1-.38-2.32c0-.58,0-1.3.73-1.33.52,0,.77,0,1.12,3.6,1.18,4,4.6,9.77,6.23,10,.28,0,.49-.56.58-.91,1.36-5.46-1.39-12.45-1.41-12.52l1.32-.56c1.64,3.69,4.75,8.94,6.54,9.1.11,0,.45,0,.85-.56,1.88-2.84-.5-8-1.94-10.58l-1-1.62,1.22-.76a19.93,19.93,0,0,1,1,1.74c4.62,7.54,6.38,7.52,6.7,7.44.72-.19,1-2.06,1-3-.35-1.88-.78-3.89-1.21-5.69-2.13-1.68-3.83-3.81-3.08-6.06.29-.86.75-1.27,1.33-1.24.41,0,1.47.11,3.05,6.47a27.93,27.93,0,0,0,4.56,2.67,9.47,9.47,0,0,0,.63-3.45c-3.95-1-7.64-7.41-8.07-8.19l-.81-1.46,1.61.41c.23.06,5.74,1.47,7.89,5.8a7.83,7.83,0,0,1,.69,2.08,3.29,3.29,0,0,0,2.15-1.79,4,4,0,0,0,.5-3.81c-.77-1.79-2.92-3.08-4.88-3.93-1.63-.48-3.05-1-3.9-1.3l.41-1.38a25.84,25.84,0,0,1,3.83,1.26c4.09,1.16,7.8,1.62,8.33.56.63-1.24-4.16-5.6-9.51-9.38-1-.67-1.7-1.17-1.8-1.24l.84-1.17c.47.31,1.11.74,1.84,1.26,2.73,1.74,7.06,4,9.67,3.37a2.64,2.64,0,0,0,1.84-1.48,1.57,1.57,0,0,0,0-1.54c-.83-1.57-3.82-2.91-7.15-3.93a41.26,41.26,0,0,1-9.74-2.17l-6.52-2.37,6.87,1a70.86,70.86,0,0,1,9.76,2.15,9.47,9.47,0,0,0,5.08-.78,3.12,3.12,0,0,0,1.63-2.24,2.5,2.5,0,0,0-.58-2.4,5.2,5.2,0,0,0-2.57-1.23A44.76,44.76,0,0,1,207,272l-5.09-.51,5-.91c.33-.06,6.29-1.13,10.68-.21a6,6,0,0,0,2.7-1.09,1.15,1.15,0,0,0,.43-.88.92.92,0,0,0-.36-.7,4.34,4.34,0,0,0-1.6-.82c-5.11,1.73-14.34-.55-14.78-.66l-4.22-1.05,4.34-.36c1.16-.1,9.71-.75,14.59.57a4.36,4.36,0,0,0,1-.57,2.59,2.59,0,0,0,1-2.17,2.2,2.2,0,0,0-.92-1.9c-2.13-1.57-7.36-1-11.67-.15-2.33.7-4.4,1.15-5.27,1.32l-.36-1.39c.22-.07,2.34-.71,5.11-1.29C212,257.9,216.4,256,216.4,254c0-.25-.09-.31-.16-.34-1-.6-4.45.52-8.12,2.12a64.6,64.6,0,0,1-6.57,3.21l-.62-1.3c1-.52,3.63-1.94,6.56-3.22,3.24-1.84,6.33-4,6.69-5.84a1.39,1.39,0,0,0-.45-1.32c-1-.95-2.42-1-4.08-.63-2.5,3.39-10,6.21-11,6.56L195,254.57l2.89-2.54c.34-.29,5.85-5.07,10.82-6.56a1.92,1.92,0,0,0,.26-.71c0-.21.13-.87-1-1.69a4.86,4.86,0,0,0-2.72-1.06c-2.48,4.62-8.18,5.51-8.26,5.52l-1.6.23.9-1.35c.13-.2,3.39-5,7.64-5.75l.39-.06a9.8,9.8,0,0,0,.49-5.2c-.15-1.05-.49-2.33-1.3-2.52-1-.23-2.58.88-4.29,2.55-1,3.86-6,7.48-6.24,7.65l-3.19,2.28,2.18-3.27a52.81,52.81,0,0,1,5.94-7.42,3.67,3.67,0,0,0,0-.46,3.19,3.19,0,0,0-1.49-2.66,2.66,2.66,0,0,0-2.61-.6,5.87,5.87,0,0,0-2.61,2.71,36,36,0,0,1-2.34,6.28l-2.62,5.23,1.27-5.71a26.93,26.93,0,0,1,2.32-6.28c.86-3.33,1.13-6.93-.76-8.71-.57-.53-.9-.42-1-.37-1.36.47-2.73,4.21-3.72,8.27a35.23,35.23,0,0,1-1.19,6l-1.4-.31c.14-.94.53-3.39,1.17-6.06.24-2.48.12-5-.92-6.4a2.78,2.78,0,0,0-2.41-1.12,3.36,3.36,0,0,0-2.8,1.25,8,8,0,0,0-1.35,4.54,45.27,45.27,0,0,1,.55,6.45v6.56l-1.43-6.4a28.15,28.15,0,0,1-.56-6.5c-.66-4-2-8.14-4.67-8.8-.84-.21-1.2,0-1.4.24-1.36,1.43-.5,6.9.51,10.69.19.65.3,1.07.32,1.16l-1.38.38c-.05-.16-.15-.5-.28-1-.82-2.71-3.49-10.41-7.85-11.5-.89-.22-1.15.08-1.24.18-1.25,1.44.47,7.77,2.08,11.82l-1.28.65c-1.9-3.05-7.79-10.5-12-8.38a1.91,1.91,0,0,0-1.2,1.51,4,4,0,0,0,.33,1.89,17.57,17.57,0,0,1,7,8.69l.84,2.51-2-1.74c-.65-.57-5.19-4.63-6.94-8.42a12.7,12.7,0,0,0-4.22-1.5c-.72-.12-1.65-.15-2,.36-1.1,1.81,2.84,8.63,6.3,13.43.41.52.65.88.69.94l-1.17.84-.56-.76c-1.55-2-6.25-7.26-11.68-6.17-1.28.26-1.47.87-1.53,1.07-.27.89.19,2.25,1.06,3.79,6.71,2,6.8,8.75,6.8,8.83v1.74l-1.23-1.23a47.65,47.65,0,0,1-6.52-8.1,13.13,13.13,0,0,0-3-.33c-1.36,0-2.19.34-2.48,1-.72,1.63,1.16,5.19,3.66,8.72,3.18,1.8,5.15,6.33,5.25,6.55l1.66,3.89-2.86-3.12a73.94,73.94,0,0,1-5.05-6.21,3.13,3.13,0,0,0-.72-.27,3.73,3.73,0,0,0-3.34.81,2.79,2.79,0,0,0-1.33,2.4,3.73,3.73,0,0,0,.34,1.33c3.24,1.07,6.51,6.18,6.92,6.83l1.66,2.65-2.65-1.65c-.24-.16-5-3.15-6.9-6.57a1.51,1.51,0,0,0-.3,0c-.73.07-1.35.71-1.83,1.91a4.56,4.56,0,0,0,.08,4c1.82,3.56,8,5.14,8.07,5.16l-.35,1.39c-.28-.07-6.89-1.76-9-5.89a6,6,0,0,1-.14-5.15c.67-1.67,1.63-2.6,2.86-2.79a4.8,4.8,0,0,1-.2-1.11,4.17,4.17,0,0,1,1.9-3.61,5.37,5.37,0,0,1,3.69-1.21c-2.07-3.19-3.63-6.57-2.74-8.59.54-1.24,1.82-1.87,3.8-1.87a15.11,15.11,0,0,1,2.2.15,5.71,5.71,0,0,1-.64-3.82A3.08,3.08,0,0,1,132,236a10.82,10.82,0,0,1,8.32,2.08c-2.14-3.63-4-7.76-2.84-9.7.58-1,1.74-1.31,3.42-1a14.44,14.44,0,0,1,3.37,1,4.28,4.28,0,0,1,0-1.18,3.36,3.36,0,0,1,2-2.62c4-2,8.32,1.88,11.09,5.12-.95-3.25-1.71-7.26-.3-8.86a2.47,2.47,0,0,1,2.67-.64c2.68.68,4.76,3.27,6.25,6-.16-2.22,0-4.31,1-5.36a2.73,2.73,0,0,1,2.79-.65c2.55.64,4.07,3.42,5,6.53a6.31,6.31,0,0,1,1-1.88,4.79,4.79,0,0,1,3.92-1.79,4.2,4.2,0,0,1,3.57,1.7,6.64,6.64,0,0,1,1.1,2.75c.87-2.36,2-4.29,3.32-4.76a2.33,2.33,0,0,1,2.48.68c1.8,1.69,2.1,4.38,1.77,7.11a4.82,4.82,0,0,1,1.49-.93,4,4,0,0,1,4,.8,4.8,4.8,0,0,1,2,3c1.61-1.35,3.21-2.19,4.52-1.9s2.1,1.54,2.41,3.71a11.54,11.54,0,0,1-.39,5.44,6.53,6.53,0,0,1,3,1.29,3.18,3.18,0,0,1,1.52,3.05l0,.14a4.91,4.91,0,0,1,4.35,1.2,2.79,2.79,0,0,1,.84,2.6,7.05,7.05,0,0,1-2.59,3.58c1.71-.44,3.16-.55,4-.06a1.77,1.77,0,0,1,.86,1.58c0,1.72-1.69,3.18-3.94,4.35,2.71-.14,5.25.12,6.75,1.23a3.62,3.62,0,0,1,1.51,3.06,4,4,0,0,1-1.58,3.3l-.13.1a4.32,4.32,0,0,1,.89.6,2.41,2.41,0,0,1,.82,1.76,2.61,2.61,0,0,1-.91,1.95,4.83,4.83,0,0,1-1.32.8,5.06,5.06,0,0,1,1.25.9,3.89,3.89,0,0,1,1,3.7,4.56,4.56,0,0,1-2.33,3.21,7.59,7.59,0,0,1-2.31.79c2.13.93,3.87,2.06,4.57,3.4a3,3,0,0,1,0,2.86,4,4,0,0,1-2.8,2.23,8.45,8.45,0,0,1-4.38-.4c2.84,2.5,5.12,5.17,4.3,6.81-.72,1.44-3,1.58-5.56,1.21a6.82,6.82,0,0,1,1.8,2.36,5.41,5.41,0,0,1-.59,5.12,4.58,4.58,0,0,1-3.24,2.49,11.51,11.51,0,0,1-1,4.62l-.29.66-.66-.28a32,32,0,0,1-4.18-2.21c.27,1.24.56,2.66.85,4.3,0,.52,0,4-2.06,4.54-.88.24-2.24,0-4.65-2.83.5,2.14.52,4.34-.6,6a2.29,2.29,0,0,1-2.17,1.19c-1.62-.14-3.36-2.2-4.79-4.43a18.89,18.89,0,0,1-.14,7.33c-.47,1.9-1.54,2.06-2.15,2-1.75-.21-4-3.29-5.66-6.62.17,2.26.38,5.11.63,8.74l.1,1.34-1.17-.67a23.12,23.12,0,0,1-6.59-6,15.07,15.07,0,0,1-1.87,6.23A2.74,2.74,0,0,1,172.94,331.12Zm29-29.28a3.21,3.21,0,0,0,1.05,2.94A16.83,16.83,0,0,0,201.94,301.84Zm2.47-3.24c1.37,2,3.52,4.74,5.53,5.57a6.7,6.7,0,0,0-.45-1.2A10.13,10.13,0,0,0,204.41,298.6Zm-71.25-54.21a46.16,46.16,0,0,0,3.65,4.54A7.62,7.62,0,0,0,133.16,244.39Zm70.31-2.12a11.38,11.38,0,0,0-4.59,3.29A9.93,9.93,0,0,0,203.47,242.27Z" transform="translate(-48.13 -68.58)"/><path class="cls-1" d="M172.94,331.37a2.8,2.8,0,0,1-.7-.09c-1.87-.47-3.15-2-3.81-4.63-.75,2.14-1.6,3.36-2.61,3.73a2.42,2.42,0,0,1-2.67-.8,8.72,8.72,0,0,1-2.19-4c-1.18,2.87-2.63,4.33-4.33,4.33a2.36,2.36,0,0,1-1.94-1c-.91-1.19-1.16-3.64-.73-7.31-2.05,3.59-4.05,5.41-6,5.41a2.24,2.24,0,0,1-1.9-1c-.83-1.19-.86-3.65-.11-7.34a7.07,7.07,0,0,1-5.19,2.56,2.47,2.47,0,0,1-2.36-1.27c-.62-1.12-.45-3,.5-5.67-2.4,2.73-4.15,4.06-5.34,4.06a1.88,1.88,0,0,1-1.76-1.41,7,7,0,0,1-.34-2.37c0-4.75,2.78-14,7.86-14h.25v1.94h-.25c-2.31,0-4.36,3.95-5.29,7.62s-.62,5.88-.37,6.27c1.39-.26,6.27-6,10.62-12.52l.13-.21,1.63,1.06-.14.21c-3,4.74-6.81,12.25-5.8,14.08,0,.09.14.27.66.27,3.75,0,6.25-5.43,7.15-7.77.28-.83.49-1.43.58-1.68l.09-.22,1.83.59-.07.23c-.08.26-.29,1-.65,1.88-1.73,5.23-3,11.16-2,12.57a.33.33,0,0,0,.31.16c2.5,0,6-7.19,7.72-12.3l.08-.23,1.84.56-.06.23c-1.35,4.95-2.65,12.69-1.34,14.41a.45.45,0,0,0,.4.21c1.36,0,2.81-2.93,3.89-7.83a29.43,29.43,0,0,1,.94-5.87l.06-.22,1.86.36,0,.22a55.51,55.51,0,0,1-.92,5.9c-.16,3.57.54,6.18,2.08,7.72.27.27.49.4.62.35,1-.35,2-3.6,2.82-8.48a43.16,43.16,0,0,1,.68-5.77l.05-.23,1.89.25,0,.24c-.07.9-.27,3.28-.69,5.9-.13,3,.07,8.23,2.84,8.93.19,0,.54.13,1-.51.89-1.17,1.54-3.78,1.81-7.34a11.59,11.59,0,0,1-1.15-7.21c.26-1.57.54-2.39,1.33-2.56a1.13,1.13,0,0,1,1.17.52c.61.93.9,4.87.64,8.82a19.5,19.5,0,0,0,5.34,5.86c-.17-2.36-.59-8.07-.91-11.58a9.22,9.22,0,0,1-.38-2.34c0-.58,0-1.55,1-1.58.82,0,1,.32,1.38,3.83,1.22,4.08,4.59,9.57,6,9.75a1.86,1.86,0,0,0,.3-.72c1.32-5.26-1.28-12.07-1.39-12.36l-.09-.23.22-.1,1.55-.65.1.22c1.87,4.2,4.82,8.82,6.33,8.95.08,0,.3,0,.62-.45,1.86-2.79-.74-8.15-2-10.32-.31-.5-.63-1-1-1.61l-.12-.21,1.63-1,.13.2c.08.12.52.78,1.06,1.76,4.7,7.66,6.35,7.34,6.42,7.32.46-.13.83-1.63.83-2.78-.34-1.8-.76-3.78-1.19-5.55-2.71-2.16-3.75-4.27-3.09-6.28.41-1.21,1.11-1.43,1.58-1.41s1.65.12,3.26,6.57a29.57,29.57,0,0,0,4.19,2.48,9.13,9.13,0,0,0,.53-2.92c-4-1.13-7.63-7.53-8-8.26l-1.09-2,2.17.54c.6.16,5.91,1.62,8.05,5.94a8,8,0,0,1,.66,1.89,3.35,3.35,0,0,0,1.75-1.62,3.8,3.8,0,0,0,.48-3.58c-.77-1.78-3-3-4.75-3.8-1.58-.46-3-1-3.89-1.3l-.21-.08.54-1.82.23.05a24.78,24.78,0,0,1,3.87,1.27c4.79,1.36,7.66,1.37,8,.68.43-.85-3.06-4.56-9.43-9.07-1.08-.69-1.78-1.22-1.81-1.24l-.19-.14,1.11-1.58.2.14c.48.32,1.12.75,1.85,1.27,1.91,1.21,6.69,4,9.47,3.33a2.39,2.39,0,0,0,1.68-1.35,1.33,1.33,0,0,0,0-1.31c-.68-1.29-3.1-2.61-7-3.81a42,42,0,0,1-9.76-2.17l-8.78-3.2,9.25,1.32a72.9,72.9,0,0,1,9.81,2.16,9.13,9.13,0,0,0,4.88-.75,2.94,2.94,0,0,0,1.51-2.07,2.3,2.3,0,0,0-.52-2.19,4.94,4.94,0,0,0-2.39-1.15,44.54,44.54,0,0,1-10.64.17l-6.86-.69,6.78-1.23c.64-.12,6.38-1.11,10.73-.22a5.51,5.51,0,0,0,2.53-1,.88.88,0,0,0,.35-.68.65.65,0,0,0-.28-.52,4,4,0,0,0-1.43-.75c-5.19,1.71-14.45-.57-14.84-.67l-5.68-1.43,5.84-.48c1-.08,9.63-.75,14.59.55a3.61,3.61,0,0,0,.87-.5,2.35,2.35,0,0,0,.93-2,2,2,0,0,0-.82-1.71c-1.66-1.23-5.73-1.26-11.47-.1-2.38.71-4.48,1.16-5.27,1.32l-.24,0-.47-1.85.23-.07c.09,0,2.26-.7,5.12-1.29,5.38-1.62,8.6-3.49,8.6-5a.24.24,0,0,0,0-.12c-.81-.48-3.76.32-7.91,2.13a65.19,65.19,0,0,1-6.57,3.21l-.22.09-.83-1.72.21-.12c.77-.42,3.52-1.9,6.58-3.23,4-2.26,6.26-4.22,6.54-5.66a1.1,1.1,0,0,0-.38-1.09c-.8-.8-2.06-1-3.75-.59-2.62,3.44-10.21,6.26-11.07,6.58l-4.87,1.77,3.9-3.42c.23-.2,5.75-5,10.81-6.57a1.56,1.56,0,0,0,.18-.54c0-.18.11-.73-.86-1.46a4.74,4.74,0,0,0-2.43-1c-2.57,4.59-8.31,5.5-8.37,5.5l-2.14.31,1.2-1.8c.14-.21,3.46-5.12,7.81-5.87l.25,0a9.85,9.85,0,0,0,.43-4.94c-.2-1.37-.59-2.18-1.12-2.3-.79-.19-2.2.68-4,2.44-1,3.82-5.77,7.32-6.31,7.71l-4.31,3.08,2.94-4.4a53.91,53.91,0,0,1,5.91-7.41c0-.11,0-.23,0-.35a3,3,0,0,0-1.39-2.45,2.43,2.43,0,0,0-2.37-.57,5.48,5.48,0,0,0-2.46,2.58,36.32,36.32,0,0,1-2.36,6.29l-3.52,7,1.71-7.7a27.11,27.11,0,0,1,2.33-6.32c.74-2.86,1.21-6.63-.7-8.43-.46-.43-.69-.35-.77-.32-1.08.38-2.41,3.4-3.56,8.1a35.18,35.18,0,0,1-1.19,6l-.06.22-1.86-.41,0-.23c.14-.93.53-3.39,1.18-6.08.27-2.9,0-5.06-.88-6.19a2.56,2.56,0,0,0-2.21-1,3.14,3.14,0,0,0-2.61,1.16,7.76,7.76,0,0,0-1.29,4.39,44.3,44.3,0,0,1,.55,6.44v8.84l-1.92-8.63a27.57,27.57,0,0,1-.57-6.56c-.83-5-2.42-8-4.48-8.55-.8-.2-1.05.06-1.16.18-1.18,1.24-.53,6.28.57,10.44.19.65.3,1.08.33,1.17l.05.24-1.85.51-.07-.24c0-.16-.15-.5-.28-1-.72-2.38-3.4-10.25-7.67-11.32-.74-.18-.93,0-1,.11-1.06,1.21.28,6.94,2.13,11.55l.08.22-1.69.85-.12-.19c-1.87-3-7.62-10.32-11.7-8.29a1.66,1.66,0,0,0-1.06,1.32,3.56,3.56,0,0,0,.28,1.69,17.77,17.77,0,0,1,7,8.78l1.13,3.39-2.68-2.36c-.86-.75-5.21-4.67-7-8.42a12.56,12.56,0,0,0-4.08-1.43c-.89-.15-1.51-.06-1.7.24-1,1.56,2.53,7.94,6.29,13.15.43.55.68.92.7,1l.14.2-1.58,1.11-.14-.19-.57-.77c-1.31-1.69-6.05-7.14-11.43-6.06-1.13.22-1.28.73-1.33.89-.22.73.12,1.94,1,3.51,6.8,2,6.88,9,6.88,9v2.35l-1.65-1.66a47.53,47.53,0,0,1-6.51-8.06,13,13,0,0,0-2.89-.3c-1.25,0-2,.29-2.26.86-.58,1.31.7,4.31,3.61,8.43,3.22,1.86,5.22,6.45,5.3,6.64l2.25,5.24-3.85-4.2a73.19,73.19,0,0,1-5-6.19,3.94,3.94,0,0,0-.63-.22,3.48,3.48,0,0,0-3.12.77,2.57,2.57,0,0,0-1.23,2.19,3.51,3.51,0,0,0,.28,1.14c3.3,1.18,6.58,6.31,6.95,6.9l2.22,3.56-3.56-2.22c-.51-.32-5-3.19-6.92-6.54h-.13c-.63.06-1.17.65-1.62,1.76a4.34,4.34,0,0,0,.07,3.75c1.76,3.43,7.85,5,7.91,5l.24.06-.47,1.89-.24-.06c-.29-.07-7-1.8-9.17-6a6.27,6.27,0,0,1-.14-5.36,4.27,4.27,0,0,1,2.78-2.88,5,5,0,0,1-.14-.91,4.41,4.41,0,0,1,2-3.82,5.8,5.8,0,0,1,3.38-1.27c-2.44-3.85-3.28-6.68-2.51-8.43.58-1.34,1.94-2,4-2a17.09,17.09,0,0,1,1.79.1,5.51,5.51,0,0,1-.47-3.6,3.32,3.32,0,0,1,2.81-2.24,10.55,10.55,0,0,1,7.64,1.56c-2.5-4.43-3.29-7.48-2.33-9.06.65-1.06,1.89-1.44,3.68-1.14a14.58,14.58,0,0,1,3,.83,4.45,4.45,0,0,1,0-.82,3.59,3.59,0,0,1,2.12-2.8c3.72-1.87,7.74,1.15,10.66,4.36-1.07-4.08-1.06-6.78.05-8.05a2.71,2.71,0,0,1,2.92-.71c2.15.54,4.13,2.3,5.89,5.23,0-2.15.36-3.67,1.16-4.51a2.94,2.94,0,0,1,3-.72c2.15.54,3.82,2.57,4.94,6a6.83,6.83,0,0,1,.79-1.29,5,5,0,0,1,4.12-1.88,4.46,4.46,0,0,1,3.77,1.8,6.28,6.28,0,0,1,1,2.05c1-2.36,2-3.75,3.18-4.15a2.57,2.57,0,0,1,2.74.74c1.52,1.43,2.16,3.69,1.9,6.72a4.37,4.37,0,0,1,1.1-.59,4.28,4.28,0,0,1,4.21.83,5.23,5.23,0,0,1,2,2.73c1.74-1.39,3.22-2,4.41-1.7,1.4.32,2.28,1.64,2.61,3.93a12.19,12.19,0,0,1-.31,5.27,6.81,6.81,0,0,1,2.81,1.29,3.46,3.46,0,0,1,1.64,3.1,5,5,0,0,1,4.22,1.31,3.05,3.05,0,0,1,.92,2.83,6.33,6.33,0,0,1-2,3.08,4.8,4.8,0,0,1,3.24.17,2,2,0,0,1,1,1.8c0,1.43-1.07,2.8-3.17,4.07,2.68-.05,4.65.4,5.88,1.31a3.83,3.83,0,0,1,1.61,3.27A4.21,4.21,0,0,1,220.9,266a4.29,4.29,0,0,1,.6.46,2.61,2.61,0,0,1,.91,1.95,2.8,2.8,0,0,1-1,2.12,4.26,4.26,0,0,1-.95.64,5.4,5.4,0,0,1,.89.7,4.12,4.12,0,0,1,1,3.92,4.83,4.83,0,0,1-2.46,3.39,6.84,6.84,0,0,1-1.65.65,8.53,8.53,0,0,1,4,3.21,3.24,3.24,0,0,1,0,3.08,4.3,4.3,0,0,1-3,2.37,7.77,7.77,0,0,1-3.49-.13c3.07,2.85,4.27,5,3.57,6.4s-2.32,1.73-5.06,1.44a6.63,6.63,0,0,1,1.31,1.92,5.65,5.65,0,0,1-.6,5.34,4.91,4.91,0,0,1-3.21,2.58,12.26,12.26,0,0,1-1.05,4.51l-.39.89-.89-.38a33.25,33.25,0,0,1-3.71-1.92c.24,1.15.49,2.41.73,3.73,0,.21.07,4.2-2.25,4.83-.79.22-2.07.2-4.29-2.2a7.15,7.15,0,0,1-.81,5.28,2.53,2.53,0,0,1-2.4,1.31c-1.3-.11-2.77-1.33-4.38-3.64a18,18,0,0,1-.28,6.35c-.52,2.08-1.75,2.25-2.43,2.17-1.73-.21-3.77-2.9-5.29-5.68.14,1.93.31,4.25.51,7l.16,2.31-1.58-.9a23.46,23.46,0,0,1-6.3-5.54,14.54,14.54,0,0,1-1.83,5.73A3,3,0,0,1,172.94,331.37Zm-4.4-6.74.18,1c.54,2.94,1.77,4.67,3.64,5.14a2.38,2.38,0,0,0,2.61-1.15,14.49,14.49,0,0,0,1.83-6.11l.08-.63.37.51a23.22,23.22,0,0,0,6.51,5.9l.77.43-.1-1.37c-.24-3.39-.44-6.09-.6-8.24l-.09-1.27.56,1.14c1.88,3.76,4,6.31,5.47,6.49.91.1,1.56-.52,1.88-1.8a18.4,18.4,0,0,0,.13-7.23l-.18-1.17.64,1c1.74,2.71,3.33,4.2,4.6,4.31a2,2,0,0,0,1.95-1.08c.94-1.42,1.13-3.37.55-5.82l-.24-1,.68.81c2.41,2.88,3.66,2.95,4.39,2.75,2-.53,1.89-4.26,1.88-4.3-.27-1.5-.56-2.95-.84-4.25l-.13-.59.5.32a32.45,32.45,0,0,0,4.15,2.2l.43.18.19-.43a11.36,11.36,0,0,0,1-4.52v-.22l.22,0a4.38,4.38,0,0,0,3.07-2.37,5.2,5.2,0,0,0,.57-4.89,6.55,6.55,0,0,0-1.74-2.28l-.63-.55.83.12c3,.43,4.73.07,5.31-1.07s-.84-3.52-4.24-6.51l-.89-.79,1.13.36a8.16,8.16,0,0,0,4.24.4,3.84,3.84,0,0,0,2.64-2.1,2.78,2.78,0,0,0,0-2.63c-.6-1.16-2.1-2.27-4.45-3.3l-.76-.33.81-.14a7,7,0,0,0,2.23-.76,4.34,4.34,0,0,0,2.22-3,3.67,3.67,0,0,0-.9-3.48,4.69,4.69,0,0,0-1.18-.84l-.47-.25.48-.21a4.43,4.43,0,0,0,1.26-.76,2.34,2.34,0,0,0,.82-1.75,2.17,2.17,0,0,0-.74-1.59,4.23,4.23,0,0,0-.84-.56l-.36-.19.34-.24.12-.09a3.74,3.74,0,0,0,1.48-3.09,3.39,3.39,0,0,0-1.41-2.87c-1.28-1-3.5-1.35-6.59-1.18l-1.15.07,1-.54c2.53-1.32,3.81-2.71,3.81-4.13a1.51,1.51,0,0,0-.74-1.37c-.68-.4-2-.38-3.78.09l-1,.26.81-.69a6.93,6.93,0,0,0,2.51-3.43,2.59,2.59,0,0,0-.78-2.39,4.67,4.67,0,0,0-4.13-1.12l-.34,0,.08-.46a2.91,2.91,0,0,0-1.42-2.82,6.4,6.4,0,0,0-2.87-1.25l-.3,0,.1-.29a11.43,11.43,0,0,0,.37-5.31c-.29-2.06-1-3.24-2.22-3.51s-2.54.38-4.3,1.85l-.33.27-.07-.42a4.61,4.61,0,0,0-1.9-2.82,3.84,3.84,0,0,0-3.74-.77,4.43,4.43,0,0,0-1.41.89l-.5.45.08-.67c.39-3.16-.18-5.48-1.69-6.9a2.1,2.1,0,0,0-2.22-.63c-1.12.39-2.19,1.94-3.18,4.62l-.32.85-.16-.89a6.24,6.24,0,0,0-1-2.65,4,4,0,0,0-3.37-1.6A4.53,4.53,0,0,0,176,225a6.28,6.28,0,0,0-1,1.8l-.26.73-.22-.74c-1.07-3.69-2.69-5.83-4.79-6.35a2.49,2.49,0,0,0-2.55.57c-.83.87-1.15,2.61-1,5.17l.08,1.14-.55-1c-1.82-3.34-3.87-5.32-6.09-5.87a2.24,2.24,0,0,0-2.42.55c-1.07,1.22-1,4.2.35,8.63l.33,1.12-.76-.89c-2.85-3.34-7-6.93-10.79-5.06a3.12,3.12,0,0,0-1.84,2.43,4.19,4.19,0,0,0,0,1.11l.07.45-.42-.18a14.19,14.19,0,0,0-3.31-1c-1.57-.27-2.64.05-3.17.91-.91,1.5.08,4.76,2.85,9.44l.58,1-.94-.65a10.5,10.5,0,0,0-8.13-2,2.85,2.85,0,0,0-2.43,1.9,5.36,5.36,0,0,0,.62,3.64l.19.42-.45-.06a15,15,0,0,0-2.16-.15c-1.87,0-3.07.58-3.57,1.72-.72,1.62.22,4.51,2.72,8.36l.28.42-.51,0a5.18,5.18,0,0,0-3.52,1.16,4,4,0,0,0-1.8,3.4,4.48,4.48,0,0,0,.19,1l.08.28-.29,0c-1.13.17-2,1.06-2.65,2.63a5.76,5.76,0,0,0,.12,4.94c1.86,3.64,7.36,5.36,8.6,5.71l.23-.92c-1.19-.33-6.32-1.94-8-5.22a4.76,4.76,0,0,1-.09-4.16q.78-2,2-2.07a1.3,1.3,0,0,1,.34,0h.13l.07.11c1.88,3.36,6.61,6.36,6.81,6.48l1.73,1.08-1.08-1.72c-.36-.58-3.62-5.68-6.79-6.73l-.1,0,0-.11a4,4,0,0,1-.36-1.42,3,3,0,0,1,1.43-2.61,4,4,0,0,1,3.55-.86,4.49,4.49,0,0,1,.77.29l.1.08a71.14,71.14,0,0,0,5,6.19l1.86,2L134,259.59c-.09-.19-2-4.67-5.14-6.43l-.08-.07c-2.15-3-4.53-7.07-3.69-9,.33-.77,1.25-1.16,2.71-1.16a13.65,13.65,0,0,1,3.11.34l.1,0,.06.1a47.82,47.82,0,0,0,6.48,8.05l.8.8v-1.14c0-.06-.1-6.69-6.62-8.59l-.1,0,0-.09c-1-1.76-1.35-3.1-1.08-4,.07-.24.29-1,1.72-1.24,5.49-1.1,10.17,4,11.92,6.25.16.22.31.41.42.57l.78-.55c-.12-.16-.3-.41-.55-.73-3-4.1-7.61-11.59-6.32-13.71.31-.51,1.06-.67,2.22-.47a13.2,13.2,0,0,1,4.31,1.52l.07,0,0,.08c1.73,3.76,6.35,7.87,6.87,8.33l1.31,1.14-.55-1.64a17.22,17.22,0,0,0-6.88-8.56l-.07,0,0-.08a4.23,4.23,0,0,1-.35-2,2.19,2.19,0,0,1,1.33-1.71c4.32-2.15,10.17,5.07,12.23,8.28l.88-.44c-1.52-3.85-3.33-10.29-2-11.86.12-.13.46-.52,1.49-.26,4.41,1.1,7.08,8.53,8,11.67.08.3.15.55.21.73l.91-.25c-.05-.2-.14-.51-.26-.91-.25-.92-2.31-9-.45-10.93a1.59,1.59,0,0,1,1.64-.31c2.9.72,4.24,5.29,4.85,9a27.42,27.42,0,0,0,.57,6.49l.93,4.18v-4.29a44.12,44.12,0,0,0-.55-6.41,8.25,8.25,0,0,1,1.4-4.73,3.6,3.6,0,0,1,3-1.35,3,3,0,0,1,2.61,1.22c.94,1.25,1.26,3.46,1,6.57-.6,2.51-1,4.79-1.14,5.85l.95.21a35.82,35.82,0,0,0,1.11-5.75c.71-2.93,2.16-7.88,3.88-8.48.15-.05.6-.21,1.28.43,2.09,2,1.61,6,.84,9l0,.06a26.45,26.45,0,0,0-2.29,6.21l-.83,3.73,1.71-3.41a36.8,36.8,0,0,0,2.32-6.23l0-.06a5.86,5.86,0,0,1,2.74-2.82,2.86,2.86,0,0,1,2.84.63,3.38,3.38,0,0,1,1.59,2.86,2.89,2.89,0,0,1,0,.5v.08l-.06.06a53.71,53.71,0,0,0-5.91,7.38l-1.42,2.14,2.09-1.49c.21-.15,5.18-3.76,6.14-7.51v-.07l.05,0c2-2,3.54-2.85,4.53-2.62.75.17,1.26,1.09,1.49,2.72a10.16,10.16,0,0,1-.51,5.34l-.05.13-.15,0-.37.05c-4.15.71-7.35,5.45-7.49,5.65l-.58.88,1-.15c.06,0,5.67-.89,8.08-5.39l.08-.14h.16a5.17,5.17,0,0,1,2.85,1.11c1.21.91,1.1,1.68,1.06,1.93a2.36,2.36,0,0,1-.29.8l-.05.08-.09,0c-5,1.49-10.5,6.31-10.73,6.51l-1.89,1.65,2.36-.85c.85-.31,8.42-3.13,10.89-6.48l.05-.07.09,0c1.91-.49,3.37-.25,4.31.7a1.58,1.58,0,0,1,.52,1.53c-.31,1.61-2.6,3.64-6.81,6-2.83,1.23-5.38,2.58-6.35,3.11l.41.87a65.61,65.61,0,0,0,6.32-3.11c3.16-1.37,7.15-2.85,8.38-2.12a.56.56,0,0,1,.28.56c0,2.41-5.62,4.46-9,5.47-2.37.49-4.24,1-4.88,1.22l.24.93c.92-.19,2.84-.61,5-1.26,4.18-.85,9.61-1.5,11.88.18a2.43,2.43,0,0,1,1,2.11,2.81,2.81,0,0,1-1.12,2.35,4.54,4.54,0,0,1-1.07.61l-.08,0-.08,0c-4.86-1.32-13.53-.65-14.5-.56l-2.83.23L204,266c.39.1,9.6,2.37,14.64.66l.08,0,.07,0a4.47,4.47,0,0,1,1.7.88,1.2,1.2,0,0,1,.44.89,1.38,1.38,0,0,1-.51,1.05,6,6,0,0,1-2.83,1.15h-.09c-4.34-.9-10.34.17-10.59.21l-3.28.6,3.32.33a43.27,43.27,0,0,0,10.55-.17h.1a5.59,5.59,0,0,1,2.69,1.3,2.75,2.75,0,0,1,.65,2.63,3.39,3.39,0,0,1-1.76,2.41,9.61,9.61,0,0,1-5.21.81,70,70,0,0,0-9.79-2.15l-4.48-.64L204,277.5a41.39,41.39,0,0,0,9.67,2.15c4.14,1.27,6.6,2.63,7.35,4.07a1.85,1.85,0,0,1,0,1.77,2.88,2.88,0,0,1-2,1.6c-3,.7-7.89-2.14-9.87-3.4-.64-.45-1.19-.83-1.64-1.13l-.55.78c.28.2.84.59,1.59,1.08,4,2.8,10.45,8,9.6,9.7s-6.81.09-8.63-.43a24.91,24.91,0,0,0-3.59-1.2l-.27.93c.89.33,2.19.78,3.66,1.21,2.69,1.16,4.37,2.53,5,4.07a4.24,4.24,0,0,1-.51,4,3.47,3.47,0,0,1-2.32,1.91l-.24,0-.05-.24a7.27,7.27,0,0,0-.67-2c-2.08-4.19-7.49-5.61-7.72-5.67l-1.05-.26.52.95c.41.72,4.07,7.13,7.92,8.06l.19.05v.19a9.61,9.61,0,0,1-.65,3.55l-.09.25-.25-.11a29.48,29.48,0,0,1-4.6-2.7l-.07-.05,0-.09c-1-4.1-2-6.22-2.83-6.28-.46,0-.83.34-1.07,1.07-.6,1.8.41,3.74,3,5.78l.07.06,0,.08c.43,1.8.87,3.82,1.21,5.7,0,.81-.21,3.05-1.19,3.31-.61.16-2.51-.26-7-7.55-.4-.71-.73-1.25-.91-1.53l-.81.5.84,1.41c1.56,2.81,3.87,7.94,1.93,10.85-.47.71-.93.68-1.07.66-2-.16-5.06-5.52-6.64-9l-.88.37c.46,1.28,2.56,7.5,1.33,12.44-.1.41-.35,1.09-.82,1.09h0c-1.92-.23-5.38-6.49-6.47-10.15-.34-3.44-.54-3.44-.87-3.42s-.49.33-.49,1.08a8.75,8.75,0,0,0,.37,2.25c.35,3.87.83,10.29,1,12.17l0,.53-.43-.31a20.17,20.17,0,0,1-6-6.41l0-.06v-.07c.28-4.14-.06-7.85-.54-8.58a.62.62,0,0,0-.65-.31c-.4.08-.67.45-1,2.15a11.2,11.2,0,0,0,1.13,7l0,.06v.07c-.19,2.61-.68,6.06-1.92,7.68a1.38,1.38,0,0,1-1.54.68c-3-.74-3.39-5.55-3.22-9.46.39-2.42.59-4.62.67-5.65l-.95-.13a43.56,43.56,0,0,0-.64,5.49c-.49,3.09-1.55,8.32-3.13,8.9-.33.13-.71,0-1.15-.47-1.65-1.64-2.4-4.38-2.22-8.13.51-2.43.78-4.63.89-5.66l-1-.18a29.23,29.23,0,0,0-.87,5.57c-.68,3.11-2.14,8.27-4.38,8.27a.94.94,0,0,1-.8-.41c-1.65-2.16.25-11,1.19-14.6l-.91-.28c-1.25,3.66-4.92,12.41-8.12,12.41a.83.83,0,0,1-.72-.37c-1.5-2.14,1.38-11.23,2-13,.28-.71.46-1.28.57-1.61l-.91-.3c-.11.31-.29.81-.5,1.45-1.17,3-3.7,8.1-7.62,8.1a1.12,1.12,0,0,1-1.1-.52c-1.29-2.35,3.55-11,5.69-14.39l-.79-.52c-3.54,5.28-9.2,12.55-11,12.55l-.12,0c-.68-.37-.81-3.28.1-6.88,1-3.85,3-7.73,5.52-8v-.95c-2.49.17-4.18,2.78-5.17,5a22.85,22.85,0,0,0-1.94,8.52,6.51,6.51,0,0,0,.31,2.2c.34.89.89,1.08,1.29,1.08.81,0,2.49-.87,5.92-5l1.06-1.29-.64,1.54c-1.33,3.18-1.7,5.47-1.07,6.62a2,2,0,0,0,1.93,1c2,0,3.79-1.05,5.44-3.12l.68-.85-.24,1.06c-.91,4-1,6.75-.17,7.9a1.77,1.77,0,0,0,1.49.77c1.89,0,4-2.19,6.17-6.33l.68-1.33-.21,1.48c-.62,4.22-.46,7.08.45,8.28a1.9,1.9,0,0,0,1.55.78c1.61,0,3-1.61,4.16-4.77l.3-.85.18.88a8.67,8.67,0,0,0,2.23,4.6,2,2,0,0,0,2.15.68c.95-.35,1.85-1.83,2.59-4.29Zm35-18.85-.73-.83c-1-1.15-1.38-2.22-1.1-3.18l.16-.58.29.53a15.8,15.8,0,0,1,1.08,3Zm6.78-1.18-.46-.2c-2.24-.92-4.5-3.95-5.65-5.67l-.47-.71.78.35a10.36,10.36,0,0,1,5.2,4.49,6.29,6.29,0,0,1,.47,1.25Zm-5.15-5.37a16.24,16.24,0,0,0,4.37,4.46,6.65,6.65,0,0,0-.27-.61A9.28,9.28,0,0,0,205.16,299.23Zm-67.78-49.3-.76-.83a50.88,50.88,0,0,1-3.67-4.56l-.61-.87.93.5a7.88,7.88,0,0,1,3.78,4.68Zm-3.19-4.55c.62.83,1.26,1.6,1.82,2.27A7.23,7.23,0,0,0,134.19,245.38Zm63.83.76.68-.75a11.66,11.66,0,0,1,4.69-3.36l.73-.23-.45.62a10,10,0,0,1-4.7,3.37Zm4.62-3.27a11.1,11.1,0,0,0-2.71,2A9.48,9.48,0,0,0,202.64,242.87Z" transform="translate(-48.13 -68.58)"/><path class="cls-1" d="M157.69,288.08l-1.84-12.9.49-.22c.15-.07,15.61-7.16,18.35-14l.31-.79.73.44c.15.09,14.91,9.18,6,24l-.22.37-.44,0c-10.16-.67-21.59-.47-22.35,1Zm-.27-12,1.2,8.38c4.16-1.85,17.16-1.23,22.1-.91,6.79-11.8-2.39-19.36-5.06-21.23C172.31,268.73,160.08,274.78,157.42,276Z" transform="translate(-48.13 -68.58)"/><path class="cls-1" d="M157.55,288.91l-2-13.88.66-.3c.16-.07,15.53-7.14,18.22-13.88l.43-1.05,1,.58a22.24,22.24,0,0,1,6.49,6.57c2.4,3.82,4.28,10-.39,17.8l-.31.51-.59,0c-11.16-.74-21.49-.32-22.11.91Zm-1.43-13.58,1.7,11.92.68-1.34c.94-1.9,14.35-1.73,22.58-1.19l.29,0,.15-.24c8.78-14.63-5.77-23.6-5.92-23.69l-.48-.28-.2.51c-2.77,6.92-18.32,14.08-18.48,14.15Zm2.3,9.46-1.27-8.89.17-.08c2.44-1.16,14.79-7.26,18.12-13.66l.13-.25.23.16a19.62,19.62,0,0,1,6.16,7c2.26,4.57,1.91,9.47-1,14.57l-.08.14h-.16c-4.09-.26-17.77-1-22,.89Zm-.72-8.6,1.12,7.88c4.43-1.7,16.51-1.15,21.76-.82,6.32-11.15-1.79-18.41-4.84-20.61C172.24,269,160.48,274.86,157.7,276.19Z" transform="translate(-48.13 -68.58)"/></svg>