<svg id="Layer_1" data-name="Layer 1" xmlns="http://www.w3.org/2000/svg" viewBox="0 0 128.32 291.98"><defs><style>.cls-1{fill:none;stroke:#fff;stroke-linecap:round;stroke-linejoin:round;stroke-width:5px;}</style></defs><title>beer</title><path class="cls-1" d="M142.22,87.39s59-18.63,114.08,0c0,0,12.82,66,0,104.65,0,0-17.94,106.08-6.41,130.45,0,0,6.41,15.77,1.29,20.07s-61.53,14.34-101.27,0c0,0-1.92-6.45,3.21-19.35,0,0,6.41-15.77,2.56-41.57s-6.41-78.85-12.82-96C142.86,185.59,133.89,156.92,142.22,87.39Z" transform="translate(-136.18 -60.52)"/><path class="cls-1" d="M250.54,323.21s-41.57,18.15-97.42,2.87" transform="translate(-136.18 -60.52)"/><path class="cls-1" d="M260.43,117.29s-48.73-13.83-121,0" transform="translate(-136.18 -60.52)"/><path class="cls-1" d="M153.12,126.82s-3.85,28.67,0,43,7.69,35.84,7.69,35.84" transform="translate(-136.18 -60.52)"/><path class="cls-1" d="M142.86,88.11s-.64-11.25,8.34-13.86,7.05,2.39,7.05,2.39-5.13-4.3,1.92-8.91c6.64-4.34,7.69,3.91,7.69,3.91s5.13-10.43,12.82-5.21,3.2,7.35,3.2,7.35c.74-1.36,7.16-8.6,12.18-6,7.69,3.91,5.13,3.91,5.13,3.91s0-11.73,11.53-7.82c0,0,5.13,3.91,3.85,9.13,0,0,2.56-7.82,10.25-3.91,0,0,5.13,1.3,3.85,5.21,0,0,7.69-3.91,11.53,0,0,0,2.57,2.61,1.29,3.91s3.84-3.91,7.69,1.31,2.58,6.77,2.58,6.77" transform="translate(-136.18 -60.52)"/></svg>