<svg id="Layer_1" data-name="Layer 1" xmlns="http://www.w3.org/2000/svg" viewBox="0 0 501.63 501.63"><defs><style>.cls-1{fill:#7655ff;}.cls-2{fill:#fff;}.cls-3{fill:#0c0c0c;}.cls-4,.cls-5,.cls-6{fill:none;}.cls-5{stroke:#fff;}.cls-5,.cls-6{stroke-miterlimit:10;}.cls-6{stroke:#000;}</style></defs><title>catenthecocktail</title><circle class="cls-1" cx="250.82" cy="250.82" r="250.82"/><path d="M118.1,262.93l.73-4.86.3.05a12.38,12.38,0,0,1,5.71,2.54,10.42,10.42,0,0,1,3.73,5.16,15.93,15.93,0,0,1-8,18.49q-7.25,3.92-20.28,2t-18.76-7.8a15.26,15.26,0,0,1-4.67-13.65,14.67,14.67,0,0,1,2.42-6.39,10.37,10.37,0,0,1,5.15-3.83,12.45,12.45,0,0,1,6.11-.78l.3.05-.73,4.85-.3,0a7.08,7.08,0,0,0-3.61.42,6.07,6.07,0,0,0-2.91,2.28,9.45,9.45,0,0,0-1.47,4q-.93,6.19,4.57,10.12t14.72,5.31q9.32,1.4,15.7-.75t7.31-8.29q.63-4.23-1.24-6.33A7.33,7.33,0,0,0,118.4,263Z" transform="translate(-49.37 -49.26)"/><path d="M108.28,287.1a54.68,54.68,0,0,1-8-.65c-8.62-1.29-15-3.94-18.86-7.85a15.49,15.49,0,0,1-4.72-13.8,15,15,0,0,1,2.45-6.48,10.65,10.65,0,0,1,5.24-3.89,12.64,12.64,0,0,1,6.19-.79l.49.08-.79,5.21-.48-.07a6.91,6.91,0,0,0-3.51.41,5.9,5.9,0,0,0-2.83,2.21A9.31,9.31,0,0,0,82,265.42c-.6,4,.91,7.39,4.5,9.95s8.55,4.37,14.63,5.28,11.41.67,15.62-.74,6.58-4.14,7.19-8.15c.41-2.75,0-4.83-1.2-6.18a7.16,7.16,0,0,0-4.35-2.43l-.49-.07.78-5.22.49.08a12.48,12.48,0,0,1,5.79,2.58,10.58,10.58,0,0,1,3.79,5.25,16.1,16.1,0,0,1-8.09,18.7C117.41,286.22,113.26,287.1,108.28,287.1ZM89,253.9a13.38,13.38,0,0,0-4.55.87,10.3,10.3,0,0,0-5.07,3.76A14.65,14.65,0,0,0,77,264.85a15.15,15.15,0,0,0,4.62,13.49c3.84,3.86,10.12,6.47,18.66,7.75s15.39.64,20.17-1.94a15.19,15.19,0,0,0,8.31-11.49,15,15,0,0,0-.4-6.78,10.18,10.18,0,0,0-3.66-5.07,12.26,12.26,0,0,0-5.63-2.51l-.12,0-.68,4.49.13,0a7.58,7.58,0,0,1,4.58,2.55c1.27,1.43,1.71,3.61,1.28,6.47-.63,4.16-3.13,7-7.43,8.44s-9.58,1.69-15.79.76S90,278.29,86.28,275.67s-5.27-6.12-4.65-10.3a9.59,9.59,0,0,1,1.5-4.09,6.27,6.27,0,0,1,3-2.35,7.28,7.28,0,0,1,3.69-.43l.13,0,.67-4.5-.12,0A9.94,9.94,0,0,0,89,253.9Z" transform="translate(-49.37 -49.26)"/><path d="M130.59,255.65l-1.67,4.66L87.83,227.76l1.81-5.06,52,2.24-1.94,5.41-14.32-.64-6.09,17ZM115.15,243.5l5-14L96,228.44Z" transform="translate(-49.37 -49.26)"/><path d="M129,260.61,87.61,227.82l1.91-5.31h.13l52.22,2.24-2.08,5.78-14.31-.64-6,16.72,11.33,9ZM88,227.7,128.83,260l1.54-4.3-11.32-9,6.17-17.22,14.32.64,1.82-5-51.59-2.22Zm27.2,16.1-19.8-15.56,25,1.1ZM96.56,228.65l18.51,14.55,4.85-13.51Z" transform="translate(-49.37 -49.26)"/><path d="M148.13,214.84l-38.35-22.92-7.14,12-4.29-2.56,16.87-28.23,4.29,2.56-7,11.74,38.35,22.92Z" transform="translate(-49.37 -49.26)"/><path d="M148.19,215.09l-38.35-22.92-7.14,12-4.6-2.75,17.06-28.54,4.6,2.75-7,11.73,38.35,22.92Zm-38.47-23.42,38.35,22.92,2.52-4.23-38.35-22.92,7-11.73-4-2.38L98.6,201.25l4,2.37Z" transform="translate(-49.37 -49.26)"/><path d="M159,197.63l-37.67-32.36,15-17.53,4.14,3.55L129,164.78,140.84,175,151,163.19l3.79,3.25-10.12,11.79L158.37,190l12.52-14.57L175,179Z" transform="translate(-49.37 -49.26)"/><path d="M159.05,197.89l-38-32.6,15.29-17.81,4.42,3.79-11.58,13.49,11.59,10,10.12-11.79,4.06,3.49-10.12,11.79,13.47,11.56,12.52-14.57,4.41,3.79Zm-37.44-32.64L159,197.37,174.77,179l-3.86-3.32-12.52,14.58-14-12,10.12-11.79-3.51-3-10.12,11.78L128.71,164.8l11.58-13.49L136.43,148Z" transform="translate(-49.37 -49.26)"/><path d="M199.49,154.19a18.1,18.1,0,0,1-1.8,6.49,13,13,0,0,1-4,4.5,12,12,0,0,1-6.83,2.48,13.74,13.74,0,0,1-7-1.82,17.4,17.4,0,0,1-5.82-5.15,18.19,18.19,0,0,1-3.43-9.4,21.44,21.44,0,0,1,1.49-10c-.38-.18-.66-.32-.82-.41a46.1,46.1,0,0,1-4.7-2.54,21.56,21.56,0,0,1-2.11-1.65,11.53,11.53,0,0,1-1.55-1.71,10.9,10.9,0,0,1-1.92-4.81,9.22,9.22,0,0,1,.54-5.09,9.32,9.32,0,0,1,3.24-4,8,8,0,0,1,6.55-1.6,8.54,8.54,0,0,1,5.35,3.45,14.51,14.51,0,0,1,2.66,7.52,20.06,20.06,0,0,1-1,8.35,152.35,152.35,0,0,0,16.88,7.91,19.64,19.64,0,0,0-1.49-5.47,40.83,40.83,0,0,0-4.42-7.22l-1.06-1.46,3.94-2.85.45.62q6.62,9.12,7.12,18.11a105.35,105.35,0,0,0,10.26,3l-5.75,4.18c-1-.26-2-.57-3.09-.94ZM174,136.45a13.21,13.21,0,0,0,.81-6,9.27,9.27,0,0,0-1.43-4.34,5,5,0,0,0-1.68-1.42,3.72,3.72,0,0,0-2.32-.42,4.57,4.57,0,0,0-2.06.77,3.4,3.4,0,0,0-1.53,3.18,6.27,6.27,0,0,0,1.14,3.34,9,9,0,0,0,1.32,1.42,16.72,16.72,0,0,0,1.66,1.31,24.19,24.19,0,0,0,3.17,1.71Zm2.35,7.14a14,14,0,0,0-.9,7.3A14.45,14.45,0,0,0,178,157.5a12,12,0,0,0,4,3.62,8.7,8.7,0,0,0,4.93,1.1,8,8,0,0,0,4.23-1.38,9.53,9.53,0,0,0,2.26-2.53,15.26,15.26,0,0,0,1.69-5.86q-3-1.12-8.5-3.6T176.33,143.59Z" transform="translate(-49.37 -49.26)"/><path d="M186.57,167.84a13.89,13.89,0,0,1-6.78-1.84,17.68,17.68,0,0,1-5.89-5.2,18.45,18.45,0,0,1-3.46-9.5,21.75,21.75,0,0,1,1.44-9.91l-.68-.34a47.23,47.23,0,0,1-4.71-2.55,19.51,19.51,0,0,1-2.13-1.67,11.42,11.42,0,0,1-1.58-1.73,11.26,11.26,0,0,1-1.95-4.89,9.16,9.16,0,0,1,3.85-9.24,8.24,8.24,0,0,1,6.7-1.63,8.77,8.77,0,0,1,5.46,3.53,14.76,14.76,0,0,1,2.69,7.61,20.35,20.35,0,0,1-1,8.27A154.24,154.24,0,0,0,195,146.47a19.46,19.46,0,0,0-1.44-5.12,40.69,40.69,0,0,0-4.4-7.18L188,132.56l4.24-3.07.56.77c4.38,6.05,6.79,12.13,7.15,18.09,2.37.88,5.77,1.88,10.13,3l.37.09-6.13,4.46-.09,0c-1-.26-2-.58-3.1-.95l-1.45-.5a18.2,18.2,0,0,1-1.8,6.33,13.21,13.21,0,0,1-4,4.57,12.32,12.32,0,0,1-6.94,2.51Zm-16.79-48.31a8.19,8.19,0,0,0-4.88,1.74,8.79,8.79,0,0,0-3.71,8.89,10.83,10.83,0,0,0,1.89,4.72,10.69,10.69,0,0,0,1.52,1.68,19,19,0,0,0,2.1,1.64,45.69,45.69,0,0,0,4.67,2.52l.82.42.15.08-.06.15a21.46,21.46,0,0,0-1.48,9.9,18.26,18.26,0,0,0,3.39,9.32,17.37,17.37,0,0,0,5.77,5.09,13.53,13.53,0,0,0,6.92,1.79,11.75,11.75,0,0,0,6.73-2.44,12.81,12.81,0,0,0,3.92-4.44,18.06,18.06,0,0,0,1.78-6.42l0-.23,1.88.65c1,.35,2,.66,3,.91l5.37-3.9c-4.25-1.09-7.58-2.09-9.9-2.95l-.11,0v-.12c-.33-5.93-2.72-12-7.09-18l-.34-.48-3.65,2.64,1,1.31a41,41,0,0,1,4.45,7.26,20.09,20.09,0,0,1,1.5,5.52l0,.3-.28-.11a154.56,154.56,0,0,1-16.9-7.92l-.13-.08.05-.14a20.18,20.18,0,0,0,1-8.27,14.52,14.52,0,0,0-2.62-7.43,8.44,8.44,0,0,0-5.25-3.39A7.85,7.85,0,0,0,169.78,119.53Zm16.54,42.9a9,9,0,0,1-4.36-1.15,12.42,12.42,0,0,1-4.1-3.67,14.67,14.67,0,0,1-2.61-6.7,14.22,14.22,0,0,1,.91-7.39l.08-.2.18.11c3.21,1.84,6.68,3.61,10.31,5.25s6.48,2.85,8.48,3.6l.14.05,0,.14a15.7,15.7,0,0,1-1.71,5.94A9.6,9.6,0,0,1,191.3,161,8.21,8.21,0,0,1,187,162.4Zm-9.9-18.58a13.82,13.82,0,0,0-.81,7,14.4,14.4,0,0,0,2.54,6.54,12.22,12.22,0,0,0,4,3.56A8.52,8.52,0,0,0,187,162a7.94,7.94,0,0,0,4.13-1.34,9.38,9.38,0,0,0,2.22-2.49,15,15,0,0,0,1.64-5.64c-2-.76-4.82-1.95-8.37-3.56S179.59,145.66,176.42,143.85Zm-2.34-7.14-.19-.09-.92-.48a25.85,25.85,0,0,1-3.19-1.72,18.58,18.58,0,0,1-1.67-1.32,9,9,0,0,1-1.35-1.46,6.49,6.49,0,0,1-1.17-3.43,3.6,3.6,0,0,1,1.61-3.34,4.72,4.72,0,0,1,2.14-.8,4,4,0,0,1,2.43.44,5.19,5.19,0,0,1,1.74,1.47,9.5,9.5,0,0,1,1.46,4.43,13.48,13.48,0,0,1-.82,6.11ZM169.9,124.4a4.49,4.49,0,0,0-2.49.76,3.24,3.24,0,0,0-1.46,3,6.22,6.22,0,0,0,1.1,3.25,9.72,9.72,0,0,0,1.3,1.4,17.84,17.84,0,0,0,1.64,1.29,24.14,24.14,0,0,0,3.15,1.69l.74.39a12.93,12.93,0,0,0,.72-5.75,8.93,8.93,0,0,0-1.39-4.25,4.82,4.82,0,0,0-1.62-1.37A3.48,3.48,0,0,0,169.9,124.4Z" transform="translate(-49.37 -49.26)"/><path d="M230.55,142.16l-16.71-41.44-12.91,5.21-1.87-4.63L229.56,89l1.86,4.63-12.67,5.11,16.7,41.44Z" transform="translate(-49.37 -49.26)"/><path d="M230.45,142.39l-.07-.17L213.74,101l-12.91,5.21-2-5,.17-.07,30.67-12.37,2,5L219,98.84l16.71,41.44Zm-16.51-41.91.07.17,16.64,41.27,4.57-1.84L218.51,98.64l12.68-5.11-1.74-4.29L199.3,101.4l1.73,4.29Z" transform="translate(-49.37 -49.26)"/><path d="M254.54,133.85l-5.23,1-9.59-48.73,5.23-1,4.26,21.66,18.44-3.63-4.27-21.66,5.19-1,9.6,48.73-5.19,1-4.37-22.17-18.43,3.63Z" transform="translate(-49.37 -49.26)"/><path d="M249.17,135.09,239.5,86l5.59-1.1,4.27,21.67L267.44,103l-4.27-21.67,5.55-1.09,9.66,49.09-5.54,1.09-4.37-22.16-18.08,3.55L254.76,134Zm-9.24-48.8,9.52,48.38,4.88-1L250,111.54l18.8-3.7L273.12,130l4.84-.95-9.53-48.38-4.83.95,4.26,21.67L249.07,107l-4.26-21.67Z" transform="translate(-49.37 -49.26)"/><path d="M282.55,129l-.8-49.66,23.1-.37.09,5.45-17.77.29.25,15.65,15.53-.26.08,5-15.53.25.3,18.11,19.21-.31.09,5.46Z" transform="translate(-49.37 -49.26)"/><path d="M282.38,129.2V129l-.81-49.85L305,78.79l.1,5.82-17.78.29.25,15.28,15.53-.25.09,5.36-15.53.25.29,17.75,19.21-.31.09,5.82Zm-.45-49.67.8,49.3,24.18-.39-.08-5.09-19.21.31-.3-18.48,15.53-.25-.08-4.63-15.53.25-.26-16,17.78-.29-.09-5.09Z" transform="translate(-49.37 -49.26)"/><path d="M345.06,124.14l4.81,1-.07.3a12.33,12.33,0,0,1-2.86,5.55,10.36,10.36,0,0,1-5.37,3.43,15,15,0,0,1-6.87,0,15.27,15.27,0,0,1-11.13-9.05q-3.49-7.45-.8-20.36t8.85-18.29a15.26,15.26,0,0,1,13.89-3.88,14.69,14.69,0,0,1,6.25,2.78A10.46,10.46,0,0,1,355.29,91a12.4,12.4,0,0,1,.42,6.14l-.06.3-4.8-1,.06-.31a7.13,7.13,0,0,0-.22-3.62,6,6,0,0,0-2.11-3,9.52,9.52,0,0,0-3.93-1.69q-6.12-1.27-10.36,4t-6.14,14.39q-1.92,9.21-.14,15.71t7.86,7.77q4.19.87,6.39-.87a7.34,7.34,0,0,0,2.74-4.32Z" transform="translate(-49.37 -49.26)"/><path d="M338.28,135a17.79,17.79,0,0,1-3.62-.39,15.51,15.51,0,0,1-11.25-9.15c-2.34-5-2.62-11.88-.82-20.47s4.78-14.72,8.91-18.39a15.48,15.48,0,0,1,14.05-3.93,15,15,0,0,1,6.32,2.81,10.67,10.67,0,0,1,3.59,5.46,12.61,12.61,0,0,1,.43,6.22l-.1.48-5.16-1.07.1-.48a6.89,6.89,0,0,0-.21-3.53,6,6,0,0,0-2-3A9.38,9.38,0,0,0,344.62,88c-4-.84-7.43.48-10.19,3.92s-4.84,8.29-6.1,14.31-1.32,11.35-.15,15.64,3.76,6.8,7.73,7.63c2.72.57,4.82.29,6.24-.84a7.2,7.2,0,0,0,2.67-4.21l.1-.48,5.16,1.08-.1.48a12.68,12.68,0,0,1-2.9,5.63,10.6,10.6,0,0,1-5.46,3.49A13.41,13.41,0,0,1,338.28,135Zm3.85-52.33a15.38,15.38,0,0,0-10.39,4.2c-4.07,3.62-7,9.74-8.8,18.19s-1.51,15.33.8,20.24a15.73,15.73,0,0,0,17.79,9,10.28,10.28,0,0,0,5.27-3.37,12.34,12.34,0,0,0,2.83-5.48l0-.12-4.45-.93,0,.13a7.55,7.55,0,0,1-2.81,4.42c-1.5,1.19-3.7,1.5-6.53.91-4.12-.86-6.81-3.52-8-7.9s-1.14-9.65.14-15.8,3.35-11,6.18-14.47,6.4-4.91,10.54-4a9.6,9.6,0,0,1,4,1.73,6.2,6.2,0,0,1,2.18,3.13,7.36,7.36,0,0,1,.22,3.71l0,.12,4.45.93,0-.12a12.42,12.42,0,0,0-.43-6,10.31,10.31,0,0,0-3.46-5.27A14.6,14.6,0,0,0,345.47,83,16.17,16.17,0,0,0,342.13,82.67Z" transform="translate(-49.37 -49.26)"/><path d="M364,143.89q-7.05-3-8.82-11.2t3.19-19.85q4.95-11.59,12.09-16t14.19-1.4q7,3,8.82,11.21t-3.18,19.79q-5,11.65-12.1,16T364,143.89Zm2-4.59q5.13,2.19,10.31-2t9-13q3.78-8.86,3.2-15.48T382.67,100q-5.1-2.18-10.3,2t-9,13q-3.79,8.91-3.18,15.51T365.92,139.3Z" transform="translate(-49.37 -49.26)"/><path d="M369.68,145.29a14.63,14.63,0,0,1-5.79-1.23h0c-4.74-2-7.74-5.83-8.93-11.33s-.11-12.19,3.2-20,7.39-13.14,12.16-16.08,9.63-3.42,14.36-1.4,7.73,5.83,8.92,11.33.12,12.17-3.18,19.9-7.41,13.2-12.18,16.13A16.19,16.19,0,0,1,369.68,145.29Zm9.2-50.86A15.94,15.94,0,0,0,370.51,97c-4.7,2.9-8.75,8.25-12,15.92s-4.35,14.33-3.18,19.73,4.09,9.11,8.71,11.07h0c4.62,2,9.33,1.51,14-1.38s8.76-8.26,12-16,4.33-14.28,3.16-19.69-4.1-9.1-8.72-11.07A14.23,14.23,0,0,0,378.88,94.43Zm-9.42,45.8a9.19,9.19,0,0,1-3.62-.76h0c-3.45-1.48-5.4-4.48-5.81-8.94s.66-9.66,3.19-15.6,5.56-10.31,9-13.09,7-3.48,10.49-2,5.44,4.5,5.83,9-.69,9.67-3.21,15.57-5.56,10.34-9,13.11A11,11,0,0,1,369.46,140.23Zm-3.47-1.1c3.34,1.43,6.75.78,10.12-1.93s6.41-7.1,8.92-13,3.56-11,3.18-15.39-2.27-7.24-5.61-8.66-6.73-.76-10.12,2-6.43,7.1-8.92,12.94-3.57,11.07-3.17,15.43,2.28,7.22,5.6,8.63Z" transform="translate(-49.37 -49.26)"/><path d="M408.83,155.83l4.06,2.77-.18.25a12.35,12.35,0,0,1-4.78,4,10.39,10.39,0,0,1-6.26,1.11,15,15,0,0,1-6.36-2.63,15.29,15.29,0,0,1-6.8-12.62q-.37-8.24,7.06-19.12t15.2-13.49a15.24,15.24,0,0,1,14.31,1.74,14.72,14.72,0,0,1,4.71,5,10.5,10.5,0,0,1,1.2,6.31,12.37,12.37,0,0,1-2,5.83l-.17.25-4.06-2.77.18-.25a7.22,7.22,0,0,0,1.19-3.43,6.09,6.09,0,0,0-.79-3.62,9.43,9.43,0,0,0-3-3.06q-5.18-3.54-11.11-.3t-11.18,10.94q-5.33,7.77-6.17,14.46c-.56,4.45.86,7.85,4.29,10.19,2.35,1.61,4.43,2.15,6.23,1.64a7.27,7.27,0,0,0,4.19-2.94Z" transform="translate(-49.37 -49.26)"/><path d="M403.08,164.27a10,10,0,0,1-1.44-.1,15.3,15.3,0,0,1-6.43-2.66,15.49,15.49,0,0,1-6.88-12.77c-.25-5.5,2.14-12,7.09-19.22s10.06-11.76,15.29-13.56a15.45,15.45,0,0,1,14.47,1.76,15,15,0,0,1,4.77,5,10.77,10.77,0,0,1,1.22,6.42,12.64,12.64,0,0,1-2,5.91l-.28.4-4.35-3,.28-.41a7,7,0,0,0,1.15-3.33,6,6,0,0,0-.75-3.52,9.34,9.34,0,0,0-2.93-3c-3.37-2.31-7-2.4-10.91-.29s-7.65,5.8-11.12,10.88-5.58,10-6.14,14.38.86,7.73,4.21,10c2.3,1.56,4.34,2.11,6.08,1.61a7.2,7.2,0,0,0,4.09-2.86l.27-.41,4.36,3-.28.4A12.59,12.59,0,0,1,408,163,10.87,10.87,0,0,1,403.08,164.27Zm13.39-49a17.18,17.18,0,0,0-5.64,1c-5.15,1.78-10.23,6.3-15.11,13.43s-7.27,13.57-7,19a15.18,15.18,0,0,0,6.72,12.48,15,15,0,0,0,6.28,2.6,10.21,10.21,0,0,0,6.16-1.09,12.3,12.3,0,0,0,4.71-4l.07-.11-3.75-2.56-.07.1a7.49,7.49,0,0,1-4.29,3c-1.85.53-4,0-6.38-1.66-3.47-2.37-4.94-5.86-4.37-10.37s2.65-9.35,6.2-14.54,7.29-8.82,11.25-11,7.79-2.08,11.29.31a9.5,9.5,0,0,1,3,3.12,6.37,6.37,0,0,1,.81,3.73,7.34,7.34,0,0,1-1.22,3.51l-.07.11,3.75,2.56.07-.11a12.37,12.37,0,0,0,1.93-5.74,10.36,10.36,0,0,0-1.18-6.2A14.65,14.65,0,0,0,425,118,14.85,14.85,0,0,0,416.47,115.3Z" transform="translate(-49.37 -49.26)"/><path d="M412.39,172.85l-3.77-3.76,35.08-35.17,3.77,3.77-16.76,16.8,28.84-4.76,4.28,4.28-28.35,4.57L430.61,191l-4.73-4.73,4.83-31.81Z" transform="translate(-49.37 -49.26)"/><path d="M430.74,191.41l-5.06-5,0-.09L430.45,155l-18.06,18.1-4-4,35.34-35.42,4,4-16.49,16.53,28.37-4.68,4.6,4.59-28.57,4.61Zm-4.67-5.17,4.41,4.4,4.84-32.21.13,0,28-4.51-4-4-28.61,4.72Zm-17.2-17.15,3.52,3.51,34.82-34.91-3.51-3.51Z" transform="translate(-49.37 -49.26)"/><path d="M437.35,201.18l36.79-25.36-7.91-11.46,4.12-2.83L489,188.6l-4.11,2.83-7.76-11.25-36.78,25.36Z" transform="translate(-49.37 -49.26)"/><path d="M440.31,205.79l-3.21-4.66,36.78-25.35L466,164.31l4.41-3,.11.15,18.76,27.23-4.41,3-7.76-11.26Zm-2.7-4.56,2.79,4.05,36.79-25.35.1.15,7.65,11.1,3.81-2.62L470.3,161.78l-3.81,2.63,7.9,11.46Z" transform="translate(-49.37 -49.26)"/><path d="M449.38,219.57l-2-4.54,52.23-4.45,2.15,4.93-39.39,34-2.29-5.28L471,234.87l-7.19-16.54Zm19.56-1.73,5.93,13.62,18.34-15.78Z" transform="translate(-49.37 -49.26)"/><path d="M462.32,249.79l-2.45-5.63,10.87-9.34-7.08-16.29-14.4,1.23-2.13-4.89.25,0,52.37-4.45,2.25,5.17-.11.09Zm-2-5.53,2.14,4.93,39.1-33.73-2-4.69-51.85,4.42,1.82,4.18,14.4-1.23.05.12,7.24,16.66Zm14.48-12.5-6.13-14.08,25.09-2.23ZM469.21,218l5.73,13.16,17.72-15.25Z" transform="translate(-49.37 -49.26)"/><path d="M463.42,256.74,462,251.61l47.82-13.43,1.44,5.13Z" transform="translate(-49.37 -49.26)"/><path d="M463.3,257l-1.54-5.48L509.92,238l1.55,5.49Zm-1.09-5.23,1.34,4.79L511,243.18l-1.35-4.78Z" transform="translate(-49.37 -49.26)"/><path d="M465.06,261.73l49.05-7.83.84,5.26-43.66,7,3.38,21.15-5.39.86Z" transform="translate(-49.37 -49.26)"/><path d="M469.13,288.35l0-.18-4.25-26.59,49.41-7.89.9,5.63-43.66,7,3.37,21.14Zm-3.86-26.47,4.16,26.05,5-.8L471.08,266l43.66-7-.78-4.9Z" transform="translate(-49.37 -49.26)"/><path d="M127.24,452.37V432.43h4.59a8.73,8.73,0,0,1,4.9,1.09,7.08,7.08,0,0,1,2.42,3.32,15.27,15.27,0,0,1,.87,5.49,15.51,15.51,0,0,1-.79,5.23,7.79,7.79,0,0,1-2.38,3.51,7.35,7.35,0,0,1-4.71,1.3Zm2.17-2.19H132a6,6,0,0,0,3.44-.81,4.84,4.84,0,0,0,1.77-2.52,12.91,12.91,0,0,0,.61-4.31,15.52,15.52,0,0,0-.56-4.48,5.2,5.2,0,0,0-1.7-2.74,5.94,5.94,0,0,0-3.61-.88h-2.49Z" transform="translate(-49.37 -49.26)"/><path d="M145.62,452.37h-2.16V432.43h5.13a5,5,0,0,1,2.85.66A4.46,4.46,0,0,1,153,435a6.47,6.47,0,0,1,.56,2.68,6.73,6.73,0,0,1-.38,2.25,6.63,6.63,0,0,1-1.06,1.94,5.68,5.68,0,0,1-2.1,1.55,3.85,3.85,0,0,1,.8.68,7.31,7.31,0,0,1,.65,1c.26.48.48.93.68,1.34l2.64,5.91h-2.47l-2.3-5.25a11.29,11.29,0,0,0-2.17-3.32h-2.18Zm0-10.56h2.11a3.44,3.44,0,0,0,2-.49,3.3,3.3,0,0,0,1.1-1.45,5.1,5.1,0,0,0,.41-2,4.3,4.3,0,0,0-.32-1.68,3.13,3.13,0,0,0-.95-1.24,3.45,3.45,0,0,0-2.1-.49h-2.27Z" transform="translate(-49.37 -49.26)"/><path d="M159.76,452.37h-2.17V432.43h2.17Z" transform="translate(-49.37 -49.26)"/><path d="M165.77,452.37h-2V432.43h2.14l7.58,14.18.68,1.57,0-1.57V432.43h2v19.94H174l-7.59-14.23-.69-1.62,0,1.62Z" transform="translate(-49.37 -49.26)"/><path d="M182.32,452.37h-2.16V432.43h2.16V442l6.93-9.53h2.45l-6.83,9.34,7.9,10.6h-2.72L182.32,442Z" transform="translate(-49.37 -49.26)"/><path d="M195.15,447.89h2.15V448a2.56,2.56,0,0,0,1,2.3,4.56,4.56,0,0,0,2.59.65,3.13,3.13,0,0,0,2.36-1,3.58,3.58,0,0,0,1-2.6,3,3,0,0,0-.83-2.15,9.3,9.3,0,0,0-2.49-1.63l-.87-.43a10.37,10.37,0,0,1-2.63-1.73,5.74,5.74,0,0,1-1.31-1.9,6.15,6.15,0,0,1-.43-2.32,5.63,5.63,0,0,1,1.34-3.82,5.16,5.16,0,0,1,4.16-1.55,4.78,4.78,0,0,1,3.65,1.15,3.88,3.88,0,0,1,1.06,2.71v.12h-2.15v-.12a1.67,1.67,0,0,0-.33-1,1.76,1.76,0,0,0-1-.69,4.32,4.32,0,0,0-1.42-.22,2.83,2.83,0,0,0-2.36,1,3.45,3.45,0,0,0,.59,4.93,19.35,19.35,0,0,0,2.15,1.28l1,.51a7.94,7.94,0,0,1,3.26,2.69,5.94,5.94,0,0,1,.81,3,6.8,6.8,0,0,1-.66,2.92,4.8,4.8,0,0,1-1.84,2.12,5.85,5.85,0,0,1-3.13.73,8,8,0,0,1-3.1-.53,3.74,3.74,0,0,1-1.89-1.75,5.71,5.71,0,0,1-.65-2.68Z" transform="translate(-49.37 -49.26)"/><path d="M210,457.14v-1.53a2.54,2.54,0,0,0,.78-.89,4.52,4.52,0,0,0,.4-1.08,5.49,5.49,0,0,0,.14-1.27H210V449h2.81v2.11a10.55,10.55,0,0,1-.3,2.89,6.32,6.32,0,0,1-.93,1.83A4.45,4.45,0,0,1,210,457.14Z" transform="translate(-49.37 -49.26)"/><path d="M227.49,452.37h-2.2l-3.74-19.94h2.06l2.63,14,.36,2.42h.1l.36-2.42,3-14h2.13l3,14.07.32,2.38h.1l.37-2.38,2.71-14.07h1.89l-3.85,19.94h-2.2l-3.05-14.3-.4-2.45H231l-.36,2.45Z" transform="translate(-49.37 -49.26)"/><path d="M246,452.37h-2.17V432.43H246Z" transform="translate(-49.37 -49.26)"/><path d="M252,452.37h-2V432.43h2.15l7.58,14.18.68,1.57,0-1.57V432.43h2v19.94h-2.13l-7.59-14.23-.69-1.62,0,1.62Z" transform="translate(-49.37 -49.26)"/><path d="M266.43,452.37V432.43h9.38v2.19h-7.22v6.28h6.31v2h-6.31v7.27h7.8v2.19Z" transform="translate(-49.37 -49.26)"/><path d="M285.75,452.37h-2l6.8-19.94h2.18L299,452.37h-2.33l-1.72-5.5h-7.32Zm2.52-7.48h6l-2.9-9.27Z" transform="translate(-49.37 -49.26)"/><path d="M303.75,452.37h-2V432.43h2.14l7.58,14.18.69,1.57,0-1.57V432.43h2v19.94H312l-7.59-14.23-.68-1.62,0,1.62Z" transform="translate(-49.37 -49.26)"/><path d="M318.14,452.37V432.43h4.59a8.67,8.67,0,0,1,4.89,1.09,7.09,7.09,0,0,1,2.43,3.32,15.27,15.27,0,0,1,.87,5.49,15.51,15.51,0,0,1-.79,5.23,7.87,7.87,0,0,1-2.38,3.51,7.35,7.35,0,0,1-4.71,1.3Zm2.17-2.19h2.54a6,6,0,0,0,3.44-.81,4.9,4.9,0,0,0,1.77-2.52,12.91,12.91,0,0,0,.61-4.31,15.87,15.87,0,0,0-.56-4.48,5.15,5.15,0,0,0-1.71-2.74,5.9,5.9,0,0,0-3.6-.88h-2.49Z" transform="translate(-49.37 -49.26)"/><path d="M341.28,452.37h-1.84V432.43h2.13l5.13,14.24,4.74-14.24h2.1v19.94h-1.91V440.49l.06-3.57h-.06l-1.08,3.57-2.94,8.88h-2.16l-3.19-8.92-1-3.22h0l0,3.22Z" transform="translate(-49.37 -49.26)"/><path d="M357.32,432.43h2.16v12.81a10,10,0,0,0,.46,3.77,3.07,3.07,0,0,0,1.41,1.46,4.66,4.66,0,0,0,2.15.49,4.06,4.06,0,0,0,2-.49,3,3,0,0,0,1.31-1.58,15,15,0,0,0,.43-4.56v-11.9h2V445a12.74,12.74,0,0,1-.66,4.9,5.33,5.33,0,0,1-1.94,2.23,5.68,5.68,0,0,1-3.17.82,8,8,0,0,1-3.24-.65,4.38,4.38,0,0,1-2.2-2,10.93,10.93,0,0,1-.72-4.69Z" transform="translate(-49.37 -49.26)"/><path d="M382.89,448.07h2v.13a4.85,4.85,0,0,1-.68,2.41,4.13,4.13,0,0,1-1.84,1.79,6.5,6.5,0,0,1-7.9-2.08q-2-2.64-2-7.93c0-3.5.67-6.13,2-7.91a6.2,6.2,0,0,1,5.2-2.66,6.11,6.11,0,0,1,2.71.57,4.25,4.25,0,0,1,1.84,1.82,4.89,4.89,0,0,1,.68,2.38v.12h-2v-.12a2.9,2.9,0,0,0-.38-1.41,2.52,2.52,0,0,0-1.1-1,3.79,3.79,0,0,0-1.7-.34,4,4,0,0,0-3.78,2.42,15.85,15.85,0,0,0,0,12.34,4,4,0,0,0,3.77,2.4,3,3,0,0,0,2.46-.86,2.9,2.9,0,0,0,.73-1.92Z" transform="translate(-49.37 -49.26)"/><path d="M390.31,452.37h-2.16V432.43h2.16v8.87h7.63v-8.87h2.14v19.94h-2.14V443.3h-7.63Z" transform="translate(-49.37 -49.26)"/><path d="M411,452.37h-1.83V432.43h2.12l5.14,14.24,4.74-14.24h2.1v19.94h-1.91V440.49l.05-3.57h-.05l-1.08,3.57-2.94,8.88H415.2l-3.2-8.92-1-3.22h0l0,3.22Z" transform="translate(-49.37 -49.26)"/><path d="M433.78,453a6,6,0,0,1-5.07-2.75c-1.32-1.83-2-4.44-2-7.83s.65-6,2-7.81a6.07,6.07,0,0,1,10.15,0q2,2.76,2,7.81t-2,7.83A6,6,0,0,1,433.78,453Zm0-2a3.91,3.91,0,0,0,3.54-2.34,15.89,15.89,0,0,0,0-12.45,3.83,3.83,0,0,0-7.07,0,15.78,15.78,0,0,0,0,12.45A3.9,3.9,0,0,0,433.78,451Z" transform="translate(-49.37 -49.26)"/><path d="M446.42,452.37h-2.16V432.43h5.13a5,5,0,0,1,2.84.66,4.4,4.4,0,0,1,1.52,1.89,6.46,6.46,0,0,1,.55,2.68,6.72,6.72,0,0,1-.37,2.25,6.87,6.87,0,0,1-1.06,1.94,5.68,5.68,0,0,1-2.1,1.55,3.85,3.85,0,0,1,.8.68,7.31,7.31,0,0,1,.65,1c.26.48.48.93.68,1.34l2.64,5.91h-2.47l-2.3-5.25a11.49,11.49,0,0,0-2.17-3.32h-2.18Zm0-10.56h2.11a3.46,3.46,0,0,0,2-.49,3.3,3.3,0,0,0,1.1-1.45,5.09,5.09,0,0,0,.4-2,4.3,4.3,0,0,0-.31-1.68,3.22,3.22,0,0,0-.95-1.24,3.45,3.45,0,0,0-2.1-.49h-2.27Z" transform="translate(-49.37 -49.26)"/><path d="M458.39,452.37V432.43h9.38v2.19h-7.21v6.28h6.3v2h-6.3v7.27h7.79v2.19Z" transform="translate(-49.37 -49.26)"/><rect x="76.55" y="338.92" width="342.44" height="32.79"/><path class="cls-2" d="M326.8,261.74s-5.5,12.38-3.67,15.6l.92,7.34s-15.37,79.13-28.67,78.22c0,0-16.3,9.53-13.54-101.49l1.84-26.74,5.73,1.15S303,261.74,326.8,261.74Z" transform="translate(-49.37 -49.26)"/><path class="cls-3" d="M340.8,201a109.53,109.53,0,0,0,1.35,13.65c.62,3.6,1.57,7,1.86,10.67.67,8.53-2.3,17.43-6,25.69,0,0-4.81,12.15-9.86,12.15s-19.5-4.35-30.05-13.07c-10.26-8.47-10.78-14.91-10.78-14.91s0-18.35-3.67-23.4h21.56S321.07,211,340.8,201Z" transform="translate(-49.37 -49.26)"/><path d="M380,270.91l-16.28,67.21s1.14,4.36-1.61,5.74c0,0-7.8,16.06-9.63,17.43,0,0,.45,9.18-1.84,11.47,0,0-.92,5.51-1.38,7.8s3.22,9.18,3.22,9.18H245.6l.69-14.91s-3-3.31-3.48-4.54c-.61-1.47-2.13-11.6,0-13.59,0,0-7.8-10.55-5-14.22l-5.5-10.09S210.74,364,203.85,368.17l4.59,1.38,5.05-.92,3.21,2.3s2.29-1.38,3.67-.46,4.59-1.38,11.47,1.83c0,0,23.86-1.83,33.49,1.38,0,0-14.68,22-5.51,28.44,0,0,1.38,2.3-5,2.75s-77.08-6-77.08-6-37.16-1.38-21.1-26.61c0,0,12.39-24.77,30.74-45.88a330.19,330.19,0,0,0,29.36-39l4.59-5.05s4.13-9.17,5.5-8.71c0,0,.46-9.18,5.51-9.18h2.75a3.3,3.3,0,0,1,1.61-1.15c.69-.26,3.9.21,4.12.92.53,1.65,34.57-11.93,44.51-4.13,0,0-7.57,99.79,10.78,102.08,0,0,12.19,4,27.29-80.52.37-2-.78-5.15-.91-7.34a57.9,57.9,0,0,1,.46-9.63l13.24-9.09S380.48,269.08,380,270.91Z" transform="translate(-49.37 -49.26)"/><path d="M385.07,299.82c0,2.29-16.52,22.93-26.15,22.93,0,0,1.38,18.36,6,15.14,0,0,1.84,1.38,1.38,4.59,0,0,.92,5,2.75,5.51,0,0,.46,9.17,3.67,9.63,0,0,1.84,8.72,4.59,9.18,0,0,.92,4.58,1.83,5.5,0,0,.92,4.59,2.3,6.42,0,0,1.83,6.43,2.75,6.89,0,0-.46,9.17,4.59,10.55,0,0,4.13,10.09,11.47,11,0,0,10.55,6.88,19.27,4.59s17-27.53,11.93-35.33c0,0-2.76-10.09-6.43-14.68a13.46,13.46,0,0,0-6.42-10.55l-6.88-12.39s.46-6-4.59-9.17-6.42-1.84-6.42-1.84a41.72,41.72,0,0,0-7.34-9.63Z" transform="translate(-49.37 -49.26)"/><path d="M385.14,285.79l9.65,13.49,1.45,2.79,2.41,2.32v3.26s10.13,21.85,9.17,22.78-6.76-1.86-6.76-1.86a65.53,65.53,0,0,1-9.94-11.06c-5.52-8.05-10-17.83-10.8-17.3l-5.95-11.31,5-18s3.86.93,4.34,8.84C383.69,279.75,390.45,281.61,385.14,285.79Z" transform="translate(-49.37 -49.26)"/><path d="M383.69,303.3s-13.3,16.05-17.89,16.51c0,0-5.5-11-9.17-11s-17.44-9.17-17.44-9.17l-10.55-11.47s-6.42-11.93-5.05-12.39,8.72,0,11.47,8.26c0,0,4.59,2.75,5.51,4.13l2.29.92s2.3-3.22,4.13-3.22l.92-1.83s-4.13-6-3.67-6.42-1.84,2.29-6,.45l2.3-4.12s1.37-6,2.75-6l8.26-5.05,3.21,1.38L364.88,268l3.21,1.38,2.3,5,5,15.6,5.51,10.55Z" transform="translate(-49.37 -49.26)"/><path d="M350.66,262.92l-6.42-2.29-4.59,2.29a33.72,33.72,0,0,0-7.34,5.05A33.23,33.23,0,0,0,330,272.1c0,.46-3.22,4.13-2.76,5.51s2.3,1.83,2.3,1.83,2.29.92,5.5-3.21c0,0,1.84-2.29,1.84-4.13,0,0,3.43-.47,4.7-1.61,0,0,.8-2.06,1.72-2.52S351.12,262.92,350.66,262.92Z" transform="translate(-49.37 -49.26)"/><path d="M340.72,273.32l-1.3-1.68-6.56-4.19-4.22-.85s-6,5-9.63,0c0,0-1.84-1.38,1.83-2.76s7.8-3.21,7.8-3.21l11.93-1.38,2.9,1.76Z" transform="translate(-49.37 -49.26)"/><path class="cls-4" d="M299.9,360.19" transform="translate(-49.37 -49.26)"/><path class="cls-4" d="M298.35,349.17" transform="translate(-49.37 -49.26)"/><path class="cls-4" d="M291.31,359.71" transform="translate(-49.37 -49.26)"/><path class="cls-4" d="M296.22,347.76" transform="translate(-49.37 -49.26)"/><path d="M208.21,252.79" transform="translate(-49.37 -49.26)"/><path d="M309.14,176.64" transform="translate(-49.37 -49.26)"/><path d="M287.12,234.9s12.39,44.4,2,51.28c0,0-.81-7.7-3.17-8.16s-3.78,15.14.94,15.6c0,0-3.54,5.28-10.14-3,0,0-6.61,17-1.89,20.65,0,0-29.74-2.76-23.61-48.63S256,162.18,288.07,159c0,0,30.92-17.66,55.94,39.23,0,0-1.13,3.33-9.94,7.52-8,3.81-22.51,7.38-48.78,7.16Z" transform="translate(-49.37 -49.26)"/><path class="cls-2" d="M286.35,220.91c-.14-.64-1.32-3.37-3.67-4.13s-5.37-.34-6,1.59c-1.14,3.5-1.45,7.26,2.06,10.53,3.91,3.67,1.64,5.58,7.15,5.77.07,0,2.48,0,2.55,0Z" transform="translate(-49.37 -49.26)"/><path d="M285.93,235h-.05c-3.49-.11-4.06-.91-4.92-2.55a11.26,11.26,0,0,0-2.47-3.31c-3.88-3.62-3.19-7.74-2.15-10.91.72-2.22,3.85-2.67,6.45-1.83s3.8,3.84,3.92,4.4v0L288.87,235h-2.94Zm-5.61-18.26c-1.53,0-2.91.53-3.29,1.71-1,3-1.62,6.81,2,10.16a11.76,11.76,0,0,1,2.61,3.5c.75,1.41,1.09,2.06,4.31,2.17H288L286,221a6.19,6.19,0,0,0-3.42-3.85A7.55,7.55,0,0,0,280.32,216.77Z" transform="translate(-49.37 -49.26)"/><path class="cls-2" d="M300.78,170.33c-.84-1.12-1.66-2.2-2.51-3.25s-1.75-2-2.68-3a25.59,25.59,0,0,0-3-2.58,31.65,31.65,0,0,0-3.46-2.14,10.47,10.47,0,0,1,4.06,1.17,13.92,13.92,0,0,1,3.44,2.52,16.44,16.44,0,0,1,2.58,3.35A13.05,13.05,0,0,1,300.78,170.33Z" transform="translate(-49.37 -49.26)"/><path class="cls-2" d="M341.94,200.57c-.85.65-1.73,1.28-2.64,1.88-.45.3-.91.58-1.39.84a6.89,6.89,0,0,1-1.51.68l-.09,0-.08-.08-4-3.86.53-.32,1.55,4.26.14.37-.37.17c-1.84.85-3.67,1.69-5.57,2.46l-.54.23-.18-.59-1.77-5.9,1.25-.13-.4,6.68,0,.49-.48.14L320,209.68l-.4.11-.29-.28-2.68-2.59,1.23-.52v4.23l-.57.11-3.64.72-.77.15-.07-.77-.67-7.29,1.27,0c-.5,2.91-1.05,5.81-1.58,8.72l-.08.44h-.43l-6.55-.14h-.22l-.1-.16-1.39-2.23.55-.17-.07,2.19v.24h-.22c-2.19-.07-4.37-.13-6.56-.23,2.19-.1,4.37-.17,6.56-.24l-.23.24L303,210l0-1,.58.81L305.1,212l-.31-.17,6.55-.14-.51.43c.45-2.92.87-5.84,1.34-8.76l.75-4.73.52,4.77.79,7.28-.84-.62,3.64-.74-.57.7v-5.37l1.24,1.21,2.67,2.59-.69-.17,6.34-1.73-.51.63.52-6.67.29-3.67.95,3.54,1.61,5.94-.73-.36c.94-.34,1.87-.72,2.81-1.1l2.8-1.14-.24.54-1.33-4.34-.41-1.33.94,1,3.79,4-.17,0a7.16,7.16,0,0,0,1.46-.58c.48-.24,1-.5,1.42-.76C340.13,201.74,341.05,201.17,341.94,200.57Z" transform="translate(-49.37 -49.26)"/><path d="M335.67,331.72c-.54.66-23.23,28.9-24.79,32.29l-1.36,26.19,2.57,5.87s8.71.74,11.93,2.5a2,2,0,0,1,1,2.1h0a2.14,2.14,0,0,1-.86,1.34c-1.6,1.11-6.24,3.33-17.32,2.81-10.77-.5-15.27-2.48-16.89-3.48a1.67,1.67,0,0,1-.8-1.42h0c0-1,.75-1.58,1.62-2,2.54-1.25,8.08-2,11.53-2l2.53-5.58,1.33-26.63L281.93,329.8a1.56,1.56,0,0,1,.89-2.44,101.3,101.3,0,0,1,52.12,1.95A1.52,1.52,0,0,1,335.67,331.72Z" transform="translate(-49.37 -49.26)"/><path class="cls-2" d="M310,406.4c-1,0-2.1,0-3.25-.08-11-.51-15.73-2.54-17.61-3.71a3.17,3.17,0,0,1-1.51-2.69c0-1,.43-2.36,2.45-3.35,2.53-1.24,7.54-2.05,11.22-2.17l2-4.46,2-25.1-23.89-33.45c-1.33-1.56-1.47-2.63-1.11-3.58a3,3,0,0,1,2.14-1.91,102.28,102.28,0,0,1,52.92,2,3,3,0,0,1,1.44,4.78h0c-3.3,4.06-22.37,28-24.47,31.74L311,389.92l2.08,4.75c2.43.24,8.75,1,11.63,2.58a3.43,3.43,0,0,1,1.7,3.72,3.61,3.61,0,0,1-1.47,2.27C323.19,404.48,319,406.4,310,406.4Zm-7.72-9c-3.33,0-8.62.77-10.88,1.87-.23.12-.77.41-.77.67a.16.16,0,0,0,.09.14c1.31.82,5.52,2.77,16.17,3.27s15.05-1.62,16.39-2.55a.62.62,0,0,0,.25-.4.46.46,0,0,0-.2-.5c-2.42-1.31-9-2.12-11.34-2.31l-.89-.08-3.07-7,1.39-26.83.12-.26c1.68-3.64,24.69-32.24,25-32.61h0a100.42,100.42,0,0,0-51.33-2l24.46,34.41-1.37,27.44-3,6.72Z" transform="translate(-49.37 -49.26)"/><path class="cls-2" d="M311.35,337.06h-.43c-10.6,0-19.94-1.22-27.76-3.51l.84-2.87c7.55,2.21,16.61,3.35,26.93,3.38h.43A149.24,149.24,0,0,0,333,332.49l.49,2.95A150.28,150.28,0,0,1,311.35,337.06Z" transform="translate(-49.37 -49.26)"/><path class="cls-2" d="M299.46,354.77l-15.42-22s18.58,5.54,35.59,3.07c0,0-6.12,16.92-20.17,19.71" transform="translate(-49.37 -49.26)"/><path class="cls-2" d="M264,378l29.82,2.14s16.52,4.71,17,5.57,11.93,5.14,13.3,9c0,0,9.18,3.85,10.1,6.42,0,0-.46,2.14-4.59,2.14,0,0,0,1.29-2.76,1.72s-8.25-.86-8.25-.86a4.85,4.85,0,0,1-3.67,2.14h-15.6l-11-1.28s-24.78,0-27.07-5.14c0,0-2.29-2.15-4.13-1.29C257.07,398.54,252,384,264,378Z" transform="translate(-49.37 -49.26)"/><path d="M287.81,397.26a64.82,64.82,0,0,1,7.76-.09,37.34,37.34,0,0,1,3.91.35c.33.05.66.13,1,.22l.92.32c.58.17,1.2.33,1.82.47,2.48.61,5,1.17,7.49,1.83,1.25.32,2.49.67,3.73,1.05a18.83,18.83,0,0,1,3.63,1.41,32.43,32.43,0,0,0-3.79-.71l-3.81-.64c-2.54-.44-5.06-.93-7.59-1.52-.63-.16-1.26-.33-1.91-.53l-.9-.33c-.26-.08-.56-.15-.86-.21-1.22-.26-2.49-.4-3.76-.58C292.93,398,290.37,397.67,287.81,397.26Z" transform="translate(-49.37 -49.26)"/><path d="M294.69,391.69c1.89.31,3.75.69,5.62,1.09s3.71.84,5.56,1.29l-.1,0c.83.08,1.64.18,2.47.34a10.36,10.36,0,0,1,1.25.31,6.6,6.6,0,0,1,.66.27,1.84,1.84,0,0,1,.36.22,1.61,1.61,0,0,1,.41.44l-.46-.35c1.64.39,3.26.81,4.88,1.23s3.24.88,4.86,1.33,3.23.92,4.82,1.49c.8.28,1.59.58,2.37.91.39.17.77.34,1.15.54a3.06,3.06,0,0,1,1,.76,2.81,2.81,0,0,0-1.11-.54c-.4-.13-.8-.24-1.21-.34-.8-.22-1.62-.4-2.43-.59-1.63-.38-3.26-.71-4.91-1.06s-3.27-.72-4.9-1.13-3.26-.79-4.88-1.22l-.46-.35c0,.08,0,0-.16-.08A3.36,3.36,0,0,0,309,396c-.34-.12-.72-.21-1.09-.3-.75-.18-1.54-.31-2.31-.42h-.11c-1.82-.55-3.64-1.11-5.44-1.71S296.47,392.37,294.69,391.69Z" transform="translate(-49.37 -49.26)"/><path d="M296.53,386.55c2.66.13,5.3.44,7.93.8,1.32.17,2.62.39,3.92.67s2.6.52,3.89.83h.08l0,0c2,.86,4,1.75,5.92,2.71,1,.46,1.95,1,2.91,1.45a31.81,31.81,0,0,1,2.82,1.64l-3.1-1c-1-.35-2.05-.7-3.06-1.08q-3.06-1.11-6-2.36l.12,0c-1.29-.26-2.58-.56-3.87-.85-.64-.14-1.29-.3-1.93-.46l-1.94-.41C301.65,388,299.07,387.34,296.53,386.55Z" transform="translate(-49.37 -49.26)"/><path class="cls-2" d="M382.78,304.79c-2.89,3.36-10.24,11.52-14.61,13.81-.78.41-1-.68-1.45-1.46-1.55-2.83-4.4-10.2-7.29-10.2-3.41,0-17.39-7-18.94-8-.11-.07-9.64-8.78-9.64-8.78a17.28,17.28,0,0,1-2.72-3.9c-1.77-3.44-4.86-9.77-3.87-10.11,1.33-.44,8.28,0,11.16,7.58a1.93,1.93,0,0,0,.76.95,29,29,0,0,1,4.67,3.44,2,2,0,0,0,.71.51l.52.21a1.92,1.92,0,0,0,2.14-.51,7.25,7.25,0,0,1,2.61-2,2.2,2.2,0,0,0,1.07-.95h0c.3-.61-.48-1.14-.86-1.7-1.12-1.68-2.63-5.32-2.29-5.66a4.72,4.72,0,0,1-3,1.08,1.89,1.89,0,0,1-1.71-2.8l.94-1.7a2,2,0,0,0,.18-.46c.27-1.1,1.48-5.69,2.68-5.69l7.36-4.5a1.92,1.92,0,0,1,1.73-.12l2.24,1,.1,0,9.46,3.44c.34.12.67.25,1,.4h0a7.55,7.55,0,0,1,3.91,3.82l1,2.24a1.59,1.59,0,0,1,.07.2l4.93,15.23a1.48,1.48,0,0,0,.12.29L381,300.47a1.94,1.94,0,0,0,.34.47l1.3,1.3A1.87,1.87,0,0,1,382.78,304.79Z" transform="translate(-49.37 -49.26)"/><path d="M367.85,319.06a.86.86,0,0,1-.27-.05c-.47-.16-.71-.69-.95-1.21-.07-.16-.15-.33-.23-.48-.31-.56-.66-1.28-1.06-2.11-1.52-3.15-3.81-7.9-5.91-7.9-3.51,0-17.46-7-19.14-8.08-.09-.06-3.35-3-9.69-8.81a18.25,18.25,0,0,1-2.8-4c-4.57-8.92-4.16-9.93-4-10.26a.61.61,0,0,1,.38-.36c1.62-.55,8.67,0,11.61,7.79a1.5,1.5,0,0,0,.62.77,28.12,28.12,0,0,1,4.74,3.51,1.51,1.51,0,0,0,.58.41l.52.21a1.57,1.57,0,0,0,1.73-.41,7.63,7.63,0,0,1,2.76-2.14,1.94,1.94,0,0,0,.86-.77c.11-.21-.09-.46-.43-.85a4.52,4.52,0,0,1-.4-.49,21.35,21.35,0,0,1-2.32-5.17,5.43,5.43,0,0,1-2.66.76,2.28,2.28,0,0,1-2-1.09,2.23,2.23,0,0,1,0-2.26l.94-1.7a1.31,1.31,0,0,0,.15-.37c.65-2.64,1.68-5.76,2.91-5.95l7.29-4.46a2.24,2.24,0,0,1,2.06-.14l2.32,1,9.47,3.44c.34.12.68.26,1,.4a7.91,7.91,0,0,1,4.1,4l1,2.24.09.24L376,290a.94.94,0,0,0,.1.23l5.25,10.08a1.64,1.64,0,0,0,.28.37l1.3,1.3a2.27,2.27,0,0,1,.12,3h0c-1.61,1.87-9.89,11.36-14.72,13.89A1,1,0,0,1,367.85,319.06Zm-43.41-42.59c-.05.26,0,1.78,4,9.62a17.37,17.37,0,0,0,2.67,3.82c2.57,2.34,9.35,8.53,9.59,8.73,1.6,1.06,15.41,7.94,18.72,7.94,2.55,0,4.88,4.8,6.57,8.31.4.82.74,1.53,1,2.08.09.17.17.35.25.53.16.34.35.76.52.82a.3.3,0,0,0,.19,0c4.72-2.48,12.91-11.87,14.5-13.72h0a1.53,1.53,0,0,0-.08-2.07l-1.3-1.3a2.15,2.15,0,0,1-.4-.55l-5.26-10.07a2.17,2.17,0,0,1-.15-.35L370.39,275a1.11,1.11,0,0,0-.07-.16l-1-2.24a7.22,7.22,0,0,0-3.72-3.64c-.33-.14-.65-.27-1-.39l-9.46-3.44-.12,0-2.25-1a1.55,1.55,0,0,0-1.39.1l-7.45,4.56h-.1c-.48,0-1.46,1.89-2.32,5.41a2.34,2.34,0,0,1-.22.55l-.94,1.7a1.5,1.5,0,0,0,0,1.52,1.53,1.53,0,0,0,1.36.74,4.48,4.48,0,0,0,2.73-1l0,0a.38.38,0,0,1,.5-.11l.24.13-.07.27a.35.35,0,0,1-.1.15,17.31,17.31,0,0,0,2.29,5.28,2.55,2.55,0,0,0,.34.41c.38.44.86,1,.53,1.65a2.56,2.56,0,0,1-1.27,1.14,6.92,6.92,0,0,0-2.46,1.93,2.28,2.28,0,0,1-2.54.61l-.52-.21a2.28,2.28,0,0,1-.85-.6A28.58,28.58,0,0,0,336,285a2.33,2.33,0,0,1-.91-1.13C332.4,276.78,326,276,324.44,276.47ZM345,278.19h0l0,0Z" transform="translate(-49.37 -49.26)"/><path class="cls-2" d="M340.06,272.17h0a.93.93,0,0,0-.23-.21l-6.23-4a.91.91,0,0,0-.31-.12l-3.61-.74a.91.91,0,0,0-.73.17c-1.28.95-6.11,4.06-9.24-.25,0,0-1.82-1.37,1.82-2.73,3.27-1.23,6.9-2.82,7.61-3.13a.92.92,0,0,1,.27-.08l11.38-1.31a.94.94,0,0,1,.59.13l2.05,1.24a.93.93,0,0,1,.42,1l-2.17,9.67A.91.91,0,0,1,340.06,272.17Z" transform="translate(-49.37 -49.26)"/><path d="M340.78,272.89a1.27,1.27,0,0,1-1-.49h0a.35.35,0,0,0-.14-.13l-6.23-4a.64.64,0,0,0-.19-.08l-3.6-.73a.58.58,0,0,0-.44.1c-1,.73-3.57,2.39-6.19,2a5.39,5.39,0,0,1-3.54-2.28,1.47,1.47,0,0,1-.54-1.28c.11-.79.93-1.46,2.5-2,3.27-1.23,6.9-2.82,7.6-3.13a1.44,1.44,0,0,1,.37-.1l11.38-1.31a1.27,1.27,0,0,1,.81.18l2.05,1.24a1.26,1.26,0,0,1,.59,1.37L342,271.89a1.27,1.27,0,0,1-1,1A1.43,1.43,0,0,1,340.78,272.89Zm-11.28-6.15a1,1,0,0,1,.25,0l3.61.73a1.33,1.33,0,0,1,.43.17l6.24,4a1.3,1.3,0,0,1,.32.3h0a.56.56,0,0,0,1-.22l2.16-9.67a.55.55,0,0,0-.25-.59l-2.05-1.24a.62.62,0,0,0-.35-.08l-11.39,1.32a.42.42,0,0,0-.16,0c-.7.31-4.35,1.91-7.63,3.14-1.68.63-2,1.18-2,1.46a.77.77,0,0,0,.31.64l.07.07a4.68,4.68,0,0,0,3.09,2c2.35.36,4.73-1.18,5.64-1.85A1.3,1.3,0,0,1,329.5,266.74Z" transform="translate(-49.37 -49.26)"/><path class="cls-2" d="M351.12,263.4l-4.87-1.74a3.73,3.73,0,0,0-2.93.17l-3.12,1.57a34.11,34.11,0,0,0-6.95,4.68,3.5,3.5,0,0,0-.59.73,26,26,0,0,0-2,3.69c0,.46-3.18,4.1-2.73,5.47s2.28,1.82,2.28,1.82,2.28.91,5.46-3.19a11.22,11.22,0,0,0,1.43-2.41,3.72,3.72,0,0,1,2.47-2.12c.36-.1.73-.21,1.09-.35a3.65,3.65,0,0,0,1.92-1.73,4,4,0,0,1,1.29-1.59C344.75,268,351.58,263.4,351.12,263.4Z" transform="translate(-49.37 -49.26)"/><path d="M330.79,280.24a2.34,2.34,0,0,1-.75-.11,3.76,3.76,0,0,1-2.48-2.05c-.34-1,.76-2.73,2-4.54a11,11,0,0,0,.71-1.09c0-.1,0-.45,2.07-3.83a4.05,4.05,0,0,1,.65-.81,34.72,34.72,0,0,1,7-4.74l3.13-1.56a4.12,4.12,0,0,1,3.21-.2l4.82,1.72h.22l.09.29c.07.29.1.41-3.45,2.81-1.59,1.07-3.55,2.35-4.05,2.6a3.4,3.4,0,0,0-1.13,1.43,4,4,0,0,1-2.12,1.91c-.33.12-.71.24-1.12.35a3.36,3.36,0,0,0-2.22,1.91,11.62,11.62,0,0,1-1.48,2.5C333.65,279.76,331.77,280.24,330.79,280.24ZM345,261.8a3.32,3.32,0,0,0-1.51.36l-3.13,1.56a34.67,34.67,0,0,0-6.86,4.62,3.49,3.49,0,0,0-.53.66,23.52,23.52,0,0,0-2,3.53c0,.22-.2.52-.83,1.43-.76,1.09-2.17,3.14-1.92,3.89.38,1.16,2,1.58,2,1.58s2.14.73,5.09-3.05a11.16,11.16,0,0,0,1.37-2.33,4.07,4.07,0,0,1,2.71-2.33c.39-.11.74-.22,1.06-.34a3.24,3.24,0,0,0,1.73-1.56,3.9,3.9,0,0,1,1.45-1.74c.75-.38,5.38-3.46,6.78-4.53L346.13,262A3.41,3.41,0,0,0,345,261.8Z" transform="translate(-49.37 -49.26)"/><path d="M358.34,273.79a2.27,2.27,0,0,1-1.41.26,1.82,1.82,0,0,1-.67-.16c-.22-.09-.43-.18-.63-.28a10.87,10.87,0,0,1-1.17-.63c-.38-.23-.74-.46-1.11-.73l.52.14c-.91.1-1.8.16-2.72.18-.45,0-.91,0-1.38,0a6.07,6.07,0,0,1-1.48-.26l.76-.32c-.27.51-.57,1-.87,1.48s-.61,1-.93,1.43-.67.93-1,1.38a4.43,4.43,0,0,1-1.27,1.17,2.33,2.33,0,0,0,.48-.68c.14-.25.26-.5.38-.75.25-.5.48-1,.72-1.52l1.38-3.07.21-.45.56.13a4.4,4.4,0,0,0,1.14.1c.42,0,.85,0,1.28,0,.86,0,1.74-.1,2.6-.19l.28,0,.23.16a20.88,20.88,0,0,0,2,1.35c.17.09.34.19.51.27a2.16,2.16,0,0,1,.53.26A10.47,10.47,0,0,1,358.34,273.79Z" transform="translate(-49.37 -49.26)"/><path class="cls-5" d="M353.87,270" transform="translate(-49.37 -49.26)"/><path class="cls-2" d="M289.41,213.34c-.3,0-5.47-.31-5.5,0-.13,1.17,1.12,2.25,1.38,5,.61,6.7,1.54,18.35,3.21,21.11,0,0,9.16,8,17.38,11,.38.13-10.2-7.83-11.61-15.58-1.83-10.09-3.48-13.3-1.18-22C293.25,212.25,293.54,213.34,289.41,213.34Z" transform="translate(-49.37 -49.26)"/><path class="cls-2" d="M385.3,305.09s-14.68,19.27-23.4,19.73l7.8,11.93s17.43-7.8,21.56-18.81C391.26,317.94,387.13,304.17,385.3,305.09Z" transform="translate(-49.37 -49.26)"/><path class="cls-2" d="M263.72,373.45s-18.35,5.5-8.71,28.9c0,0,1.37,2.3-12.39,0C242.62,402.35,237.57,376.66,263.72,373.45Z" transform="translate(-49.37 -49.26)"/><path class="cls-2" d="M231.15,274.35s-6.88,6.43-6,9.64l-5.05,5-16.06,24.32s-37.16,42.67-42.2,60.56c0,0-7.34,6.88-2.3,11.47,0,0,1.84,6.42,16.06,8.71,0,0-10.55-10.55-4.13-20.18s35.78-54.6,35.78-54.6,15.6-16.51,16.52-24.31c2.68-1.12,6.95-1.88,8.26-8.26C233.15,281.46,232.29,274.26,231.15,274.35Z" transform="translate(-49.37 -49.26)"/><path class="cls-6" d="M368.78,278.48" transform="translate(-49.37 -49.26)"/><path class="cls-6" d="M348.37,281" transform="translate(-49.37 -49.26)"/><path class="cls-4" d="M355.79,285.09" transform="translate(-49.37 -49.26)"/><path class="cls-4" d="M348.5,285.09" transform="translate(-49.37 -49.26)"/><path class="cls-4" d="M342.86,289.08" transform="translate(-49.37 -49.26)"/><line x1="255.05" y1="316.33" x2="229.19" y2="279.54"/><rect x="290.4" y="324.71" width="2.19" height="44.98" transform="translate(-196.01 181.53) rotate(-35.11)"/><path d="M335.77,327.65c-.23-.07-22.75-7.43-51.19-2.15l-.39-2.14c29-5.39,52,2.14,52.27,2.22Z" transform="translate(-49.37 -49.26)"/></svg>