<svg id="Layer_1" data-name="Layer 1" xmlns="http://www.w3.org/2000/svg" viewBox="0 0 243.51 177.24"><defs><style>.cls-1{fill:#fff;stroke:#fff;stroke-miterlimit:10;stroke-width:0.5px;}</style></defs><title>chairNtable</title><path class="cls-1" d="M185,276.89a2.27,2.27,0,0,1-.63-.08,2,2,0,0,1-1.3-1.09c-1-2-.25-9.41-.07-11-.67-.73-3-3.5-2.59-6.19a4.38,4.38,0,0,1,2.13-3c-1.46-.95-4.53-3.35-4.71-6.57-.11-2,.95-4,3.17-5.88l-47.47,1,0-1,50.64-1-1.34.94c-2.76,1.93-4.1,3.93-4,5.94.2,3.59,4.88,6.19,4.93,6.21l.84.46-.86.43a3.81,3.81,0,0,0-2.35,2.7c-.41,2.56,2.45,5.47,2.48,5.5l.17.17,0,.24c-.28,2.46-.82,9.18-.05,10.72a1,1,0,0,0,.66.56,3.74,3.74,0,0,0,2.39-.62v-13l.22-.15c1.62-1.08,2.45-2.23,2.45-3.43,0-2.07-2.42-3.72-2.45-3.73l-.58-.4.56-.42c2.22-1.67,3.35-3.48,3.36-5.37,0-3-2.85-5.43-3.3-5.78a.57.57,0,0,1-.11-.1l.65-.75.08.06c.18.1,1.43.67,5.52-.15,3.35-.67,5.21-20.18,5.6-32.41C195.16,201,191.31,199,191.27,199l-.27-.14V188.58c-5.71-18.25-3.23-79.6-3-84.76a10.06,10.06,0,0,0-7.38-.24c-2.52,1-4.41,3.42-5.63,7.06,0,0,0,0,0,0l-.93-.35v0a1.14,1.14,0,0,0-.27-.84c-1-1.38-4.91-3.8-20.29-4.47h-.19l-.14-.14c-.06,0-6-5.75-16.52-2.87l-.26-1c10.34-2.82,16.33,2.07,17.34,3,14.77.66,19.52,3,20.87,4.87,1.31-3.12,3.21-5.22,5.66-6.23a11.14,11.14,0,0,1,8.48.4l.29.15v.32c0,.66-2.93,66.13,3,84.83l0,.15v9.71c1,.63,4.48,3.27,8,11.09l0,.1v.12c-.1,3.31-1.16,32.42-6.4,33.47a18.22,18.22,0,0,1-4.38.44,8.23,8.23,0,0,1,2.34,5.29c0,2.07-1.09,4-3.24,5.78.83.69,2.35,2.22,2.35,4.15,0,1.49-.9,2.87-2.67,4.11v13l-.22.15A5.9,5.9,0,0,1,185,276.89Z" transform="translate(-70.74 -99.9)"/><path class="cls-1" d="M199.31,210c-31.54-12.81-63.48-12-63.79-12l0-1c.33,0,32.48-.85,64.21,12Z" transform="translate(-70.74 -99.9)"/><path class="cls-1" d="M191.31,199c-2.89-1.19-17.31-7.29-17.31-10.46-.16-2.67-4-66.2,0-78.16l.94.32c-3.92,11.77,0,77.15,0,77.81,0,1.87,9.76,6.71,16.69,9.57Z" transform="translate(-70.74 -99.9)"/><path class="cls-1" d="M163,135.5a2.5,2.5,0,1,1,2.5-2.5A2.5,2.5,0,0,1,163,135.5Zm0-4a1.5,1.5,0,1,0,1.5,1.5A1.5,1.5,0,0,0,163,131.5Z" transform="translate(-70.74 -99.9)"/><path class="cls-1" d="M144.5,135a2.5,2.5,0,1,1,2.5-2.5A2.5,2.5,0,0,1,144.5,135Zm0-4a1.5,1.5,0,1,0,1.5,1.5A1.5,1.5,0,0,0,144.5,131Z" transform="translate(-70.74 -99.9)"/><path class="cls-1" d="M152.5,151a2.5,2.5,0,1,1,2.5-2.5A2.5,2.5,0,0,1,152.5,151Zm0-4a1.5,1.5,0,1,0,1.5,1.5A1.5,1.5,0,0,0,152.5,147Z" transform="translate(-70.74 -99.9)"/><path class="cls-1" d="M163.5,168a2.5,2.5,0,1,1,2.5-2.5A2.5,2.5,0,0,1,163.5,168Zm0-4a1.5,1.5,0,1,0,1.5,1.5A1.5,1.5,0,0,0,163.5,164Z" transform="translate(-70.74 -99.9)"/><path class="cls-1" d="M144.5,167h-.19a2.5,2.5,0,0,1-1.44-4.39,2.52,2.52,0,0,1,1.82-.59,2.5,2.5,0,0,1-.19,5Zm0-4a1.54,1.54,0,0,0-1,.36,1.5,1.5,0,0,0,.87,2.64h0a1.5,1.5,0,0,0,.22-3Z" transform="translate(-70.74 -99.9)"/><path class="cls-1" d="M135.5,118h-.19a2.5,2.5,0,0,1-1.44-4.39,2.52,2.52,0,0,1,1.82-.59,2.5,2.5,0,0,1-.19,5Zm0-4a1.54,1.54,0,0,0-1,.36,1.5,1.5,0,0,0,.87,2.64h0a1.55,1.55,0,0,0,1.09-.36,1.5,1.5,0,0,0-.87-2.64Z" transform="translate(-70.74 -99.9)"/><path class="cls-1" d="M152.5,183h-.19a2.5,2.5,0,0,1-1.44-4.39,2.52,2.52,0,0,1,1.82-.59,2.5,2.5,0,0,1-.19,5Zm0-4a1.54,1.54,0,0,0-1,.36,1.5,1.5,0,0,0,.87,2.64h0a1.55,1.55,0,0,0,1.09-.36,1.5,1.5,0,0,0-.87-2.64Z" transform="translate(-70.74 -99.9)"/><path class="cls-1" d="M154.5,119h-.19a2.5,2.5,0,0,1-1.44-4.39,2.52,2.52,0,0,1,1.82-.59,2.5,2.5,0,0,1-.19,5Zm0-4a1.54,1.54,0,0,0-1,.36,1.5,1.5,0,0,0,.87,2.64h0a1.5,1.5,0,0,0,.22-3Z" transform="translate(-70.74 -99.9)"/><path class="cls-1" d="M86,276.89a5.9,5.9,0,0,1-2.8-1l-.22-.15v-13c-1.77-1.24-2.67-2.62-2.67-4.11,0-1.93,1.52-3.46,2.35-4.15-2.15-1.77-3.24-3.71-3.24-5.78a8.23,8.23,0,0,1,2.34-5.29A18.22,18.22,0,0,1,77.4,243c-5.24-1.05-6.3-30.16-6.4-33.47v-.12l0-.1c3.48-7.82,7-10.46,8-11.09l0-9.86c5.91-18.7,3-84.17,3-84.83v-.32l.29-.15a11.14,11.14,0,0,1,8.48-.4c2.45,1,4.35,3.11,5.66,6.23,1.35-1.89,6.11-4.22,20.91-4.87a24,24,0,0,1,19.3-3l-.26,1a22.88,22.88,0,0,0-18.57,2.92l-.12.09h-.16c-16.16.7-19.6,3.41-20.34,4.54a1.11,1.11,0,0,0-.22.77v0l-.93.35s0,0,0,0c-1.22-3.64-3.12-6-5.64-7.06a10,10,0,0,0-7.37.24c.22,5.15,2.7,66.5-3,84.76v10.23l-.28.14S75.84,201,72,209.6c.39,12.23,2.25,31.74,5.6,32.41,4.19.84,5.4.22,5.55.13l0,0,.65.75a.37.37,0,0,1-.11.1c-.45.35-3.3,2.76-3.3,5.78,0,1.89,1.14,3.7,3.36,5.37l.56.42-.58.4s-2.45,1.66-2.45,3.73c0,1.2.83,2.35,2.45,3.43l.22.15v13a3.74,3.74,0,0,0,2.39.62,1,1,0,0,0,.66-.56c.77-1.54.23-8.26,0-10.72l0-.24.17-.17s2.89-2.94,2.48-5.5a3.81,3.81,0,0,0-2.35-2.7l-.86-.43.84-.46s4.74-2.63,4.93-6.21c.11-2-1.23-4-4-5.94L86.86,242l46.65,1,0,1L90,243c2.22,1.87,3.28,3.84,3.17,5.88-.18,3.22-3.25,5.62-4.71,6.57a4.38,4.38,0,0,1,2.13,3c.44,2.69-1.92,5.46-2.59,6.19.18,1.63.9,9.09-.07,11a2,2,0,0,1-1.3,1.09A2.27,2.27,0,0,1,86,276.89Z" transform="translate(-70.74 -99.9)"/><path class="cls-1" d="M71.69,210l-.38-.92c31.73-12.89,64.87-12,65.21-12l0,1C136.15,198,103.22,197.15,71.69,210Z" transform="translate(-70.74 -99.9)"/><path class="cls-1" d="M79.69,199l-.38-.92c6.93-2.86,16.69-7.7,16.69-9.54,0-.69,4-66.07,0-77.84l.94-.32c4,12,.19,75.49,0,78.19C97,191.67,82.58,197.77,79.69,199Z" transform="translate(-70.74 -99.9)"/><path class="cls-1" d="M108,135.5a2.5,2.5,0,1,1,2.5-2.5A2.5,2.5,0,0,1,108,135.5Zm0-4a1.5,1.5,0,1,0,1.5,1.5A1.5,1.5,0,0,0,108,131.5Z" transform="translate(-70.74 -99.9)"/><path class="cls-1" d="M126.5,135a2.5,2.5,0,1,1,2.5-2.5A2.5,2.5,0,0,1,126.5,135Zm0-4a1.5,1.5,0,1,0,1.5,1.5A1.5,1.5,0,0,0,126.5,131Z" transform="translate(-70.74 -99.9)"/><path class="cls-1" d="M118.5,151a2.5,2.5,0,1,1,2.5-2.5A2.5,2.5,0,0,1,118.5,151Zm0-4a1.5,1.5,0,1,0,1.5,1.5A1.5,1.5,0,0,0,118.5,147Z" transform="translate(-70.74 -99.9)"/><path class="cls-1" d="M107.5,168a2.5,2.5,0,1,1,2.5-2.5A2.5,2.5,0,0,1,107.5,168Zm0-4a1.5,1.5,0,1,0,1.5,1.5A1.5,1.5,0,0,0,107.5,164Z" transform="translate(-70.74 -99.9)"/><path class="cls-1" d="M126.5,167a2.53,2.53,0,1,1,.19,0Zm0-4h-.11a1.5,1.5,0,0,0,.22,3h0a1.5,1.5,0,0,0,.87-2.64A1.54,1.54,0,0,0,126.5,163Z" transform="translate(-70.74 -99.9)"/><path class="cls-1" d="M135.5,118a2.53,2.53,0,1,1,.19,0Zm0-4h-.11a1.5,1.5,0,1,0,.22,3h0a1.5,1.5,0,0,0,.87-2.64A1.54,1.54,0,0,0,135.5,114Z" transform="translate(-70.74 -99.9)"/><path class="cls-1" d="M135.5,183a2.53,2.53,0,1,1,.19,0Zm0-4h-.11a1.5,1.5,0,0,0,.22,3h0a1.5,1.5,0,0,0,.87-2.64A1.54,1.54,0,0,0,135.5,179Z" transform="translate(-70.74 -99.9)"/><path class="cls-1" d="M135.49,150a2.47,2.47,0,0,1-1.61-.6,2.55,2.55,0,0,1,1.44-4.46,2.46,2.46,0,0,1,1.8.59,2.5,2.5,0,0,1,.88,1.74,2.54,2.54,0,0,1-2.31,2.72h-.2Zm0-4.07h-.12a1.52,1.52,0,0,0-1.38,1.64,1.52,1.52,0,0,0,1.6,1.42,1.55,1.55,0,0,0,.86-2.71A1.48,1.48,0,0,0,135.51,145.93Z" transform="translate(-70.74 -99.9)"/><path class="cls-1" d="M118.5,183a2.53,2.53,0,1,1,.19,0Zm0-4h-.11a1.5,1.5,0,0,0,.22,3h0a1.5,1.5,0,0,0,.87-2.64A1.54,1.54,0,0,0,118.5,179Z" transform="translate(-70.74 -99.9)"/><path class="cls-1" d="M116.5,119a2.53,2.53,0,1,1,.19,0Zm0-4h-.11a1.5,1.5,0,1,0,.22,3h0a1.5,1.5,0,0,0,.87-2.64A1.54,1.54,0,0,0,116.5,115Z" transform="translate(-70.74 -99.9)"/><path class="cls-1" d="M261,168c32.07,0,52,4.21,52,11a6.34,6.34,0,0,1-2.59,5.19C303,189.54,283,193,259.5,193c-22.59,0-44-3.63-51.95-8.84-1.78-1.16-1.71-2.34-1.6-4,0-.38.05-.77.05-1.17,0-6.58,22.1-11,55-11m0-1c-30.1,0-56,3.72-56,12,0,2.07-.76,4.21,2,6,8.27,5.38,29.93,9,52.5,9,23.26,0,43.68-3.36,51.5-9a7.31,7.31,0,0,0,3-6c0-8.28-22.9-12-53-12Z" transform="translate(-70.74 -99.9)"/><path class="cls-1" d="M260,168c32.55,0,52,5.34,52,10.5,0,4.58-16.59,9.5-53,9.5s-53-4.92-53-9.5c0-5.05,20.65-10.5,54-10.5m0-1c-29.82,0-55,4.6-55,11.5S229.18,189,259,189s54-3.6,54-10.5S289.82,167,260,167Z" transform="translate(-70.74 -99.9)"/><path class="cls-1" d="M291.39,276.69a4,4,0,0,1-2.17-.77l-.11-.08-.06-.12c0-.05-2.94-5.82-5.71-6.75a32.39,32.39,0,0,1-7.14-4.07l-.14-.16c-.06-.11-5.89-10.61-12.42-8.76l-1.72.87c-.59,2.15-1.14,5.33-.58,6.07a.18.18,0,0,0,.16.08h.41l.08.4c0,.13.63,3.24-.62,4.76a2.3,2.3,0,0,1-1.87.84v-1a1.36,1.36,0,0,0,1.1-.47c.69-.85.6-2.67.46-3.61a1.18,1.18,0,0,1-.52-.4c-1.08-1.43.21-6.21.48-7.16l.06-.21,2.2-1.1c7.1-2,12.94,7.93,13.6,9.11a31.58,31.58,0,0,0,6.78,3.87c2.95,1,5.76,6.23,6.22,7.12a2.33,2.33,0,0,0,2,.46,2.22,2.22,0,0,0,1.17-1.27c.86-4.32-4.19-8-4.76-8.39-6-2.06-11.92-9.82-12.17-10.15l-.06-.11c-6.78-16.45-12.4-15.7-12.46-15.7l-.58.1v-.59c0-4.55-1.06-15.72-1.86-16.65-1.15-1.15.36-3.73.86-4.5v-1.56c-2-1.29-1-4.31-1-4.45,1.94-3.9,1.44-18.2,1.44-18.35l1,0c0,.59.51,14.7-1.52,18.76h0s-.8,2.55.77,3.33l.28.14v2.46l-.08.13c-.75,1.11-1.53,2.9-1.07,3.37,1.23,1.22,2.07,13.17,2.14,16.85,1.73.17,7,1.92,12.95,16.25.51.67,6.18,7.93,11.72,9.78l.12.05c.25.17,6.26,4.25,5.21,9.52a3.22,3.22,0,0,1-1.8,2A2.73,2.73,0,0,1,291.39,276.69Z" transform="translate(-70.74 -99.9)"/><path class="cls-1" d="M227.61,276.69a2.68,2.68,0,0,1-.8-.13,3.2,3.2,0,0,1-1.78-1.9c-1.07-5.33,4.94-9.41,5.19-9.58l.12-.05c5.55-1.85,11.21-9.11,11.72-9.78C248,240.92,253.28,239.17,255,239c.07-3.68.91-15.63,2.14-16.85.46-.47-.32-2.26-1.07-3.37l-.08-.13v-2.46l.28-.14c1.58-.79.75-3.37.75-3.39-2-4-1.52-18.11-1.5-18.7l1,0c0,.15-.5,14.45,1.42,18.29.07.19,1.05,3.22-.95,4.51v1.56c.5.77,2,3.35.85,4.5-.79.93-1.85,12.1-1.85,16.65v.59l-.58-.1c-.06,0-5.76-.56-12.46,15.7l-.06.11c-.25.33-6.12,8.09-12.17,10.15-.57.4-5.61,4.08-4.74,8.45h0a2.23,2.23,0,0,0,1.15,1.21,2.33,2.33,0,0,0,2-.46c.46-.89,3.27-6.14,6.22-7.12a31.58,31.58,0,0,0,6.78-3.87c.66-1.18,6.5-11.15,13.52-9.14l2.28,1.13.06.21c.27.95,1.56,5.73.48,7.16a1.18,1.18,0,0,1-.52.4c-.14.94-.23,2.76.46,3.61a1.36,1.36,0,0,0,1.1.47v1a2.3,2.3,0,0,1-1.87-.84c-1.25-1.52-.65-4.63-.62-4.76l.08-.4h.41a.18.18,0,0,0,.16-.08c.56-.74,0-3.92-.58-6.07l-1.8-.9c-6.47-1.85-12.28,8.68-12.34,8.79l-.14.16a32.39,32.39,0,0,1-7.14,4.07c-2.77.93-5.68,6.7-5.71,6.75l-.06.12-.11.08A4,4,0,0,1,227.61,276.69Z" transform="translate(-70.74 -99.9)"/></svg>