<svg id="Layer_1" data-name="Layer 1" xmlns="http://www.w3.org/2000/svg" viewBox="0 0 52 232.68"><defs><style>.cls-1{fill:#fff;stroke:#fff;stroke-miterlimit:10;}</style></defs><title>champagne</title><path class="cls-1" d="M203.22,205.24c-.36,0-.72,0-1.08,0a15.3,15.3,0,0,1-11.31-6.14c-6.25-7.86-15-31.86-3.14-104.28a1.15,1.15,0,0,1,.58-.81,1.11,1.11,0,0,1,1,0c.1,0,10,4.19,29.47-.07a1.11,1.11,0,0,1,.88.17,1.15,1.15,0,0,1,.48.76,436.65,436.65,0,0,1,4.35,44.54c1.32,31.5-2.1,52-10.17,60.86A14.46,14.46,0,0,1,203.22,205.24ZM189.71,96.48A433.68,433.68,0,0,0,184.29,148c-.87,24.95,1.93,41.67,8.31,49.69a13,13,0,0,0,9.69,5.3,12.17,12.17,0,0,0,10.31-4.28c17.17-18.9,7-92.15,5.43-102.35C202.43,99.54,193,97.51,189.71,96.48Z" transform="translate(-177.5 -72.49)"/><path class="cls-1" d="M203.5,295.49A1.51,1.51,0,0,1,202,294V205.74a1.51,1.51,0,1,1,3,0V294A1.51,1.51,0,0,1,203.5,295.49Z" transform="translate(-177.5 -72.49)"/><path class="cls-1" d="M203.5,304.67c-12.36,0-25.5-3.12-25.5-8.89s13.14-8.88,25.5-8.88S229,290,229,295.78,215.86,304.67,203.5,304.67Zm0-15.51c-14.4,0-23.24,3.86-23.24,6.62s8.84,6.63,23.24,6.63,23.24-3.86,23.24-6.63S217.9,289.16,203.5,289.16Z" transform="translate(-177.5 -72.49)"/><path class="cls-1" d="M201,136c-6.83,0-12.68-1-17.47-3.09l1.19-2.77c14.84,6.36,37.53,0,37.76-.06l.83,2.9a89.41,89.41,0,0,1-13.82,2.54A79.66,79.66,0,0,1,201,136Z" transform="translate(-177.5 -72.49)"/><path class="cls-1" d="M197.41,87a3.15,3.15,0,1,1,3.14-3.14A3.15,3.15,0,0,1,197.41,87Zm0-5.54a2.4,2.4,0,1,0,2.39,2.4A2.4,2.4,0,0,0,197.41,81.49Z" transform="translate(-177.5 -72.49)"/><path class="cls-1" d="M203,92.48a1.95,1.95,0,1,1,1.94-2A1.95,1.95,0,0,1,203,92.48Zm0-3.33a1.38,1.38,0,1,0,1.38,1.38A1.38,1.38,0,0,0,203,89.15Z" transform="translate(-177.5 -72.49)"/><path class="cls-1" d="M199.62,77.06a2,2,0,1,1,2-2A2,2,0,0,1,199.62,77.06Zm0-3.32A1.29,1.29,0,1,0,200.91,75,1.28,1.28,0,0,0,199.62,73.74Z" transform="translate(-177.5 -72.49)"/><path class="cls-1" d="M208.48,84.82a4.26,4.26,0,1,1,4.26-4.26A4.26,4.26,0,0,1,208.48,84.82Zm0-7.76a3.5,3.5,0,1,0,3.5,3.5A3.5,3.5,0,0,0,208.48,77.06Z" transform="translate(-177.5 -72.49)"/><path class="cls-1" d="M218.45,94.61l-.19,0c-16.6-4.32-28.23-.07-28.34,0a.75.75,0,0,1-.53-1.41c.49-.18,12.15-4.46,29.25,0a.75.75,0,0,1-.19,1.48Z" transform="translate(-177.5 -72.49)"/><path class="cls-1" d="M198.52,194a1.51,1.51,0,0,1-1.07-.44c-10.36-10.36-8.28-31.35-8.19-32.24a1.51,1.51,0,0,1,1.66-1.34,1.5,1.5,0,0,1,1.34,1.65c0,.21-2,20.46,7.32,29.8a1.51,1.51,0,0,1-1.06,2.57Z" transform="translate(-177.5 -72.49)"/></svg>