<svg id="Layer_2" data-name="Layer 2" xmlns="http://www.w3.org/2000/svg" viewBox="0 0 277.63 359.33"><defs><style>.cls-1{fill:none;stroke:#fff;stroke-miterlimit:10;}</style></defs><title>events</title><path class="cls-1" d="M112.63,361.05l-.25-.06c-.12,0-12.29-3.15-32.12-14.05l.48-.88c18.14,10,29.8,13.39,31.63,13.89,34.36-30.65,57.12-76.58,67.64-136.54,9.94-56.69,32.45-61.24,33.4-61.4h5.3l2,2h5.79l-2.21-2.94c-1.13.24-4.89.88-6.56-.71a3,3,0,0,1-.72-2.95,6.45,6.45,0,0,0-.71-4.68c-.31-.62-.58-1.16-.35-1.71s.59-.72,1.39-1c1.84-.62.78-6.08-.31-9.37l-.15-.45.43-.17c3.92-1.57,4.21-4,4.21-4.77l-6.3-4.36.56-.82,6.68,4.62,0,.22c0,.15.46,3.71-4.39,5.85a32.24,32.24,0,0,1,1,4.27c.54,3.43,0,5.42-1.46,5.92-.68.23-.78.4-.79.43s.16.54.33.88a7.45,7.45,0,0,1,.79,5.32,2.08,2.08,0,0,0,.43,2c1.28,1.22,4.73.69,6,.39l.32-.09,3.8,5.07h-8.21l-2-2H213.5c-.14,0-22.7,4.7-32.51,60.59-10.58,60.29-33.51,106.48-68.16,137.28Z" transform="translate(-53.95 -11.5)"/><path class="cls-1" d="M134.46,336.28c-.39-2.4-5.11-3.88-7-4.28-20.9,2-34.12-7-34.25-7.09l.56-.82c.13.09,13.12,8.87,33.67,6.91h.15c.29.06,7.26,1.5,7.85,5.1Z" transform="translate(-53.95 -11.5)"/><path class="cls-1" d="M152.29,309.46c-3.21-.54-9.81-5.35-10.09-5.56l-.12-.08-.05-.14C136.17,288,122.39,280,122.25,279.93l.5-.86c.14.08,14.14,8.22,20.17,24.11.91.66,6.78,4.83,9.54,5.29Z" transform="translate(-53.95 -11.5)"/><rect class="cls-1" x="116.55" y="212.5" width="10" height="1"/><rect class="cls-1" x="147.5" y="203.3" width="1" height="11.4" transform="translate(-151.09 123.38) rotate(-37.87)"/><path class="cls-1" d="M143.71,256.12l.33-.81c1.57-3.92-10.29-28.46-15-37.58l.88-.46c1.68,3.25,15.77,30.84,15.19,37.63l19.67-2.81L162,245l-.94-3.36,1-.26.92,3.3,3.3,8.24Z" transform="translate(-53.95 -11.5)"/><rect class="cls-1" x="211" y="129.29" width="1" height="14.42" transform="translate(-73.35 225.26) rotate(-56.31)"/><path class="cls-1" d="M262.09,94c-2.38,0-13.53-.75-18.06-14.35l-.11-.33L255,70.26v-7L267.36,53l.22,0c.13,0,12.35,2.18,15.4,13.36l0,.17-6.18,13.39-9,2-5,12-.3,0Zm-17-14.34c2,5.88,5.55,9.91,10.45,12A17.17,17.17,0,0,0,262.16,93l5-11.94,9-2L282,66.46c-2.73-9.62-12.72-12.09-14.33-12.42L256,63.73v7Z" transform="translate(-53.95 -11.5)"/><path class="cls-1" d="M262,93.64A17.53,17.53,0,0,0,251.55,82.1c-.32-.13-.68-.28-.59-.71l.57-.39,0,.42.21-.34.21.09A18.74,18.74,0,0,1,263,93.36Z" transform="translate(-53.95 -11.5)"/><path class="cls-1" d="M237.18,370.34A95.41,95.41,0,0,1,222.42,369l.16-1c16.76,2.64,22.49.6,23.49.14a3.32,3.32,0,0,0-.51-2.81c-2.58-3.66-12-4.34-12.09-4.34l-.33,0-.11-.31c-.21-.57-.41-1.14-.59-1.72-8.6-26.75,9.43-63.31,9.61-63.67l.07-.14.14-.08c9.66-5.23,16.14-21.83,18.74-48a290.59,290.59,0,0,0,1-38.23c-5.1-1.92-17.47-3.84-17.6-3.86l.16-1c.53.08,13.11,2,18.11,4l.29.11,0,.32c.16,3,3.73,74.19-20.12,87.39-1.21,2.49-17.69,37.26-9.49,62.79.15.46.3.92.47,1.38,1.77.15,9.93,1.05,12.52,4.74a4.35,4.35,0,0,1,.6,3.87l0,.19-.17.1C246.62,369,244.29,370.34,237.18,370.34Z" transform="translate(-53.95 -11.5)"/><path class="cls-1" d="M242.7,226.7A142.62,142.62,0,0,1,221.92,225l.16-1c.31.05,30.77,5,40.36-2.36l.61.8C258.72,225.75,250.6,226.7,242.7,226.7Z" transform="translate(-53.95 -11.5)"/><path class="cls-1" d="M226,369.45c-19.11-1.79-23.39-5.9-23.56-6.08l-.14-.14V363a4.37,4.37,0,0,1,1.55-3.61c3.42-2.93,11.55-1.78,13.3-1.5.27-.4.54-.81.79-1.22,14.26-22.72,6.88-60.47,6.32-63.18-19.85-18.69,1.19-86.76,2.1-89.65l.09-.31.32,0c5.34-.7,18,.52,18.54.57l-.1,1c-.12,0-12.59-1.21-18-.61a287.59,287.59,0,0,0-8.47,37.3c-3.94,26-1.76,43.66,6.31,51.12l.11.1,0,.16c.08.4,8.52,40.28-6.42,64.07-.32.52-.66,1-1,1.52l-.18.27-.32-.06c-.1,0-9.39-1.69-12.8,1.22a3.32,3.32,0,0,0-1.19,2.6c.88.68,6,4.1,22.81,5.66Z" transform="translate(-53.95 -11.5)"/><path class="cls-1" d="M210.5,299.5" transform="translate(-53.95 -11.5)"/><path class="cls-1" d="M234.26,298.66a12.66,12.66,0,0,1-5.09-1.08,14,14,0,0,1-5.06-3.77l.78-.62c.28.35,6.87,8.55,17.34,1.89l.54.84A15.74,15.74,0,0,1,234.26,298.66Z" transform="translate(-53.95 -11.5)"/><path class="cls-1" d="M307.68,363.46l-.14-1c16.69-2.3,21.68-5.94,22.53-6.67a3.35,3.35,0,0,0-1.31-2.54c-3.53-2.76-12.74-.67-12.83-.65l-.32.08-.19-.26c-.37-.49-.72-1-1.07-1.48-16-23.11-9.32-63.33-9.25-63.73l0-.15.11-.12c7.73-7.8,9.12-25.56,4-51.34a288.25,288.25,0,0,0-10.1-36.89c-5.43-.36-17.83,1.39-18,1.41l-.14-1c.53-.08,13.14-1.86,18.5-1.39l.32,0,.11.3c1,2.85,25.06,69.93,6.06,89.47-.43,2.74-6.13,40.78,9.11,62.84.28.4.56.8.85,1.19,1.74-.37,9.81-1.87,13.36.91a4.38,4.38,0,0,1,1.7,3.53v.19l-.13.15C330.78,356.53,326.69,360.84,307.68,363.46Z" transform="translate(-53.95 -11.5)"/><path class="cls-1" d="M302.46,223.47c-6.17,0-13.79-2.86-22.73-8.55a116.61,116.61,0,0,1-14.57-11l.68-.74c.25.23,25,22.77,40.54,18.88l.24,1A17.38,17.38,0,0,1,302.46,223.47Z" transform="translate(-53.95 -11.5)"/><path class="cls-1" d="M294.28,364.91c-5.37,0-7.25-1-7.38-1l-.17-.09-.06-.19a4.33,4.33,0,0,1,.43-3.89c2.42-3.8,10.53-5.06,12.29-5.29.15-.47.28-.93.41-1.4,7.06-25.87-10.95-59.88-12.26-62.31-24.41-12.13-24-83.38-24-86.41V204l.29-.13c4.9-2.22,17.39-4.72,17.91-4.83l.2,1c-.13,0-12.4,2.49-17.4,4.63a288,288,0,0,0,2.7,38.16c3.76,26,11,42.3,20.85,47.1l.14.07.08.13c.2.36,19.83,36.08,12.43,63.19-.16.59-.34,1.17-.52,1.75l-.1.3-.32,0c-.1,0-9.48,1.1-11.89,4.87a3.31,3.31,0,0,0-.39,2.83c1,.4,6.94,2.18,23.47-1.18l.2,1A87,87,0,0,1,294.28,364.91Z" transform="translate(-53.95 -11.5)"/><path class="cls-1" d="M276.13,300.41" transform="translate(-53.95 -11.5)"/><path class="cls-1" d="M295,293.25a12.56,12.56,0,0,1-1.55-.09A14.06,14.06,0,0,1,287.5,291l.58-.82c.36.26,9,6.2,17.14-3.22l.75.65C302.12,292.12,298.08,293.25,295,293.25Z" transform="translate(-53.95 -11.5)"/><path class="cls-1" d="M80.22,346.92c-19.43-13.1-25.36-22.17-25.61-22.55l-.12-.19.06-.22c12.3-44.7,43.58-85.7,93-121.86,45.78-33.51,40-55.81,39.92-56l-2.09-4.22-2.68-.91-3.63-7.36,6.23,1.17.07.32c.27,1.24,1.33,4.57,3,5.18a2.08,2.08,0,0,0,2-.52,7.42,7.42,0,0,1,5.12-1.64,2.43,2.43,0,0,0,.94-.09s.13-.19,0-.9c-.44-3.2,6.85-4.59,8.94-4.92-.22-5.29,3.16-6.47,3.31-6.51l.23-.08,6.86,4.49-.54.84-6.45-4.21c-.67.33-2.71,1.69-2.39,5.86l0,.47-.47.06c-3.44.48-8.8,2-8.54,3.87a2,2,0,0,1-.27,1.68c-.39.45-1,.44-1.69.44a6.48,6.48,0,0,0-4.51,1.44,3,3,0,0,1-3,.66c-2.17-.8-3.25-4.45-3.54-5.58l-3.61-.68,2.56,5.2,2.68.91,2.3,4.67c.3,1,6.18,23.2-40.26,57.2C99,238.88,67.85,279.62,55.58,324c.94,1.34,7.45,10.11,25.2,22.07Z" transform="translate(-53.95 -11.5)"/><path class="cls-1" d="M156.88,242.27a18.43,18.43,0,0,1-6.59-1.24c-8.49-3.27-13.06-12-10.19-19.46s12.13-10.87,20.61-7.6,13.06,12,10.19,19.46h0C168.76,239,163.12,242.27,156.88,242.27Zm-2.77-28.54c-5.83,0-11.09,3.06-13.07,8.2-2.68,6.94,1.63,15.09,9.61,18.17s16.64-.08,19.31-7-1.63-15.09-9.61-18.17A17.31,17.31,0,0,0,154.11,213.73Z" transform="translate(-53.95 -11.5)"/><path class="cls-1" d="M251.71,119.13a5.41,5.41,0,0,1-1.33-.15c-.83-.2-1-.64-1.06-1-.12-1.83,7.31-5.1,11.85-6.93.65-.92,4.53-6.06,9.43-5.08a16.81,16.81,0,0,0,7.72,0c.45-.19,5.23-2.21,7.92-.46A4.34,4.34,0,0,1,288,109.5a3.81,3.81,0,0,1-1.61,3.41c-3,2-9.23-.23-10.75-.82-1.1,1.16-5.72,5.49-11.14,3C263.12,115.73,256,119.13,251.71,119.13Zm-1.38-1.2.29.09c3.78.94,13.56-3.92,13.66-4l.22-.11.22.11c5.57,2.79,10.2-2.64,10.4-2.87l.23-.28.34.14c.07,0,7.24,3,10.14,1A2.84,2.84,0,0,0,287,109.5a3.43,3.43,0,0,0-1.3-3.09c-2.32-1.5-6.95.53-7,.55h0c-.13,0-3.19,1-8.26,0-4.62-.92-8.45,4.73-8.48,4.79l-.09.13-.14,0C256.42,114.07,250.64,116.93,250.33,117.93Z" transform="translate(-53.95 -11.5)"/><path class="cls-1" d="M288.87,87.75c-1.26,0-2-.3-2.33-.92-.82-1.57,2-4.2,2.63-4.71l.19-.16.25.05s4.13.89,6.23-1c1-.93,1.41-2.42,1.16-4.43a4.82,4.82,0,0,1,1.39-4.4c3.09-2.79,10.1-1.39,11.11-1.17.86-.18,5-.93,6.19.84.64.92.38,2.21-.77,4l-.14.14c-.24.16-5.55,3.65-8.89,2.34-.41,1.8-2.43,6.26-12.27,8.72A20.49,20.49,0,0,1,288.87,87.75Zm.78-4.71c-1.33,1.21-2.51,2.78-2.22,3.33.08.16.78.93,5.95-.35C304.87,83.14,305,77.56,305,77.5v-.93l.78.51c2.19,1.47,6.69-.85,8.36-1.94.59-.91,1.17-2.09.73-2.74-.69-1-3.59-.78-5.26-.41l-.11,0-.11,0c-.08,0-7.45-1.68-10.33.91A3.8,3.8,0,0,0,298,76.44c.29,2.35-.21,4.13-1.49,5.29C294.34,83.71,290.66,83.22,289.65,83Z" transform="translate(-53.95 -11.5)"/><path class="cls-1" d="M314,104c-2.57,0-7.14-3-8.55-3.93-1.22.33-6.78,1.73-9.68,0A3.56,3.56,0,0,1,294,97.6l-.08-.4.37-.16a37.17,37.17,0,0,1,8.63-2.41c6.14-.85,10.29.76,12,4.67,1,2.22,1.06,3.63.23,4.31A1.86,1.86,0,0,1,314,104Zm-8.37-5,.19.14c3,2.08,7.73,4.63,8.78,3.75.15-.12.56-.72-.52-3.14-3.41-7.68-16.5-2.89-18.94-1.91a2.53,2.53,0,0,0,1.14,1.38c2.83,1.7,9.05-.13,9.12-.15Z" transform="translate(-53.95 -11.5)"/><path class="cls-1" d="M281.85,53.85l-.7-.7c1.53-1.54,5.33-6,4.49-8.44-.33-.94-1.41-1.51-3.2-1.71-3.19-.36-5.21-1.38-6-3-1-2.2.56-4.63.62-4.73l.17-.25.3,0c.05,0,5.15.48,7-1.77a3.74,3.74,0,0,0,.44-3.59l1-.28a4.7,4.7,0,0,1-.63,4.52C283.41,36.2,279,36.1,277.77,36a4.19,4.19,0,0,0-.4,3.52c.62,1.32,2.36,2.15,5.19,2.46,2.2.25,3.55,1,4,2.38C287.8,47.85,282.1,53.61,281.85,53.85Z" transform="translate(-53.95 -11.5)"/><path class="cls-1" d="M295.89,57.05c-.46,0-.94,0-1.43,0-1.64-.13-3.85-.46-4.08-1.9-.57-3.47,14-9.82,16.93-11.06l.69-.29v.75c0,.24-.05,6-4,9.69A11.52,11.52,0,0,1,295.89,57.05ZM307,45.28c-6.9,3-15.9,7.75-15.58,9.66,0,.19.35.84,3.17,1.06,3.7.29,6.65-.57,8.78-2.54C306.14,50.84,306.8,46.93,307,45.28Z" transform="translate(-53.95 -11.5)"/><path class="cls-1" d="M259.5,50V49a.76.76,0,0,0,.66-.32c.87-1.11.41-4.46,0-6.32a1.11,1.11,0,0,1-.63,0c-.78-.19-1.88-1.22-2.55-7.84-.38-3.85.06-6,1.36-6.63s2.75.55,3.3,1a3.6,3.6,0,0,0,2.62-1.72c1.18-2.16-.23-5.51-.24-5.54l-.06-.14,0-.14c1.3-8.27,2.73-9.37,3.82-9.42,2.22-.08,3.74,5.63,4.16,7.39l-1,.22c-.76-3.22-2.24-6.62-3.14-6.61-.36,0-1.61.67-2.85,8.44.27.71,1.42,3.94.14,6.28A4.69,4.69,0,0,1,261.58,30l-.25.05-.18-.19c-.38-.37-1.63-1.38-2.36-1-.39.19-1.25,1.1-.79,5.63.65,6.49,1.68,6.94,1.79,7s.25-.13.3-.2l.63-.9.27,1.06c.15.61,1.44,6,0,7.92A1.78,1.78,0,0,1,259.5,50Z" transform="translate(-53.95 -11.5)"/><path class="cls-1" d="M237.45,49.16a2.22,2.22,0,0,1-1.74-.73c-2.59-2.9,1.82-13.88,2.33-15.12l.07-.17.17-.09a2.8,2.8,0,0,1,2.69.09c1.08.78,1.43,2.61,1,5.43a12.3,12.3,0,0,0,.47,5.61c.7,2.54.56,3.55-3.83,4.8A4.47,4.47,0,0,1,237.45,49.16Zm1.43-15.28c-1.36,3.36-4.24,11.86-2.42,13.88.13.16.56.64,1.9.26,3.83-1.1,3.7-1.57,3.14-3.57a13.52,13.52,0,0,1-.5-6c.34-2.35.12-3.94-.61-4.48A1.72,1.72,0,0,0,238.88,33.88Z" transform="translate(-53.95 -11.5)"/><path class="cls-1" d="M229,80.26a3.57,3.57,0,0,1-2.05-.59c-1.16-.79-1.81-2.28-1.92-4.44a4.69,4.69,0,0,1-4.16-.41c-1.92-1.39-2.58-4.64-2-9.69a7.4,7.4,0,0,0-4.09,2.68c-1.15,1.65-1.44,3.87-.83,6.58l.07.34-.28.19c-.13.08-3.26,2.14-6.27,1.46a5.34,5.34,0,0,1-3.44-2.62c-3.16-5.28,0-8.58.08-8.61l.11-.09c2.29-1.25,5.85-3.83,5.65-5.43-.11-.86-1.44-1.37-2.53-1.65-.27-.1-2.09-.87-2.11-2.33,0-1.26,1.3-2.44,4-3.61a3.25,3.25,0,0,0,2-2.1c.46-1.75-.63-4.21-3.17-7.11l-.4-.46-.62.43c-2.85-3.8-2.71-3.91-2.3-4.24a.4.4,0,0,1,.45-.13,5.43,5.43,0,0,1,.14-3.37,3.7,3.7,0,0,1,3-2.05c2.63-.44,4.38-.19,5.18.75a1.81,1.81,0,0,1,.42.89,4.3,4.3,0,0,1,3.74-.17c1.41.75,2.16,2.61,2.23,5.52h4.64l.12.07a4.53,4.53,0,0,1,2.13,3.6c.13,3-2.55,6.37-7.95,10.14-.32,1.17-.84,4.07.25,4.87.78.58,2.49.07,4.83-1.45,0-1,.3-4.5,2.21-5.58,1-.55,2.16-.4,3.54.42a4.33,4.33,0,0,1,2.45,3.35c.14,2.07-1.67,3.84-2.24,4.33-.18,1.66-.35,5.62.77,6.89a1,1,0,0,0,.76.36h.17l.13.1c.23.17,2.25,1.74,1.95,3.24-.16.78-.88,1.33-2.13,1.64l-.22.06c.68,1.24,1.76,3.65,1.24,5.63A3.48,3.48,0,0,1,230.72,80,5,5,0,0,1,229,80.26Zm-3-6.56v.8c0,2.21.5,3.67,1.5,4.34a3.38,3.38,0,0,0,2.81.2,2.48,2.48,0,0,0,1.36-1.63c.47-1.76-.7-4.1-1.28-5.12-1.13.26-1.33.2-1.45-.22s.3-.68,1.4-1l.36-.13.16.24.52-.12c.47-.12,1.29-.4,1.39-.88.13-.65-.86-1.67-1.45-2.15A2,2,0,0,1,230,67.3c-1.68-1.9-1.06-7.26-1-7.86l0-.2.16-.13s2.15-1.76,2-3.62a3.45,3.45,0,0,0-2-2.56,2.52,2.52,0,0,0-2.52-.41c-1.41.8-1.72,3.87-1.72,5v.27l-.22.15c-2.95,2-5,2.47-6.2,1.57-1.91-1.42-.7-5.66-.56-6.13l0-.17.15-.1c6.47-4.48,7.74-7.58,7.66-9.38A3.53,3.53,0,0,0,224.35,41H219v-.5c0-2.76-.59-4.54-1.71-5.14-1.46-.78-3.49.54-3.51.56l-1.21.8.45-1.37a1,1,0,0,0-.19-.94c-.32-.37-1.29-.91-4.25-.42a2.75,2.75,0,0,0-2.28,1.48c-.54,1.19-.14,2.87.4,4.26.52.56,1.22,1.35,2.18,2.44,2.81,3.22,4,5.92,3.37,8A4.2,4.2,0,0,1,209.66,53c-3.07,1.32-3.39,2.3-3.39,2.67,0,.68,1,1.25,1.42,1.4,2,.48,3.06,1.32,3.21,2.47.35,2.71-5.16,5.88-6.09,6.39-.35.39-2.47,3,.12,7.34a4.34,4.34,0,0,0,2.8,2.16c2.12.48,4.42-.69,5.21-1.14-.57-2.85-.21-5.22,1.07-7A8.5,8.5,0,0,1,219.44,64l.65-.08-.09.65c-.9,6.28.28,8.6,1.44,9.43,1.58,1.15,3.81.06,3.84,0Z" transform="translate(-53.95 -11.5)"/><path class="cls-1" d="M226.87,130.83l-.74-.66C227.2,129,252.46,101,268.5,101v1C252.9,102,227.13,130.55,226.87,130.83Z" transform="translate(-53.95 -11.5)"/><path class="cls-1" d="M212.6,112.05a.64.64,0,0,1-.45-.2l.7-.7a.37.37,0,0,0-.26-.1.32.32,0,0,0-.22.09,9.29,9.29,0,0,0,.59-1.49c1.11-3.2,3.67-10.58,11-8.8.06-2.31.5-10,3.5-11.82a3.15,3.15,0,0,1,3.21,0c2.34,1.17,4.21,1.32,5.55.43,3.11-2.06,2.73-8.88,2.73-9,0-.4-.95-10.27,5.12-17.36,2.56-3,4.55-4.23,6.1-3.83A2.73,2.73,0,0,1,252,61.4l-1,.2s-.24-1.08-1-1.29c-.64-.17-2.13.08-5.08,3.52C239.09,70.58,240,80.35,240,80.45c0,.32.41,7.49-3.18,9.86-1.66,1.1-3.86,1-6.54-.36a2.18,2.18,0,0,0-2.24-.07c-2.49,1.54-3,8.91-3,11.62v.67l-.64-.19c-7-2.09-9.23,4.48-10.45,8-.48,1.37-.68,1.94-1.17,2.06Z" transform="translate(-53.95 -11.5)"/><rect class="cls-1" x="162.48" y="244.44" width="13.75" height="1" transform="translate(-73.48 3.22) rotate(-4.71)"/><path class="cls-1" d="M73.45,298.65c-1.16-1.47-4.67-5.11-7-4.37l-.31-.95c3.49-1.1,7.92,4.46,8.1,4.7Z" transform="translate(-53.95 -11.5)"/><path class="cls-1" d="M93.26,324.94c-.13-.07-13.25-7.31-19.89-26.43l.94-.33c6.51,18.73,19.3,25.81,19.43,25.88Z" transform="translate(-53.95 -11.5)"/><path class="cls-1" d="M91.83,272.76c-.31-.16-7.58-3.87-9.52-6.49l.81-.59c1.79,2.42,9.09,6.15,9.16,6.19Z" transform="translate(-53.95 -11.5)"/><path class="cls-1" d="M122.23,279.92c-.14-.09-14-8.89-30.12-7.11l-.11-1c16.43-1.81,30.63,7.17,30.77,7.26Z" transform="translate(-53.95 -11.5)"/><path class="cls-1" d="M217.06,154.3c-2.53-1.77-4.88-2.77-5.21-2.45L210.69,153l.32-1.62c.25-1.26.44-3.52-.14-4.22a.42.42,0,0,0-.37-.18,3.86,3.86,0,0,0-2.65.86l-.14.14h-.21c-2,0-4.35-.25-4.49-1.39a9.14,9.14,0,0,0-3.39.37l-.27.07-2.12-2.11-3.08-1-2.28-4.55.9-.45,2.08,4.18,2.92,1,1.89,1.89c1.13-.27,3.29-.67,4-.1a.8.8,0,0,1,.32.65,8.58,8.58,0,0,0,3.32.5,5.08,5.08,0,0,1,3.18-1,1.46,1.46,0,0,1,1.15.54c.79,1,.63,3.12.47,4.29,1.61,0,4.26,1.77,5.51,2.65Z" transform="translate(-53.95 -11.5)"/><path class="cls-1" d="M200.28,118.43l-2.2-6.6c-.77-.47-3.93-2.56-4.28-5.22a4,4,0,0,1,1.35-3.46c1-1,1.88-1.29,2.74-1,2.21.79,2.93,5.77,3.08,7a5.31,5.31,0,0,1,2.22,3.48c.21,1.67-.58,3.41-2.34,5.16Zm-3-15.37a2.2,2.2,0,0,0-1.41.79,3.06,3.06,0,0,0-1.06,2.63c.33,2.49,3.92,4.57,4,4.59l.16.09,1.8,5.38a4.89,4.89,0,0,0,1.49-3.72,4.41,4.41,0,0,0-2-2.89l-.21-.13,0-.25c-.22-2.23-1.08-6-2.45-6.44A.71.71,0,0,0,197.26,103.06Z" transform="translate(-53.95 -11.5)"/><path class="cls-1" d="M188.93,107.06l-.49-.06c-.35,0-8.44-1.11-8.44-5.5v-.36l.34-.11c.19-.07,4.72-1.55,7.21.49,1.25,1,1.74,2.72,1.45,5Zm-7.9-5.19c.4,2.46,4.77,3.69,7,4.06a4,4,0,0,0-1.14-3.64C185.22,100.9,182.1,101.58,181,101.87Z" transform="translate(-53.95 -11.5)"/><path class="cls-1" d="M209,106.66l-.94-.32c.05-.16,5.42-16.49,1.67-22.94A4.72,4.72,0,0,0,206.4,81l.2-1a5.74,5.74,0,0,1,4,2.89C214.54,89.74,209.2,106,209,106.66Z" transform="translate(-53.95 -11.5)"/><path class="cls-1" d="M290.7,66l-.4-.92c.95-.41,23.23-10,30.27-9l-.14,1C313.64,56,290.93,65.86,290.7,66Z" transform="translate(-53.95 -11.5)"/></svg>