<svg id="Layer_1" data-name="Layer 1" xmlns="http://www.w3.org/2000/svg" viewBox="0 0 152.6 232.61"><defs><style>.cls-1{fill:none;stroke:#fff;stroke-linejoin:round;stroke-width:4px;}</style></defs><title>highball</title><path class="cls-1" d="M239,102.45V280.5s-34.6,16.88-77.63,0v-178S205.26,107.51,239,102.45Z" transform="translate(-120.98 -57.39)"/><path class="cls-1" d="M239,121s-43.88,9.23-77.63,0" transform="translate(-120.98 -57.39)"/><path class="cls-1" d="M200.5,99.48s1.13-35.55,40.67-31.17c42,4.66,28.26,47.3,28.26,47.3S264.94,134.38,239,139" transform="translate(-120.98 -57.39)"/><path class="cls-1" d="M161.38,102.45c14.27-2.63,30.89-2.92,44.93-2.43,17.5.61,31,2.43,31,2.43l8.44-22.79" transform="translate(-120.98 -57.39)"/><path class="cls-1" d="M206.1,99.92s-1.69-5.91,5.07-7.6c0,0-.85-14.34,13.5-11.81,0,0,8.44-14.35,21.09-.85,0,0,13.5-2.53,12.66,10.13,0,0,13.5,5.06,5.06,17.72,0,0,4.22,12.66-8.43,15.19,0,0,.84,4.22-6.76,5.06,0,0-1.68,5.89-9.28,3" transform="translate(-120.98 -57.39)"/><line class="cls-1" x1="117.19" y1="45.05" x2="137.44" y2="32.4"/><line class="cls-1" x1="118.03" y1="46.74" x2="141.66" y2="50.12"/><line class="cls-1" x1="118.03" y1="50.96" x2="133.22" y2="64.46"/><line class="cls-1" x1="115.5" y1="44.21" x2="103.68" y2="23.11"/><line class="cls-1" x1="112.97" y1="44.21" x2="90.18" y2="34.93"/><path class="cls-1" d="M239,266.08s-35.44,16.49-77.63-1" transform="translate(-120.98 -57.39)"/><path class="cls-1" d="M199.35,195.27,176.15,72.68,124.88,59.39l-1.9,5.7,48,12.59L192.6,197Z" transform="translate(-120.98 -57.39)"/></svg>