<svg id="Layer_2" data-name="Layer 2" xmlns="http://www.w3.org/2000/svg" viewBox="0 0 269.05 312.81"><defs><style>.cls-1{fill:#fff;stroke:#fff;stroke-miterlimit:10;stroke-width:0.75px;}</style></defs><title>joe&amp;amp;cathy</title><path class="cls-1" d="M179.08,139.84l-.23-.2c-.48-.41-11.59-10.15-13-11.59l-.08-.08-1.48-4.45.16,0-.47-.16a13.94,13.94,0,0,1-5.39-4l-.08-.11L157,109l-4.35-14.49,1.46-8.79V83.1l-3-3,.23-.34c2.26-3.39,1.75-5.78,1.5-6.51-7.07-1.21-11.69-3.54-13.71-6.9a6.82,6.82,0,0,1-.91-5.06,4.44,4.44,0,0,1-.14-4c1.39-2.72,5.69-3.59,6.3-3.7L170.3,42c13-5.79,26.25-1.51,26.38-1.46a40.24,40.24,0,0,1,18.94,7.31c3.73,3.72,4.38,6.44,4.5,7.32,1.69,1.18,1,4.74.31,8.19-.36,1.83-.86,4.33-.43,4.76,1.58,1.58-1.7,7.4-2.79,9.23-1.76,5.29-3.36,11.19-3.14,12.33a.7.7,0,0,1,.39.26c.41.53.17,1.53-.37,3.57-.42,1.61-1.07,4-.57,4.68,0,.07.13.13.34.13a2,2,0,0,0,.72-.1.91.91,0,0,1,.32-.39l.3-.18.59.44-.12.42a.84.84,0,0,1-.23.35,11.94,11.94,0,0,0,.36,4.2c.52,2.6.29,4.18-.71,4.83s-2.29.1-3.06-.32a7.45,7.45,0,0,1-3.06,4.67,6.3,6.3,0,0,1-4.07.89l-1.37,11c.07.68.3,5.56-6.82,8.41ZM166.6,127.43c1.59,1.54,11.05,9.83,12.67,11.25l17.06-7.11c6.75-2.7,6.22-7.22,6.2-7.42V124L204,111.91l.55.13a5.49,5.49,0,0,0,3.86-.68,6.9,6.9,0,0,0,2.76-4.72l.15-.75.63.45c.44.31,1.87,1.12,2.55.68.35-.22.84-1,.28-3.79a17.11,17.11,0,0,1-.44-4,3.94,3.94,0,0,1-.52,0,1.35,1.35,0,0,1-1.13-.52c-.8-1-.19-3.33.39-5.55a13.5,13.5,0,0,0,.55-2.62.77.77,0,0,1-.39-.28c-.9-1.25,1.8-9.76,3-13.36l.05-.1c2-3.33,3.66-7.37,3-8.06s-.46-2.56.15-5.66c.55-2.78,1.3-6.6,0-7.26l-.28-.14v-.31s-.09-2.77-4.18-6.87a40.55,40.55,0,0,0-18.5-7.08c-.23-.07-13.08-4.23-25.75,1.4l-26.14,11.6s-4.41.77-5.64,3.19a3.61,3.61,0,0,0,.22,3.32l.1.19-.07.19a5.74,5.74,0,0,0,.78,4.46c1.31,2.15,4.68,5,13.28,6.45l.25,0,.12.22c.06.13,1.46,3-1.26,7.39l2.76,2.75v3.1l-1.44,8.63L158,108.77l1.44,10a13,13,0,0,0,4.87,3.55,7.8,7.8,0,0,0,.86.26,5.85,5.85,0,0,0,5-1.11l.15-.08,12.94-4.31,14.39-10.07.57.82-14.58,10.18-12.93,4.31a6.83,6.83,0,0,1-5.38,1.33Zm48.91-28.86Z" transform="translate(-68.41 -38.56)"/><path class="cls-1" d="M192,64.58c-.26-.09-26-8.61-33-7.21-6.65.56-17.48,2.15-18.44,4.07l-.89-.45c1.49-3,16.25-4.36,19.19-4.61,7.21-1.45,32.37,6.9,33.44,7.25Z" transform="translate(-68.41 -38.56)"/><path class="cls-1" d="M201,99.28l-.25-1c.12,0,11.28-2.9,12.64-9.73.81-4.06.67-9-1.55-10.16-1.29-.69-3.93-.41-9.17,4.83l-.7-.71c4.55-4.55,8-6.23,10.34-5,2.87,1.54,2.91,7,2.06,11.23C212.86,96.23,201.46,99.16,201,99.28Z" transform="translate(-68.41 -38.56)"/><path class="cls-1" d="M208.31,78.51l-4.83-3.86c-7.44-3.73-9.66-7.47-10.19-8.6a103.61,103.61,0,0,1-25.82-4.36c-14.05-4.21-26.91,4.19-27,4.28l-.55-.83c.13-.09,13.37-8.75,27.88-4.4a100.91,100.91,0,0,0,25.87,4.31H194l.11.34s1.54,4.22,9.87,8.39l.09,0,4.88,3.9Z" transform="translate(-68.41 -38.56)"/><path class="cls-1" d="M80,350.28H79v-7.35l1.34-2.67L79,339l-1.5-9,3.62-4.82-5,1.24-1.46-16.07c-2.94-.6-5.49-6.76-5.78-7.49l-.07-.16,4.37-14.55V275.12l-1.44-10.05v-5.85c-.69-6.25-.16-10.16,1.58-11.58a2.31,2.31,0,0,1,1.31-.52l0-15.52c.19-.54,18.81-53.62,21.66-69.3,2.9-16,18.88-24.83,19-24.92,1.21-.73,7.41-4.4,8.91-4.4,1,0,7.39-1.72,11.43-2.87l14.22-2.85c1.83-4.36,11.62-5.92,12-6l.15,1c-.1,0-10,1.6-11.35,5.6l-.09.27-14.73,3c-1,.29-10.19,2.9-11.67,2.9-1,0-5.66,2.62-8.41,4.27-.17.09-15.74,8.75-18.55,24.23s-20.85,67-21.68,69.37v16.5l-.65-.22a1.22,1.22,0,0,0-1,.31c-.82.68-2,3-1.19,10.73V265l1.44,10.05V288.2l-4.31,14.36c1.1,2.68,3.43,6.75,5.25,6.75h.46L77,325.08l6.59-1.64-5.06,6.73,1.39,8.3,1.58,1.59L80,343.17Z" transform="translate(-68.41 -38.56)"/><path class="cls-1" d="M198,158.55c-1.45,0-13.3-7.45-17.35-10a5.56,5.56,0,0,1-4.33,1.07,3,3,0,0,1-1.55-1c-7.34,5.45-18.34,2.79-18.81,2.67l-.38-.09v-.4c0-2.94.15-17.72,3.17-19.23s13.27,6.29,16.09,8.46a3.25,3.25,0,0,1,2.46-.82,5.68,5.68,0,0,1,3.44,2.2c3.86-2.75,17.5-2.61,20.37-1.17,2.23,1.11.92,7.8.25,10.62C200.91,152.68,199.41,158.55,198,158.55Zm-17.35-11.21.27.17c5.89,3.75,15.58,9.7,17,10,1-.88,3.65-9.62,3.41-14.29-.06-1.15-.3-1.91-.68-2.1-3-1.48-17-1.26-19.65,1.36l-.44.43-.33-.51s-1.39-2-3-2.21a2.42,2.42,0,0,0-2,.84l-.31.31-.35-.27c-4.93-3.83-13.46-9.57-15.36-8.62s-2.59,11.33-2.62,17.94c2,.43,11.75,2.1,18-2.88l.48-.38.28.55a2,2,0,0,0,1.27.93c1,.26,2.3-.13,3.78-1.12Z" transform="translate(-68.41 -38.56)"/><path class="cls-1" d="M173.4,168.67c-7.49,0-13.75-16.39-14-17.08l.93-.36c.06.17,6.28,16.44,13.08,16.44s18-13,18.13-13.1l.77.65C191.83,155.77,180.77,168.67,173.4,168.67Z" transform="translate(-68.41 -38.56)"/><path class="cls-1" d="M202.18,142.94l-.7-.71c.06-.06,6-6,3.26-11.42l0-.12-1.44-7.23,1-.19,1.43,7.16C208.61,136.44,202.45,142.68,202.18,142.94Z" transform="translate(-68.41 -38.56)"/><polygon class="cls-1" points="89.14 95.06 87.07 92.08 90.99 83.43 91.9 83.85 88.22 91.97 89.96 94.5 89.14 95.06"/><path class="cls-1" d="M210.49,270.91c-.24-.93-1.12-3.48-2.41-4.07a1.32,1.32,0,0,0-1.22.06c-.4.2-1,.5-1.32,0s-.47-.74,5.12-5.21c0,0,5.65-5.72,7.05-12.71l2.85-10c-.42-1.16-2.64-8,0-17.43v-5.85l7.29-13.12,13-40.38,1,.31-13,40.47-7.2,13,0,5.79c-2.8,9.82,0,16.95,0,17l.07.16-2.94,10.28c-1.45,7.26-7.11,13-7.35,13.23-1.42,1.13-2.9,2.37-3.86,3.25a2.22,2.22,0,0,1,1,.21c2,.91,2.92,4.58,3,4.73Z" transform="translate(-68.41 -38.56)"/><path class="cls-1" d="M208.58,321.37h-1v-5.71c-.27-1-2.85-10.39-1.42-14.68l1,.31c-1.38,4.14,1.42,14.06,1.45,14.16l0,.14Z" transform="translate(-68.41 -38.56)"/><path class="cls-1" d="M217.72,350.4c-1.71-6.48-6.89-23.71-10.31-25.56a.72.72,0,0,0-.62-.1l-.93.31,1.75-5.47.95.3-1.23,3.86a2,2,0,0,1,.56.22c4.5,2.43,10.54,25.22,10.79,26.19Z" transform="translate(-68.41 -38.56)"/><path class="cls-1" d="M249.51,174.06c-1.7-7.62-4.3-11.17-8.19-11.17H241l-1.52-4.57-5.55-5.55h-1.38l-16-10.2-4.46-3-.06-.12c-1.18-2.29-3.61-6-5.1-6.3a.64.64,0,0,0-.58.16l-.67-.75a1.63,1.63,0,0,1,1.43-.39c2.35.44,5.21,5.68,5.75,6.71l4.23,2.82,15.77,10h1.5l6,6,1.37,4.12c4.22.2,7,4,8.79,11.94Z" transform="translate(-68.41 -38.56)"/><path class="cls-1" d="M252.89,215.86" transform="translate(-68.41 -38.56)"/><rect class="cls-1" x="240.65" y="279.68" width="20.13" height="1" transform="translate(-169.23 374.95) rotate(-68.95)"/><path class="cls-1" d="M244.94,300.41" transform="translate(-68.41 -38.56)"/><path class="cls-1" d="M222.31,351h-1c0-2.75,4.84-15.06,5.7-17.22l-3.15-3.15,3.45-1.73L241,316.66l.67.75-13.84,12.36-2.27,1.13,2.63,2.64-.12.3C226.46,337.84,222.31,348.71,222.31,351Z" transform="translate(-68.41 -38.56)"/><path class="cls-1" d="M83.56,324.71a1.53,1.53,0,0,1-1-1.32c-.07-2,4.16-4.67,5.19-5.3l7.34-8.67.76.64-7.51,8.85c-2,1.2-4.82,3.38-4.78,4.44,0,.07,0,.27.41.46Z" transform="translate(-68.41 -38.56)"/><path class="cls-1" d="M75.61,309.81h-1a2,2,0,0,1,.69-1.47c3.31-3.08,19.4-2,20.08-1.92l-.07,1c-4.53-.33-16.84-.66-19.33,1.65A1,1,0,0,0,75.61,309.81Z" transform="translate(-68.41 -38.56)"/><path class="cls-1" d="M225.22,330.5l-18.64-8.61c-3.32.66-43.36,8.43-52.15,2.86-6.34-.66-56.65-6.06-59.55-13.31l0-.12v-.12l2.88-27.35c-2.66-8.3,4.58-23.71,5.71-26-4-5.83,2.28-16.4,3-17.56l2.86-18.56c-2.22-5.75.73-12.21,2.89-16.94.62-1.37,1.16-2.55,1.48-3.51.48-1.43.51-2.51.08-3.12a1.41,1.41,0,0,0-1-.56H112l.17-.62,2.78-9.72c-9.77-5.34-2.51-46.28-2.2-48.05l1,.18c-.08.43-7.64,43,2,47.15l.4.17-2.86,10a2.34,2.34,0,0,1,1.22.86c.64.89.67,2.24.07,4-.34,1-.89,2.21-1.52,3.61-2.1,4.6-5,10.89-2.82,16.28l0,.13-3,19.11c-.07.11-7,11.34-2.91,16.78l.19.24-.14.28c-.09.17-8.55,17.26-5.76,25.63l0,.11v.11l-2.88,27.32c2.74,5.66,43.3,11,58.8,12.59l.12,0,.1.07c8.4,5.6,51.23-2.88,51.66-3l.16,0,18.94,8.74Z" transform="translate(-68.41 -38.56)"/><path class="cls-1" d="M147.46,71.79l-.44-.9a20.18,20.18,0,0,0,3.29-2h0c-3.16,0-4.72-3-4.78-3.17l-.37-.72h6.44l8-5.46.57.82-8.27,5.64h-5a4.38,4.38,0,0,0,3.41,1.89c.31,0,1.13,0,1.28.64C151.62,68.87,151.8,69.66,147.46,71.79Z" transform="translate(-68.41 -38.56)"/><path class="cls-1" d="M195.07,93.51h-.54l.05-.54c.48-5.29.69-13.7-.69-15.21-.13-.15-.22-.15-.26-.15h-.31L192,75c-1.55,1-6.47,3.9-11.5,2.64-5.43-1.36-13.18-6.36-14.44-7.19l-8.48,1.42h-2.77l-1.3,1.3-.7-.71,1.59-1.59h3.1l8.78-1.47.17.11c.08.06,8.66,5.75,14.29,7.16s11.09-2.77,11.14-2.81l.48-.36,1.6,3.2a1.38,1.38,0,0,1,.67.43c1.92,2.1,1.23,12.41,1,15.33a4.51,4.51,0,0,0,2-1.21,3.12,3.12,0,0,0,.26-.27,4.83,4.83,0,0,1-.35-.59l-.36-.73H198a1.13,1.13,0,0,1,1.07.6.92.92,0,0,1,0,.59,2.28,2.28,0,0,0,1.6.62l-.19-.27c-1.65-2.57-2.85-12.08-1.65-13a.67.67,0,0,1,.93.1,9.39,9.39,0,0,1,.83,1c.76,1,1,1.33,2.93.39l.45.89c-2.45,1.23-3.21.57-4.17-.66-.13-.17-.26-.34-.41-.52-.3,2.09.56,9.93,2.18,11.66.23.25.36.25.45.21l.06,0,.44.89h0l-.07,0a4.62,4.62,0,0,1-1.78.38,3.28,3.28,0,0,1-2.13-.75,2.61,2.61,0,0,1-.22.24A5,5,0,0,1,195.07,93.51Z" transform="translate(-68.41 -38.56)"/><polygon class="cls-1" points="137.28 73.31 136.29 73.17 137.74 63.05 139.74 56.66 140.69 56.96 138.71 63.27 137.28 73.31"/><polygon class="cls-1" points="182.54 109.43 181.08 97.77 185.45 83.21 188.34 74.52 195.73 59.73 198.43 59.73 198.43 57.16 212.06 41.12 212.82 41.76 199.43 57.52 199.43 60.73 196.35 60.73 189.26 74.91 186.4 83.51 182.1 97.85 183.53 109.31 182.54 109.43"/><path class="cls-1" d="M241.72,122.22l-.8-.6,8.43-11.23a4.24,4.24,0,0,1-1.07-3.52c.72-5,9.64-10.31,11.33-11.26v-4h1V96.2l-.26.14c-.1.06-10.37,5.71-11.08,10.67a3.36,3.36,0,0,0,1.08,3l.31.31Z" transform="translate(-68.41 -38.56)"/><rect class="cls-1" x="247.6" y="104.07" width="16.35" height="1" transform="translate(-67.44 172.93) rotate(-45)"/><path class="cls-1" d="M296.48,208l-.52-.36-39-27.46-8.63-8.42,4.13-9.53.92.4-3.86,8.89,8.08,7.89,38.44,27c1.92-4.91,4.09-11.89,3.27-13.11a.13.13,0,0,0-.14-.07c-3,0-40.79-26-45.09-29l-.22-.14V151l-2.74-2.74L242.3,138l-1.47-7.35v-8.56l-5.72-5.73,0-.13c-4.46-16.36,18-31.06,22-32.4a2.44,2.44,0,0,1,2.5.32c1.64,1.41,1.33,5.33,1.13,6.88h5.2s2.73-.21,6.8-7c2.11-3.52,3.82-5.21,5.3-5.15a1.68,1.68,0,0,1,1.17.57h4.08c14.44,0,27.61,8.67,27.74,8.76l.15.1.05.17c2.29,7.64.75,12.69-.95,15.58a13.55,13.55,0,0,1-3.46,3.93,1.39,1.39,0,0,1,.35.39c1,1.61-.82,5.34-1,5.76l-.28.56-.49-.39c-.07-.07-7.71-6.24-11.69-3.59-4.14,2.76-14.18.57-16,.14l-5.71,5.67-5.56,2.78c-.26,1.5-1.68,9-4.33,14.34-1.15,2.29-2.25,3.36-3.34,3.28-1.28-.09-1.86-1.71-1.92-1.9-1.32-5.28-4.7-4.58-4.74-4.58l-.22-1c.05,0,4.37-.91,5.92,5.28.09.26.5,1.14,1,1.18.29,0,1.1-.21,2.36-2.73,2.83-5.65,4.28-14.23,4.29-14.31l0-.26,5.94-3,5.92-5.93.28.07c.11,0,11.39,2.81,15.5.07s10.51,1.84,12.37,3.25c.67-1.5,1.27-3.52.82-4.23-.07-.12-.21-.27-.63-.27h-2l1.73-.94c.37-.2,8.91-5,4.87-18.75-1.48-1-13.72-8.5-27-8.5h-4.65l-.13-.27a.65.65,0,0,0-.53-.3h0c-.48,0-1.85.47-4.37,4.67-4.36,7.26-7.33,7.47-7.66,7.47h-6.37l.1-.59c.24-1.44.58-5.42-.71-6.53a1.53,1.53,0,0,0-1.53-.14c-3.89,1.3-25.52,15.41-21.39,31.07l5.83,5.83v8.88l1.41,7,8.59,10,3,3v12.95c16.75,11.54,42.21,28.6,44.31,28.67a1.15,1.15,0,0,1,1,.51c1.47,2.17-2.57,12.57-3.4,14.63Z" transform="translate(-68.41 -38.56)"/><path class="cls-1" d="M294.58,174.3A14.21,14.21,0,0,1,288.8,173c-.7-.21-18.89-5.84-23.26-10.21s-7.23-14.25-7.35-14.67l1-.27c0,.1,2.9,10,7.1,14.23S289,172,289.17,172s5.54,2.69,9.56.14l2.83-7.08L305.9,155a28,28,0,0,0,1.43-18.45l0-.1v-.1c0-.17,2.19-16.74-1.08-20.47a1.67,1.67,0,0,0-1.31-.65v-1a2.65,2.65,0,0,1,2.06,1c3.46,3.95,1.54,19.59,1.34,21.15a28.54,28.54,0,0,1-1.51,19l-4.32,10.09-2.95,7.36-.13.09A8.6,8.6,0,0,1,294.58,174.3Z" transform="translate(-68.41 -38.56)"/><rect class="cls-1" x="254.16" y="149.6" width="3.23" height="1" transform="translate(-108.53 91.67) rotate(-26.57)"/><path class="cls-1" d="M288.56,187.21a21.46,21.46,0,0,1-.67-12.64,18.58,18.58,0,0,1,.66-2.25l.94.37a15.22,15.22,0,0,0-.63,2.11,20.53,20.53,0,0,0,.62,12Z" transform="translate(-68.41 -38.56)"/><path class="cls-1" d="M326.6,329.1c-.41-.05-34.75-4.34-37.58-4.34v-1c2.89,0,36.22,4.16,37.64,4.34a7.16,7.16,0,0,0,4.53-1.34c2.6-2.06,2.24-6,2.15-6.65l-2.9-4.44L329,306.82l.1-.16s2.14-3.63,1.29-6.57a4.6,4.6,0,0,0-2.53-2.84l-.28-.14v-.31c0-.94.1-9.17,3.39-9.17.08,0,.25,0,.28-.08.34-.7-1.56-3.84-3.56-6.34l-.2-.25,3.09-6.17.1-.08c5.95-4.24,2.31-11.26-.35-16.38-1.41-2.73-2.44-4.71-1.94-5.93a1.52,1.52,0,0,1,1-.88c3.24-1.08,2.94-9.37,2.55-12.47l0-.32.28-.17c6.81-4.08,2.72-16.63,2.67-16.76l0-.1v-.11c0-.16,1.72-15.2-3.73-20.67a6.74,6.74,0,0,0-5.83-1.9l-.18,0-13.16-8.78-23.13-15.9.56-.82,23.13,15.9L325.28,198a7.69,7.69,0,0,1,6.47,2.21c5.59,5.63,4.2,19.87,4,21.38.43,1.35,4,13.19-2.87,17.66.21,1.94,1,11.79-3.26,13.22a.56.56,0,0,0-.38.3c-.32.8.76,2.89,1.91,5.1,2.65,5.11,6.66,12.83.15,17.58l-2.7,5.39c1.23,1.57,4.22,5.62,3.49,7.15a1.22,1.22,0,0,1-1.19.64c-1.74,0-2.34,5.11-2.39,7.87a5.51,5.51,0,0,1,2.77,3.32c.87,3-.86,6.4-1.3,7.19l1.4,8.39,2.91,4.44c0,.21.8,5.09-2.51,7.71A8.2,8.2,0,0,1,326.6,329.1Z" transform="translate(-68.41 -38.56)"/><path class="cls-1" d="M212.42,307.42c-7.58,0-10.5-22.6-10.62-23.56l-.07-.57h2.49a3.76,3.76,0,0,1-.34-1.71c.14-5.19,9.2-13.76,10.85-15.28l-1.49-4.48.44-.17c1.32-.53,4.9-2.28,5.55-4a1.25,1.25,0,0,0,0-1.07c-1.51-3,7.69-10.25,10.06-12v-4.33l7.06-5.64c-2.17-4.29,3.7-24.69,4.5-27.43l0-11.67,8.67-22.95.93.35-8.64,22.87,0,11.61c-2.76,9.39-6.41,25-4.46,27l.4.39-7.48,6V245l-.2.15c-4.66,3.5-10.84,9.2-10,10.94a2.24,2.24,0,0,1,.08,1.88c-.8,2.09-4.42,3.84-5.69,4.4l1.41,4.21-.25.22c-.1.1-10.62,9.63-10.76,14.79a2.39,2.39,0,0,0,.66,1.83l.86.85h-3.53c.9,6.67,4.14,22.13,9.55,22.13a74.28,74.28,0,0,0,11.13-1.33c7.24-1.26,14.7-3,14.77-3,.44-.06,9.62-1.48,9.73-9.48-.88-1.42-5.76-9.51-4.92-12.51A1.69,1.69,0,0,1,244,279c2.79-1.39,11.35-9.94,11.43-10l.76-.76.1,1.06c.39,4.34,2.14,15.82,5.44,16.92l.54.18-.25.52s-1.27,2.58-.1,3.76a1.6,1.6,0,0,1,.53,1.45,3.38,3.38,0,0,1-1.67,2l1.6,3.19h-.81s-3.84,0-3.84,2.39v.21l-1.59,1.59-.71-.71,1.31-1.3c.14-2.14,2.38-3,4-3.13l-1.33-2.66.45-.23c.56-.28,1.48-.93,1.57-1.5a.67.67,0,0,0-.25-.59c-1.31-1.31-.68-3.48-.3-4.44-3.64-2.07-5.12-12.86-5.52-16.5-2.19,2.15-8.49,8.25-10.95,9.47a.65.65,0,0,0-.34.47c-.64,2.28,3.3,9.31,4.87,11.83l.08.12v.14c0,9-10.44,10.6-10.55,10.62s-7.52,1.73-14.77,3A75.5,75.5,0,0,1,212.42,307.42Z" transform="translate(-68.41 -38.56)"/><path class="cls-1" d="M245.18,350.41c-.3-1.08-7.23-26.49,3.17-30.94l.4.92c-9.6,4.11-2.68,29.5-2.61,29.75Z" transform="translate(-68.41 -38.56)"/><rect class="cls-1" x="318.63" y="338.21" width="23.17" height="1" transform="translate(-96.89 608.55) rotate(-86.42)"/><path class="cls-1" d="M269.37,309.18l-.79-.36c-.06,0-5.51-2.54-10.7-5.57-7.29-4.24-10.5-7.32-9.8-9.43l.95.31c-.93,2.81,11,9.54,19.17,13.41l-1.37-13.67L268.3,288l1,.24-1.42,5.7Z" transform="translate(-68.41 -38.56)"/><path class="cls-1" d="M278.51,328a8.45,8.45,0,0,1-2.66-.41c-.09,0-14.31-3.11-27.73-7.42-17-5.46-25.26-10.44-24.63-14.81l1,.14c-.53,3.71,8,8.58,23.94,13.71,13.38,4.3,27.56,7.38,27.7,7.41,8.33,2.77,22.52-11.28,22.66-11.42l.1-.1.13,0c16.93-4.46,18.78-7.05,18.79-8,0-.59-.95-1-1.36-1.16l-17.22,2.87-.21-1c17.69-4.66,21.21-8.61,21.74-10.55a1.87,1.87,0,0,0-.13-1.39l-24.23,7.12-.35-.94,13-5.78c9.45-2.37,10.52-4.11,10.54-4.76s-1.09-1.26-1.72-1.5L305,291.51l-13.67,5.12,7.5-7.49,4.36-1.46,6-4.83H300.7L295,285.69l-11.6,8.68-7.65,3.07-3.15-6.3v-3h1v2.77l2.63,5.27,6.74-2.7,11.51-8.63,6-3h11.66l-8.49,6.75L299.41,290l-4.07,4.07,9.52-3.56L318,289.07l.1,0c.27.09,2.57.9,2.51,2.52,0,1.24-1.26,3.18-11.21,5.67L303.32,300,321,294.79l.21.21a2.72,2.72,0,0,1,.54,2.59c-.8,3-5.78,6-14.54,8.93l9.34-1.56.11,0c.09,0,2.2.65,2.18,2.17,0,.93,0,3.77-19.41,8.88C298.14,317.28,287,328,278.51,328Z" transform="translate(-68.41 -38.56)"/><path class="cls-1" d="M273.29,288.5a53.69,53.69,0,0,1-11.85-1.33l.24-1c.17,0,17.28,4.2,28.52-2.83l.19-.07,10.12-1.45L329.44,279l.1,1-28.91,2.89-10,1.43C285.28,287.59,278.79,288.5,273.29,288.5Z" transform="translate(-68.41 -38.56)"/><path class="cls-1" d="M256.13,269.69l-.71-.7,8.68-8.68,13.16-11.66c9.73-4.17,11.25-15.39,11.26-15.51l1,.13c0,.12-1.6,11.84-11.79,16.26l-13,11.51Z" transform="translate(-68.41 -38.56)"/><path class="cls-1" d="M333.32,218.75s-.35-.94-3.83-.94c-4.39,0-12.63-8.09-13.33-8.78l-17-11.21.55-.84,17.08,11.3c.09.09,8.58,8.53,12.66,8.53,4.6,0,4.83,1.62,4.83,1.94Z" transform="translate(-68.41 -38.56)"/></svg>