<svg id="Layer_1" data-name="Layer 1" xmlns="http://www.w3.org/2000/svg" viewBox="0 0 310 310"><defs><style>.cls-1{fill:#7655ff;}.cls-2{fill:#020202;}.cls-3{fill:#f7f5f6;}.cls-4{fill:#0e0b0c;}.cls-5{fill:#fff;}</style></defs><title>logo</title><circle class="cls-1" cx="155" cy="155" r="155"/><path class="cls-2" d="M201.6,274.54c-32.79,0-65.59-.06-98.38.08-3.48,0-4.59-.78-4.33-4.32.34-4.6.17-9.24,0-13.86,0-2,.55-2.72,2.6-2.66,4.06.14,8.13-.05,12.19.07,2.49.07,2.82-1.44,1.68-2.79-5.82-6.95-1.07-14.84-2.19-22.18a4,4,0,0,1,.9-2.73c4-5,7.37-10.19,8-16.76a2.3,2.3,0,0,1,.8-1.45c8.17-6.26,10.28-17.07,18-23.72,8.45-7.31,14.85-17,25.38-21.89,2.63-1.22,3.51-2.85,2.36-5.6-.71-1.67-1.2-3.41-.15-5.22s-.76-2.13-1.56-2.91c-4.06-4-4.29-6.69-1.39-11.48a56.57,56.57,0,0,1,15.38-16.38A22.8,22.8,0,0,1,198,116.56a82.16,82.16,0,0,1,12.58,3.17c6.34,2,8.24,4.94,7.85,11.53a17.42,17.42,0,0,1-.58,5c-1.17,3.17,2.17,3.37,3,5.14,1.38,2.9-.85,13.51-3.25,15.91-2.81,2.81-2.43,5.35.54,7.92,6.82,5.89,15.28,6.73,23.59,8.21,5.37,1,10.66,2.41,16,3.19a6.35,6.35,0,0,1,5.91,5.48,20.25,20.25,0,0,0,4.21,8.52c2.72,3.43,1.66,7.7,1.8,11.73.21,5.88,1,11.71,4.75,16.63a11.58,11.58,0,0,1,2.63,5.64c.33,3.5.78,6.34,4,8.94,2.65,2.12,2,6.63,1.76,10-.26,3.66,2.44,6.08,2.81,9.39.15,1.43,1.87.82,2.89.83,4.34.07,8.69.12,13,0,2-.06,2.66.64,2.61,2.65-.12,4.76-.26,9.54,0,14.29.19,3.17-.75,3.91-3.89,3.9-29.29-.14-58.58-.08-87.87-.08ZM256.26,256l-.07-.11c.66.38.32.86.2,1.38-.28,1.25-.44,2.6.93,3.33,1.6.86,2.24-.74,3-1.53a19.24,19.24,0,0,0,5.35-8.82c.7-2.79.24-4.44-2.67-5.51a39.34,39.34,0,0,1-7.65-4.06c-5.73-3.74-11.1-3.44-15.06,2-.9,1.25-1.9,2.43-2.72,3.73-.66,1.06-2.54,2.16-1,3.47,1.37,1.16,2.4-.61,3.54-1.32,1.68-1,2.76-4.35,4.71-3.16,1.79,1.1-.52,3.45-1,5.23-1.14,4.09-.19,5.31,4.12,4.93.65,0,1.17-.65,1.63.34C251.72,260.55,254,257.61,256.26,256Zm-62.72-20.3c-3.18.44-6.37.81-9.54,1.34-3.57.61-5,2.74-4,6.29s2,7,3.05,10.62a26.19,26.19,0,0,0-8.44,1.75c-1.12.5-2.56.81-2.46,2.44.09,1.33,1.28,1.83,2.34,2.08,8.23,1.93,16.21,5.75,24.84,4.8,6.71-.75,13.31-2.62,19.91-4.18,1.14-.27,2.88-.71,2.57-2.82-4.45-.74-7.82,1.84-11.72,3.2-8.25,2.87-17.06,2.18-25.62.18-1.3-.31-2.84-.64-3.21-2.32s1.36-2.14,2.22-3.13c1.75-2,2.35.36,3.14.87a14,14,0,0,0,12.52,1.3c3.19-1.19,2.45-5.76,2.48-9.07,0-1.26,0-2.53,0-3.79,0-1,.42-1.86,1.38-1.66,3.66.79,7.08-3.06,10.92-.45.75.52,2.56-.59,2.87,1.31a4.19,4.19,0,0,1-1.57,4.1,10.33,10.33,0,0,1-2.58,1.33,2.37,2.37,0,0,0-1.58,3c.65,1.33,2.26.62,3.33.19,2-.8,3-2.77,4.18-4.4,1.59-2.23,2.52-4.92.82-7.42s-4.24-.76-6.66-.19c0-3-1.82-3.92-4.42-4.53-4.58-1.07-9.2-.47-13.79-.87Zm-10.43-64.5c.85-2.75-.66-5-1.07-7.34-.72-4-4.4-5.64-7.37-3.6-9.23,6.36-19.7,11.18-26.27,21-1.49,2.23-2.38,3.92.28,5.42,2.17,1.22,4.52,4.08,7,.18.79-1.25,1.52-2.77,3.23-3.07,5.74-1,11.09-3.47,16.89-4.34C181.78,178.48,183,176.81,183.11,171.15Zm-41,25.92a30.6,30.6,0,0,0,8.19,8.19c.64.42,1.21,1.31,2.16.77s2.47-9,1.66-9.68a84,84,0,0,1-8.41-9.18c-.71-.85-1.47-1.91-2.64-.54-3.32,3.88-7.31,7.39-8.9,12.37a13.57,13.57,0,0,1-6.44,8.31,6.17,6.17,0,0,0-3.46,5.36,13.74,13.74,0,0,1-3.8,8.63c-3.36,3.85-6,7.69-3.93,13.16.33.87-.61,2.14-.55,3.2.13,2.51-1.43,5.5,1.68,7.52,1.55-5,3.17-9.62,3.33-14.68.08-2.44.7-5.33,3.12-6.55,6.32-3.17,8-9.31,10.18-15.11,1.16-3.07,2.16-6,5.68-7.15C141.88,201.06,141.91,199.21,142.12,197.07Zm-.63,56.77c9.17,0,17.25-.06,25.33,0,2.19,0,2.42-.94,2.4-2.81a29.87,29.87,0,0,0-5.41-17.26c-2-2.85-3.81-2.63-5.65-.43C152.72,239.88,147.44,246.51,141.49,253.84Zm64.3-20.73c2.73-6.64.74-12.72,2.68-18.69,2.62,2.18,1.59,6.06,4.55,8,.91-9.21,1.77-18,2.74-27.83-3,4.35-4.28,8.44-6.09,12.46-3.23-4.12-4.78-9.24-9-13.2-2.13,6.14-4.81,12.22-2.94,18.09C199.92,218.78,203.83,225.11,205.79,233.11Zm1.75-111.73c-4.51-1.22-9-4-13.53-3.06-12.26,2.6-20.84,10.49-26.65,21.39-1,1.88-.9,4.23,1.34,6.55.27-8.45,6.85-11.13,12.35-13.47,8.23-3.49,16.88-6.47,26.12-6.42.92,0,2.08.24,2.21-1.22-1.59-1.15-3.84.5-5.59-1.36C204.92,122.74,206.73,123.2,207.54,121.38Zm1.2,79c2.45-3.14,2.89-7,5.07-9.77,5-6.32,2.48-12.76.92-19.35-1.74,5.7-6.31,9.14-10,13.25-.78.86-2.53,1.49-1.8,2.95C205,191.58,205.82,196.31,208.74,200.36Zm56.66,41.08c4.37,5.15,5.32,10.39,3,15.95-.94,2.22-.4,2.64,1.62,2.83a6.87,6.87,0,0,1,2.74.9c2.77,1.6,3.35-.06,3.67-2.3C277.4,251.79,273,244.46,265.4,241.44Zm-57.15-97.1c3.75,9.31,4.82,18.61,0,28.41a8.9,8.9,0,0,0,4-4.51c3.19-6.51,1.92-13.36,1.43-20.16C213.44,144.53,211.72,143.5,208.25,144.34Zm-14.59,55.87a58.41,58.41,0,0,0,3.05-10.36c.33-1.48.3-2.34-1.22-2.91-2.91-1.1-5.78-2.28-9.17-3.63C189.42,189.14,190.26,195.17,193.66,200.21Zm42.61,59.19c-.83-1.33-1.21-2.06-1.7-2.71-.69-.92-.46-3.27-2.67-2-1.5.85-4.08,1.17-3.82,3.29s2.71,1.15,4.21,1.38A29.44,29.44,0,0,0,236.27,259.4Z" transform="translate(-45 -45.13)"/><path d="M194.45,235.64c4.59.4,9.21-.2,13.79.87,2.6.61,4.4,1.56,4.42,4.53,2.42-.57,4.86-2.46,6.66.19s.77,5.19-.82,7.42c-1.17,1.63-2.17,3.6-4.18,4.4-1.07.43-2.68,1.14-3.33-.19a2.37,2.37,0,0,1,1.58-3,10.33,10.33,0,0,0,2.58-1.33,4.19,4.19,0,0,0,1.57-4.1c-.31-1.9-2.12-.79-2.87-1.31-3.84-2.61-7.26,1.24-10.92.45-1-.2-1.4.69-1.38,1.66,0,1.26.06,2.53,0,3.79,0,3.31.71,7.88-2.48,9.07a14,14,0,0,1-12.52-1.3c-.79-.51-1.39-2.87-3.14-.87-.86,1-2.62,1.3-2.22,3.13s1.91,2,3.21,2.32c8.56,2,17.37,2.69,25.62-.18,3.9-1.36,7.27-3.94,11.72-3.2.31,2.11-1.43,2.55-2.57,2.82-6.6,1.56-13.2,3.43-19.91,4.18-8.63.95-16.61-2.87-24.84-4.8-1.06-.25-2.25-.75-2.34-2.08-.1-1.63,1.34-1.94,2.46-2.44A26.19,26.19,0,0,1,183,253.9c-1-3.58-2.07-7.09-3.05-10.62s.45-5.68,4-6.29c3.17-.53,6.36-.9,9.54-1.34,1.25,1.76-.22,1.58-1.26,1.86-3.34.88-7.13.17-10.4,2.62,8,2.31,22,1.92,28.52-.67-.53-1-1.51-1.05-2.48-1.26a55.26,55.26,0,0,0-11.69-.83C195.3,237.37,193.25,238,194.45,235.64Z" transform="translate(-45 -45.13)"/><path class="cls-3" d="M183.11,171.15c-.1,5.66-1.33,7.33-7.3,8.22-5.8.87-11.15,3.33-16.89,4.34-1.71.3-2.44,1.82-3.23,3.07-2.49,3.9-4.84,1-7-.18-2.66-1.5-1.77-3.19-.28-5.42,6.57-9.79,17-14.61,26.27-21,3-2,6.65-.37,7.37,3.6C182.45,166.11,184,168.4,183.11,171.15Z" transform="translate(-45 -45.13)"/><path class="cls-3" d="M142.12,197.07c-.21,2.14-.24,4-2.13,4.62-3.52,1.16-4.52,4.08-5.68,7.15-2.18,5.8-3.86,11.94-10.18,15.11-2.42,1.22-3,4.11-3.12,6.55-.16,5.06-1.78,9.71-3.33,14.68-3.11-2-1.55-5-1.68-7.52-.06-1.06.88-2.33.55-3.2-2-5.47.57-9.31,3.93-13.16a13.74,13.74,0,0,0,3.8-8.63,6.17,6.17,0,0,1,3.46-5.36,13.57,13.57,0,0,0,6.44-8.31c1.59-5,5.58-8.49,8.9-12.37,1.17-1.37,1.93-.31,2.64.54a84,84,0,0,0,8.41,9.18c.81.72-.68,9.12-1.66,9.68s-1.52-.35-2.16-.77A30.6,30.6,0,0,1,142.12,197.07Z" transform="translate(-45 -45.13)"/><path class="cls-3" d="M256.26,256c-2.25,1.66-4.54,4.6-6.67-.1-.46-1-1-.39-1.63-.34-4.31.38-5.26-.84-4.12-4.93.49-1.78,2.8-4.13,1-5.23-1.95-1.19-3,2.11-4.71,3.16-1.14.71-2.17,2.48-3.54,1.32-1.55-1.31.33-2.41,1-3.47.82-1.3,1.82-2.48,2.72-3.73,4-5.44,9.33-5.74,15.06-2a39.34,39.34,0,0,0,7.65,4.06c2.91,1.07,3.37,2.72,2.67,5.51a19.24,19.24,0,0,1-5.35,8.82c-.78.79-1.42,2.39-3,1.53-1.37-.73-1.21-2.08-.93-3.33.12-.52.46-1-.2-1.38.31.31.59.28.77-.12,0-.09-.07-.24-.11-.36Z" transform="translate(-45 -45.13)"/><path class="cls-3" d="M205.79,233.11c-2-8-5.87-14.33-8-21.2-1.87-5.87.81-11.95,2.94-18.09,4.21,4,5.76,9.08,9,13.2,1.81-4,3.05-8.11,6.09-12.46-1,9.82-1.83,18.62-2.74,27.83-3-1.91-1.93-5.79-4.55-8C206.53,220.39,208.52,226.47,205.79,233.11Z" transform="translate(-45 -45.13)"/><path class="cls-3" d="M207.54,121.38c-.81,1.82-2.62,1.36-3.75,2.41,1.75,1.86,4,.21,5.59,1.36-.13,1.46-1.29,1.23-2.21,1.22-9.24-.05-17.89,2.93-26.12,6.42-5.5,2.34-12.08,5-12.35,13.47-2.24-2.32-2.35-4.67-1.34-6.55,5.81-10.9,14.39-18.79,26.65-21.39C198.52,117.36,203,120.16,207.54,121.38Z" transform="translate(-45 -45.13)"/><path class="cls-3" d="M208.74,200.36c-2.92-4.05-3.75-8.78-5.81-12.92-.73-1.46,1-2.09,1.8-2.95,3.69-4.11,8.26-7.55,10-13.25,1.56,6.59,4.09,13-.92,19.35C211.63,193.35,211.19,197.22,208.74,200.36Z" transform="translate(-45 -45.13)"/><path class="cls-3" d="M265.4,241.44c7.59,3,12,10.35,11,17.38-.32,2.24-.9,3.9-3.67,2.3a6.87,6.87,0,0,0-2.74-.9c-2-.19-2.56-.61-1.62-2.83C270.72,251.83,269.77,246.59,265.4,241.44Z" transform="translate(-45 -45.13)"/><path class="cls-4" d="M194.45,235.64c-1.2,2.39.85,1.73,1.78,1.73a55.26,55.26,0,0,1,11.69.83c1,.21,2,.24,2.48,1.26-6.52,2.59-20.52,3-28.52.67,3.27-2.45,7.06-1.74,10.4-2.62,1-.28,2.51-.1,1.26-1.86Z" transform="translate(-45 -45.13)"/><path class="cls-3" d="M208.25,144.34c3.47-.84,5.19.19,5.45,3.74.49,6.8,1.76,13.65-1.43,20.16a8.9,8.9,0,0,1-4,4.51C213.07,163,212,153.65,208.25,144.34Z" transform="translate(-45 -45.13)"/><path class="cls-3" d="M193.66,200.21c-3.4-5-4.24-11.07-7.34-16.9,3.39,1.35,6.26,2.53,9.17,3.63,1.52.57,1.55,1.43,1.22,2.91A58.41,58.41,0,0,1,193.66,200.21Z" transform="translate(-45 -45.13)"/><path class="cls-3" d="M236.27,259.4a29.44,29.44,0,0,1-4,0c-1.5-.23-3.94.84-4.21-1.38s2.32-2.44,3.82-3.29c2.21-1.27,2,1.08,2.67,2C235.06,257.34,235.44,258.07,236.27,259.4Z" transform="translate(-45 -45.13)"/><path class="cls-2" d="M256.26,256l.59-.59c0,.12.14.27.11.36-.18.4-.46.43-.77.12Z" transform="translate(-45 -45.13)"/><path d="M96.65,184.47l.54-2.88.18,0a3,3,0,0,0,1.47-.07,2.17,2.17,0,0,0,1.12-.85,3.69,3.69,0,0,0,.59-1.48,2.88,2.88,0,0,0-1.6-3.14,21.09,21.09,0,0,0-4.74-1.23l-19.46-3.62.53-2.86L94.83,172c3.1.57,5.17,1.23,6.21,2a6.16,6.16,0,0,1,2.16,2.39,5.5,5.5,0,0,1,.23,3.27q-.6,3.23-2.57,4.25a6.15,6.15,0,0,1-4,.64Z" transform="translate(-45 -45.13)"/><path class="cls-2" d="M97.94,185.08a6.84,6.84,0,0,1-1.19-.11l-.64-.12.71-3.8.63.11a2.48,2.48,0,0,0,1.25-.06,1.62,1.62,0,0,0,.87-.67,3.11,3.11,0,0,0,.52-1.29,2.51,2.51,0,0,0-.18-1.47,2.54,2.54,0,0,0-1.18-1.18,19.55,19.55,0,0,0-4.6-1.18l-19.92-3.7.7-3.79.46.09,19.55,3.63c3.19.59,5.28,1.26,6.39,2a6.75,6.75,0,0,1,2.31,2.58,5.88,5.88,0,0,1,.27,3.55c-.43,2.29-1.37,3.83-2.81,4.58A6.81,6.81,0,0,1,97.94,185.08Zm-.74-1a5.66,5.66,0,0,0,3.45-.64c1.17-.6,1.95-1.92,2.32-3.92a5,5,0,0,0-.2-3,5.74,5.74,0,0,0-2-2.2c-1-.69-3-1.32-6-1.88l-19.09-3.55-.36,2,19,3.53a20.5,20.5,0,0,1,4.86,1.28,3.38,3.38,0,0,1,1.61,1.63,3.5,3.5,0,0,1,.24,2,4.3,4.3,0,0,1-.67,1.66A2.54,2.54,0,0,1,99,182a3.3,3.3,0,0,1-1.41.13Z" transform="translate(-45 -45.13)"/><path d="M108.43,161.54a8,8,0,0,1-6.16,5Q97.6,167.64,90.72,165t-9.61-6.52A7.95,7.95,0,0,1,86,145.64c3.12-.72,7-.21,11.52,1.52s7.8,3.92,9.64,6.53A8,8,0,0,1,108.43,161.54Zm-2.71-1q1.09-2.88-1.46-5.7A20,20,0,0,0,96.44,150a19.91,19.91,0,0,0-9-1.59q-3.8.41-4.89,3.27c-.72,1.91-.23,3.8,1.49,5.69a19.83,19.83,0,0,0,7.79,4.82,19.92,19.92,0,0,0,9,1.59C103.37,163.5,105,162.41,105.72,160.51Z" transform="translate(-45 -45.13)"/><path class="cls-2" d="M99.36,167.34a25.22,25.22,0,0,1-8.8-1.88c-4.63-1.76-7.94-4-9.83-6.68a8.41,8.41,0,0,1,5.17-13.59c3.18-.75,7.15-.23,11.78,1.54s8,4,9.86,6.69a8.46,8.46,0,0,1,1.33,8.28h0a8.47,8.47,0,0,1-6.5,5.31A13.1,13.1,0,0,1,99.36,167.34ZM88.92,145.79a12.55,12.55,0,0,0-2.81.3,7.48,7.48,0,0,0-4.62,12.15c1.78,2.52,5,4.66,9.4,6.35s8.27,2.21,11.27,1.52a7.52,7.52,0,0,0,5.84-4.74h0a7.52,7.52,0,0,0-1.22-7.41c-1.78-2.52-5-4.66-9.43-6.36A24.27,24.27,0,0,0,88.92,145.79Zm10.59,18.52a22.48,22.48,0,0,1-7.87-1.68,20.46,20.46,0,0,1-8-4.94c-1.83-2-2.36-4.1-1.58-6.17s2.57-3.29,5.28-3.58a20.57,20.57,0,0,1,9.25,1.62,20.51,20.51,0,0,1,8,4.94c1.83,2,2.35,4.09,1.56,6.17h0c-.79,2.07-2.56,3.27-5.26,3.57A12.56,12.56,0,0,1,99.51,164.31Zm-10.79-15.5q-.64,0-1.26.06c-2.36.25-3.84,1.23-4.5,3s-.21,3.44,1.39,5.21a19.6,19.6,0,0,0,7.62,4.7,19.45,19.45,0,0,0,8.82,1.55c2.36-.26,3.83-1.23,4.49-3h0c.67-1.75.22-3.46-1.37-5.21a19.63,19.63,0,0,0-7.64-4.7A21.64,21.64,0,0,0,88.72,148.81Z" transform="translate(-45 -45.13)"/><path d="M112.8,149.35,88.25,134.19l6.69-10.82L97.63,125l-5.14,8.33,7.74,4.78,4.49-7.28,2.47,1.52-4.5,7.28,9,5.53,5.56-9,2.69,1.66Z" transform="translate(-45 -45.13)"/><path class="cls-2" d="M113,150l-.4-.25-25-15.41,7.17-11.62,3.5,2.16-5.15,8.33,6.94,4.28,4.5-7.27,3.26,2-4.49,7.28,8.16,5,5.56-9,3.49,2.16ZM88.89,134l23.76,14.67L119.26,138l-1.9-1.17-5.56,9-9.75-6,4.5-7.28-1.68-1-4.49,7.28-8.53-5.27L97,125.18,95.09,124Z" transform="translate(-45 -45.13)"/><path d="M133.59,119.44a10.15,10.15,0,0,1-.41,3.77,6.81,6.81,0,0,1-1.8,2.78,6.42,6.42,0,0,1-3.59,1.82,7.81,7.81,0,0,1-4.08-.59,10.42,10.42,0,0,1-3.72-2.54,10.93,10.93,0,0,1-2.77-5.08,12.05,12.05,0,0,1-.09-5.72l-.5-.18a26.77,26.77,0,0,1-2.85-1.14,13.35,13.35,0,0,1-1.33-.8,6.37,6.37,0,0,1-2.53-3.45,5.31,5.31,0,0,1-.17-2.91,5,5,0,0,1,1.44-2.44,4.33,4.33,0,0,1,3.51-1.3,5.12,5.12,0,0,1,3.31,1.61,8.81,8.81,0,0,1,2.17,4.07,11.51,11.51,0,0,1,.19,4.77,91,91,0,0,0,10.14,3.41,11.81,11.81,0,0,0-1.33-3,24.87,24.87,0,0,0-3.13-3.79l-.73-.76,1.94-1.85.31.32a20.73,20.73,0,0,1,5.64,9.76q2.11.53,6,1.08L136.38,120c-.57-.09-1.18-.2-1.81-.34ZM117.73,111a7.6,7.6,0,0,0-.1-3.44,5.49,5.49,0,0,0-1.2-2.35,3,3,0,0,0-1.07-.7,2.16,2.16,0,0,0-1.33-.09A2.32,2.32,0,0,0,113,105a1.85,1.85,0,0,0-.56,1.88,3.78,3.78,0,0,0,.94,1.81,5.37,5.37,0,0,0,.87.72,11.68,11.68,0,0,0,1,.64,15.62,15.62,0,0,0,1.93.76C117.27,110.86,117.46,110.94,117.73,111Zm2,3.88a8,8,0,0,0,.17,4.16,8.79,8.79,0,0,0,2,3.57,7.29,7.29,0,0,0,2.58,1.79,4.94,4.94,0,0,0,2.85.31,4.19,4.19,0,0,0,2.23-1,4.8,4.8,0,0,0,1-1.56,8.59,8.59,0,0,0,.41-3.41q-1.78-.45-5.07-1.5C123.75,116.53,121.66,115.75,119.69,114.91Z" transform="translate(-45 -45.13)"/><path class="cls-2" d="M126.85,128.34a8.87,8.87,0,0,1-3.31-.68,11.18,11.18,0,0,1-3.89-2.65,11.63,11.63,0,0,1-2.89-5.3,12.79,12.79,0,0,1-.17-5.53l-.13-.05a26.08,26.08,0,0,1-2.89-1.16,12.76,12.76,0,0,1-1.39-.83,7.57,7.57,0,0,1-1.09-.92,7.13,7.13,0,0,1-1.61-2.77,5.73,5.73,0,0,1-.18-3.16,5.46,5.46,0,0,1,1.57-2.66,4.82,4.82,0,0,1,3.88-1.44,5.6,5.6,0,0,1,3.59,1.76,9.26,9.26,0,0,1,2.29,4.28,12.06,12.06,0,0,1,.26,4.58,89.71,89.71,0,0,0,8.91,3,11.68,11.68,0,0,0-1-2.07,24.52,24.52,0,0,0-3.07-3.71l-1-1.09,2.61-2.5.64.66a21.46,21.46,0,0,1,5.69,9.7c1.37.32,3.28.66,5.67,1l1,.13-3.69,3.53-.22,0c-.59-.08-1.21-.2-1.85-.34l-.39-.09a10.15,10.15,0,0,1-.46,3.33,7.31,7.31,0,0,1-1.92,3,6.76,6.76,0,0,1-4.85,2ZM114.27,102.1a3.93,3.93,0,0,0-2.76,1.2,4.47,4.47,0,0,0-1.3,2.21,4.84,4.84,0,0,0,.15,2.65,6.28,6.28,0,0,0,1.41,2.41,5.86,5.86,0,0,0,1,.81,10.07,10.07,0,0,0,1.28.76,24.53,24.53,0,0,0,2.79,1.12l.89.32-.09.41a11.65,11.65,0,0,0,.08,5.5,10.55,10.55,0,0,0,2.66,4.87,10.13,10.13,0,0,0,3.56,2.43,7.5,7.5,0,0,0,3.84.56,6.09,6.09,0,0,0,3.33-1.69,6.51,6.51,0,0,0,1.68-2.6,9.64,9.64,0,0,0,.38-3.59l0-.61,1.58.34c.54.13,1.06.22,1.55.3l2-1.88c-2.14-.33-3.86-.64-5.1-1l-.28-.07-.06-.28a20.32,20.32,0,0,0-5.5-9.52L126,108l.41.41a26,26,0,0,1,3.19,3.87,12.39,12.39,0,0,1,1.38,3.11l.22.79-.79-.21a91.24,91.24,0,0,1-10.19-3.43l-.36-.14.07-.37a10.89,10.89,0,0,0-.19-4.57,8.28,8.28,0,0,0-2-3.86,4.64,4.64,0,0,0-3-1.48Zm12.17,23.19a5.59,5.59,0,0,1-2.13-.43,7.71,7.71,0,0,1-2.74-1.9,9.32,9.32,0,0,1-2.16-3.75,8.48,8.48,0,0,1-.17-4.41l.12-.54.52.22c2,.84,4,1.61,6.2,2.3s3.85,1.2,5,1.5l.34.08v.36a8.86,8.86,0,0,1-.44,3.61A5.46,5.46,0,0,1,129.9,124a4.75,4.75,0,0,1-2.47,1.16A5.52,5.52,0,0,1,126.44,125.29Zm-6.4-9.73a7.64,7.64,0,0,0,.27,3.38,8.32,8.32,0,0,0,1.93,3.38,7,7,0,0,0,2.43,1.68,4.45,4.45,0,0,0,2.58.28,3.76,3.76,0,0,0,2-.91,4.42,4.42,0,0,0,.93-1.43,7.32,7.32,0,0,0,.36-2.84c-1.18-.31-2.78-.79-4.75-1.43S121.87,116.33,120,115.56Zm-2-3.9-.51-.19-.57-.21a16.44,16.44,0,0,1-2-.79,11.3,11.3,0,0,1-1.09-.66A5.48,5.48,0,0,1,113,109a4.26,4.26,0,0,1-1.06-2,2.32,2.32,0,0,1,.69-2.33,2.84,2.84,0,0,1,1.29-.67,2.58,2.58,0,0,1,1.62.11,3.5,3.5,0,0,1,1.23.8,6,6,0,0,1,1.3,2.56,8,8,0,0,1,.12,3.65Zm-3.52-6.81a2,2,0,0,0-.41.05,1.88,1.88,0,0,0-.87.44,1.43,1.43,0,0,0-.44,1.45,3.41,3.41,0,0,0,.83,1.59,5.5,5.5,0,0,0,.79.66c.33.22.67.43,1,.61a17.11,17.11,0,0,0,1.86.73h0a6.73,6.73,0,0,0-.17-2.67,5.23,5.23,0,0,0-1.08-2.16,2.61,2.61,0,0,0-.91-.59A1.76,1.76,0,0,0,114.56,104.85Z" transform="translate(-45 -45.13)"/><path d="M152.78,108.65,140.34,85.86l-6.73,3.68L132.22,87l15.9-8.68,1.39,2.55-6.61,3.61,12.44,22.78Z" transform="translate(-45 -45.13)"/><path class="cls-2" d="M152.6,109.28,140.16,86.5l-6.73,3.67-1.84-3.36,16.72-9.13,1.83,3.37-6.6,3.61L156,107.44Zm-12.07-24L153,108l1.74-1L142.27,84.28l6.61-3.61L147.93,79l-15.07,8.23.94,1.73Z" transform="translate(-45 -45.13)"/><path d="M167.14,101.84l-2.8.88L155.66,75.2l2.8-.88,3.86,12.24,9.87-3.12-3.86-12.23,2.78-.88,8.68,27.52-2.78.88-3.95-12.52-9.87,3.11Z" transform="translate(-45 -45.13)"/><path class="cls-2" d="M164,103.31,155.08,74.9l3.69-1.17L162.63,86l9-2.83L167.75,70.9l3.67-1.16,9,28.42-3.66,1.15-4-12.52-9,2.84,3.95,12.52Zm-7.78-27.8,8.39,26.63,1.92-.6L162.61,89l10.76-3.4,3.94,12.52,1.89-.59-8.39-26.63-1.89.59,3.86,12.24L162,87.14,158.16,74.9Z" transform="translate(-45 -45.13)"/><path d="M184,97.1l-3.56-28.63,12.63-1.57.39,3.15-9.71,1.2,1.12,9,8.49-1,.35,2.88-8.49,1.05,1.3,10.45L197,92.3l.39,3.14Z" transform="translate(-45 -45.13)"/><path class="cls-2" d="M183.57,97.63,179.9,68.06l13.56-1.68.5,4.07-9.71,1.21,1,8.09,8.49-1,.47,3.8-8.49,1.06,1.18,9.51,10.51-1.3.5,4.08ZM181,68.87l3.43,27.71L196.87,95l-.28-2.21-10.5,1.3-1.41-11.38,8.49-1-.24-2-8.49,1.05-1.23-10,9.71-1.2-.27-2.22Z" transform="translate(-45 -45.13)"/><path d="M221.73,90.81l2.69.33,0,.17a7.51,7.51,0,0,1-1.34,3.36,5.87,5.87,0,0,1-2.8,2.27,7.91,7.91,0,0,1-3.78.37,8.3,8.3,0,0,1-6.5-4.65c-1.5-2.75-1.93-6.66-1.32-11.73s2-8.7,4.08-11a8.32,8.32,0,0,1,7.47-3,7.89,7.89,0,0,1,3.55,1.28,5.9,5.9,0,0,1,2.17,2.92,7.48,7.48,0,0,1,.5,3.52l0,.18-2.69-.33,0-.17a4.34,4.34,0,0,0-.28-2.09,3.52,3.52,0,0,0-1.29-1.65,5,5,0,0,0-2.23-.76,5.45,5.45,0,0,0-5.52,2.85,20.51,20.51,0,0,0-2.76,8.64,20.67,20.67,0,0,0,.59,9.09,5.45,5.45,0,0,0,4.66,4.08,4,4,0,0,0,3.47-.84A4.37,4.37,0,0,0,221.71,91Z" transform="translate(-45 -45.13)"/><path class="cls-2" d="M217.67,97.85a10.76,10.76,0,0,1-1.25-.08,8.76,8.76,0,0,1-6.85-4.89c-1.54-2.82-2-6.86-1.37-12s2-8.9,4.2-11.3a8.77,8.77,0,0,1,7.87-3.13A8.34,8.34,0,0,1,224,67.81a6.4,6.4,0,0,1,2.34,3.13,7.92,7.92,0,0,1,.52,3.75l-.08.64-3.61-.44.08-.64a3.77,3.77,0,0,0-.24-1.86A3,3,0,0,0,221.92,71a4.56,4.56,0,0,0-2-.69c-2.1-.26-3.76.61-5.07,2.64a20.14,20.14,0,0,0-2.69,8.45,20.18,20.18,0,0,0,.58,8.88c.78,2.28,2.17,3.51,4.27,3.77a3.64,3.64,0,0,0,3.08-.71,3.91,3.91,0,0,0,1.19-2.37l.08-.64,3.61.44-.08.64a7.92,7.92,0,0,1-1.42,3.57,6.34,6.34,0,0,1-3,2.44A7.9,7.9,0,0,1,217.67,97.85Zm1.42-30.54a7.85,7.85,0,0,0-6,2.89c-2,2.25-3.37,5.88-4,10.79s-.18,8.8,1.26,11.45a7.78,7.78,0,0,0,6.15,4.41,7.51,7.51,0,0,0,3.56-.35,5.42,5.42,0,0,0,2.57-2.09,7,7,0,0,0,1.22-2.87l-1.76-.21A4.87,4.87,0,0,1,220.72,94a4.47,4.47,0,0,1-3.86,1c-2.44-.29-4.14-1.77-5-4.39a21.18,21.18,0,0,1-.61-9.3A21,21,0,0,1,214,72.41c1.5-2.34,3.51-3.38,6-3.07a5.43,5.43,0,0,1,2.43.85,3.89,3.89,0,0,1,1.47,1.87,4.75,4.75,0,0,1,.33,2l1.76.22a7.48,7.48,0,0,0-.5-3,5.54,5.54,0,0,0-2-2.69,7.33,7.33,0,0,0-3.35-1.2A7.65,7.65,0,0,0,219.09,67.31Z" transform="translate(-45 -45.13)"/><path d="M234.78,101.59a8,8,0,0,1-5.27-6Q228.25,91,230.58,84t6.12-9.87a8,8,0,0,1,13.07,4.38q1.26,4.62-1.06,11.56t-6.13,9.9A8,8,0,0,1,234.78,101.59Zm.92-2.75c2,.66,3.83.09,5.63-1.69a20,20,0,0,0,4.5-8,20.06,20.06,0,0,0,1.23-9.08q-.56-3.78-3.47-4.76c-1.93-.64-3.81-.08-5.63,1.71a19.87,19.87,0,0,0-4.5,8,19.87,19.87,0,0,0-1.22,9.1Q232.81,97.88,235.7,98.84Z" transform="translate(-45 -45.13)"/><path class="cls-2" d="M237.27,102.48a8.44,8.44,0,0,1-8.21-6.72c-.86-3.15-.5-7.15,1.08-11.86s3.69-8.1,6.28-10.1a8.42,8.42,0,0,1,13.8,4.62c.86,3.16.5,7.14-1.07,11.84s-3.7,8.13-6.29,10.12A9.06,9.06,0,0,1,237.27,102.48ZM242,72.63a8.11,8.11,0,0,0-5,1.91c-2.44,1.88-4.45,5.13-6,9.65s-1.88,8.35-1.06,11.32a7.49,7.49,0,0,0,5,5.64h0a7.5,7.5,0,0,0,7.36-1.51c2.44-1.88,4.45-5.13,6-9.67s1.87-8.33,1.06-11.3a7.55,7.55,0,0,0-7.33-6Zm-4.73,27a5.33,5.33,0,0,1-1.7-.29c-2.11-.71-3.38-2.42-3.78-5.11A20.51,20.51,0,0,1,233,84.86a20.59,20.59,0,0,1,4.62-8.17c2-1.91,4-2.53,6.1-1.82s3.39,2.43,3.79,5.13a20.67,20.67,0,0,1-1.24,9.3,20.42,20.42,0,0,1-4.62,8.18A6.32,6.32,0,0,1,237.26,99.58Zm4.79-24.06a5.41,5.41,0,0,0-3.76,1.84,19.56,19.56,0,0,0-4.39,7.79A19.67,19.67,0,0,0,232.7,94c.36,2.34,1.39,3.77,3.15,4.36h0c1.78.6,3.47.08,5.16-1.58A19.6,19.6,0,0,0,245.39,89a19.67,19.67,0,0,0,1.2-8.87c-.34-2.35-1.37-3.78-3.15-4.38A4.55,4.55,0,0,0,242.05,75.52Z" transform="translate(-45 -45.13)"/><path d="M261.79,106.67l2.34,1.35-.09.16a7.59,7.59,0,0,1-2.54,2.57,5.92,5.92,0,0,1-3.47,1,8.12,8.12,0,0,1-3.62-1.14,8.29,8.29,0,0,1-4.16-6.82q-.45-4.68,3.37-11.31t8.08-8.57a8.26,8.26,0,0,1,8,.19,7.65,7.65,0,0,1,2.77,2.56,5.87,5.87,0,0,1,.86,3.53,7.54,7.54,0,0,1-.92,3.44l-.09.16L270,92.43l.09-.16a4.3,4.3,0,0,0,.56-2,3.51,3.51,0,0,0-.54-2,4.93,4.93,0,0,0-1.75-1.58,5.45,5.45,0,0,0-6.2.46A20.45,20.45,0,0,0,256.25,94a20.54,20.54,0,0,0-3,8.6,5.43,5.43,0,0,0,2.69,5.58,4,4,0,0,0,3.52.58,4.37,4.37,0,0,0,2.25-1.91Z" transform="translate(-45 -45.13)"/><path class="cls-2" d="M258.27,112.21H258a8.34,8.34,0,0,1-3.83-1.2,8.77,8.77,0,0,1-4.4-7.18c-.3-3.2.85-7.1,3.44-11.59s5.36-7.39,8.29-8.75a8.78,8.78,0,0,1,8.46.2,8.3,8.3,0,0,1,2.93,2.72,6.46,6.46,0,0,1,.93,3.81,8,8,0,0,1-1,3.64l-.33.56-3.15-1.81.32-.56a3.83,3.83,0,0,0,.5-1.81,2.87,2.87,0,0,0-.47-1.75,4.48,4.48,0,0,0-1.59-1.43,5,5,0,0,0-5.7.45,19.9,19.9,0,0,0-5.77,6.71,20.3,20.3,0,0,0-3,8.41c-.17,2.4.63,4.08,2.46,5.13a3.62,3.62,0,0,0,3.12.56,3.9,3.9,0,0,0,2-1.72l.32-.56,3.15,1.82-.32.56a8.17,8.17,0,0,1-2.7,2.73A6.45,6.45,0,0,1,258.27,112.21Zm7.4-28.79a8.89,8.89,0,0,0-3.77.91c-2.75,1.27-5.4,4.09-7.87,8.37s-3.61,8-3.32,11a7.78,7.78,0,0,0,3.94,6.46,7.46,7.46,0,0,0,3.4,1.08,5.35,5.35,0,0,0,3.19-.91,7.43,7.43,0,0,0,2.25-2.17l-1.54-.88a4.9,4.9,0,0,1-2.32,1.87,4.5,4.5,0,0,1-3.94-.62,5.89,5.89,0,0,1-2.92-6,21.17,21.17,0,0,1,3.08-8.8,21,21,0,0,1,6-7,5.92,5.92,0,0,1,6.7-.48A5.58,5.58,0,0,1,270.51,88a4,4,0,0,1,.62,2.29,4.87,4.87,0,0,1-.49,2l1.53.89a7.15,7.15,0,0,0,.72-3,5.36,5.36,0,0,0-.78-3.26,7.36,7.36,0,0,0-2.61-2.41A7.5,7.5,0,0,0,265.67,83.42Z" transform="translate(-45 -45.13)"/><path d="M265.83,117.27l-2.22-1.93,18.88-21.81,2.22,1.92-9,10.42,16.13-4.28,2.51,2.19-15.85,4.14-1.94,18.62-2.78-2.41,1.93-18.26Z" transform="translate(-45 -45.13)"/><path class="cls-2" d="M276.91,127.48l-3.64-3.16,1.8-17-9.19,10.62L263,115.39l19.5-22.52,2.92,2.53L277,105l14.9-4,3.38,2.92-16.4,4.29Zm-2.66-3.54,1.92,1.66,1.87-18,15.32-4-1.66-1.44-15.58,4.13Zm-10-8.64,1.51,1.31,18.27-21.12-1.51-1.3Z" transform="translate(-45 -45.13)"/><path d="M281.9,133.23l20.37-16.08-4.75-6,2.27-1.8L311,123.55l-2.28,1.8-4.67-5.91L283.7,135.52Z" transform="translate(-45 -45.13)"/><path class="cls-2" d="M283.62,136.18l-2.38-3,20.37-16.09-4.75-6,3-2.37,11.8,14.95-3,2.37L304,120.09Zm-1.07-2.87,1.23,1.55,20.37-16.08,4.67,5.91,1.54-1.22L299.72,110l-1.55,1.22,4.76,6Z" transform="translate(-45 -45.13)"/><path d="M290.14,144.46,288.91,142l29.91-4.82,1.34,2.64-21.89,20.64-1.44-2.83,6-5.67-4.48-8.86Zm11.2-1.84,3.71,7.3,10.19-9.59Z" transform="translate(-45 -45.13)"/><path class="cls-2" d="M298.13,161.26l-1.87-3.7,6-5.67-4.18-8.24L289.88,145l-1.68-3.31,30.88-5,1.65,3.25-.25.24Zm-.72-3.5,1,2,21.18-20-1-2-28.95,4.66.79,1.56,8.25-1.33,4.8,9.47Zm7.5-7.07-4.27-8.43,16-2.64ZM302.05,143l3.13,6.17L313.8,141Z" transform="translate(-45 -45.13)"/><path d="M299.71,166.16l-.93-2.79,27.35-9.19.94,2.78Z" transform="translate(-45 -45.13)"/><path class="cls-2" d="M299.42,166.75l-1.23-3.67,28.23-9.49,1.24,3.67Zm-.05-3.08.64,1.9,26.47-8.9-.64-1.9Z" transform="translate(-45 -45.13)"/><path d="M301.25,170.65l28.28-5.72.58,2.88-25.17,5.09,2.34,11.56-3.11.63Z" transform="translate(-45 -45.13)"/><path class="cls-2" d="M303.8,185.64l-3.1-15.35,29.19-5.91.77,3.79-25.17,5.1,2.34,11.56Zm-2-14.62,2.73,13.52,2.2-.44-2.34-11.56,25.17-5.1-.4-2Z" transform="translate(-45 -45.13)"/><path d="M99.88,290.37V278.32h2.58a4.59,4.59,0,0,1,2.76.66,4.3,4.3,0,0,1,1.37,2,9.73,9.73,0,0,1,.49,3.32,9.88,9.88,0,0,1-.45,3.15,4.74,4.74,0,0,1-1.33,2.13,4,4,0,0,1-2.66.78Zm1.22-1.32h1.43a3.17,3.17,0,0,0,1.94-.49,3,3,0,0,0,1-1.52,8.39,8.39,0,0,0,.34-2.61,10.13,10.13,0,0,0-.31-2.7,2.62,2.62,0,0,0-3-2.2h-1.4Z" transform="translate(-45 -45.13)"/><path d="M110.68,290.37h-1.22V278.32h2.89a2.64,2.64,0,0,1,1.6.4,2.6,2.6,0,0,1,.85,1.14,4.14,4.14,0,0,1,.32,1.62,4.08,4.08,0,0,1-.22,1.36,4.21,4.21,0,0,1-.59,1.18,3.25,3.25,0,0,1-1.19.93,2.33,2.33,0,0,1,.45.41,3.73,3.73,0,0,1,.37.63c.15.29.27.56.38.81l1.49,3.57h-1.39l-1.3-3.17a7.22,7.22,0,0,0-1.21-2h-1.23Zm0-6.38h1.19a1.83,1.83,0,0,0,1.13-.3,2,2,0,0,0,.62-.87,3.31,3.31,0,0,0,.23-1.22,2.73,2.73,0,0,0-.18-1,1.93,1.93,0,0,0-.53-.75,1.85,1.85,0,0,0-1.19-.3h-1.27Z" transform="translate(-45 -45.13)"/><path d="M119.08,290.37h-1.22V278.32h1.22Z" transform="translate(-45 -45.13)"/><path d="M122.91,290.37h-1.12V278.32H123l4.27,8.57.38.95,0-.95v-8.57h1.12v12.05h-1.19l-4.28-8.6-.39-1,0,1Z" transform="translate(-45 -45.13)"/><path d="M132.68,290.37h-1.22V278.32h1.22v5.76l3.9-5.76H138L134.11,284l4.45,6.4H137l-4.35-6.29Z" transform="translate(-45 -45.13)"/><path d="M140.35,287.66h1.21v.08a1.59,1.59,0,0,0,.55,1.39,2.5,2.5,0,0,0,1.46.39,1.71,1.71,0,0,0,1.33-.59,2.28,2.28,0,0,0,.54-1.58,1.93,1.93,0,0,0-.46-1.3,5.12,5.12,0,0,0-1.41-1l-.49-.27a5.71,5.71,0,0,1-1.48-1,3.38,3.38,0,0,1-.74-1.15,3.92,3.92,0,0,1-.24-1.4,3.56,3.56,0,0,1,.75-2.31,2.81,2.81,0,0,1,2.35-.94,2.55,2.55,0,0,1,2.05.7,2.44,2.44,0,0,1,.6,1.64v.07h-1.21v-.07a1.06,1.06,0,0,0-.74-1,2.28,2.28,0,0,0-.8-.13,1.54,1.54,0,0,0-1.33.58,2.15,2.15,0,0,0-.43,1.32,2.25,2.25,0,0,0,.2.93,2.06,2.06,0,0,0,.56.73,10.7,10.7,0,0,0,1.21.77l.57.32a4.48,4.48,0,0,1,1.84,1.62,3.73,3.73,0,0,1,.46,1.82,4.29,4.29,0,0,1-.38,1.76,2.8,2.8,0,0,1-1,1.29,3.18,3.18,0,0,1-1.77.44,4.26,4.26,0,0,1-1.74-.32,2.2,2.2,0,0,1-1.07-1.06,3.69,3.69,0,0,1-.36-1.62Z" transform="translate(-45 -45.13)"/><path d="M149.17,293.26v-.93a1.32,1.32,0,0,0,.44-.53,3,3,0,0,0,.23-.66,3.57,3.57,0,0,0,.08-.77h-.75v-2h1.59v1.27a7,7,0,0,1-.17,1.75,3.61,3.61,0,0,1-.53,1.1A2.56,2.56,0,0,1,149.17,293.26Z" transform="translate(-45 -45.13)"/><path d="M159.9,290.37h-1.24l-2.11-12.05h1.16l1.48,8.48.2,1.46h.06l.21-1.46,1.71-8.48h1.2l1.67,8.51.19,1.43h0l.21-1.43,1.53-8.51h1.06l-2.17,12.05h-1.24l-1.72-8.64-.22-1.48h-.07l-.2,1.48Z" transform="translate(-45 -45.13)"/><path d="M170.78,290.37h-1.22V278.32h1.22Z" transform="translate(-45 -45.13)"/><path d="M174.61,290.37h-1.12V278.32h1.21l4.26,8.57.39.95,0-.95v-8.57h1.12v12.05h-1.2l-4.27-8.6-.39-1,0,1Z" transform="translate(-45 -45.13)"/><path d="M183.16,290.37V278.32h5.28v1.33h-4.06v3.79h3.55v1.22h-3.55v4.39h4.39v1.32Z" transform="translate(-45 -45.13)"/><path d="M194.93,290.37H193.8l3.83-12.05h1.23l3.53,12.05h-1.32l-1-3.32H196Zm1.42-4.52h3.4l-1.64-5.6Z" transform="translate(-45 -45.13)"/><path d="M205.51,290.37h-1.12V278.32h1.21l4.27,8.57.38.95,0-.95v-8.57h1.12v12.05h-1.19l-4.28-8.6-.39-1,0,1Z" transform="translate(-45 -45.13)"/><path d="M214.06,290.37V278.32h2.58a4.59,4.59,0,0,1,2.76.66,4.3,4.3,0,0,1,1.37,2,11.37,11.37,0,0,1,0,6.47,4.67,4.67,0,0,1-1.34,2.13,3.92,3.92,0,0,1-2.65.78Zm1.22-1.32h1.43a3.17,3.17,0,0,0,1.94-.49,3,3,0,0,0,1-1.52,8.39,8.39,0,0,0,.34-2.61,10.13,10.13,0,0,0-.31-2.7,2.64,2.64,0,0,0-3-2.2h-1.4Z" transform="translate(-45 -45.13)"/><path d="M228,290.37h-1V278.32h1.2l2.9,8.61,2.67-8.61h1.18v12.05h-1.08v-7.18l0-2.16h0l-.61,2.16-1.65,5.37h-1.22l-1.8-5.39-.55-1.95h0l0,1.95Z" transform="translate(-45 -45.13)"/><path d="M237.46,278.32h1.22v7.75a6.58,6.58,0,0,0,.25,2.27,1.87,1.87,0,0,0,.8.89,2.46,2.46,0,0,0,1.21.29,2.15,2.15,0,0,0,1.14-.29,1.83,1.83,0,0,0,.74-1,9.87,9.87,0,0,0,.24-2.75v-7.2h1.12v7.61a8,8,0,0,1-.38,3,3.19,3.19,0,0,1-1.08,1.34,3.07,3.07,0,0,1-1.79.5,4.15,4.15,0,0,1-1.83-.4,2.6,2.6,0,0,1-1.24-1.23,7,7,0,0,1-.4-2.83Z" transform="translate(-45 -45.13)"/><path d="M252.31,287.78h1.12v.07a3.18,3.18,0,0,1-.38,1.46,2.47,2.47,0,0,1-1,1.08,3.27,3.27,0,0,1-1.54.35,3.43,3.43,0,0,1-2.91-1.6,10.68,10.68,0,0,1,0-9.58,3.44,3.44,0,0,1,2.93-1.61,3.14,3.14,0,0,1,1.53.35,2.47,2.47,0,0,1,1,1.1,3.22,3.22,0,0,1,.38,1.43v.08h-1.12v-.08a1.89,1.89,0,0,0-.22-.85,1.48,1.48,0,0,0-.62-.62,2.12,2.12,0,0,0-.95-.2,2.28,2.28,0,0,0-2.14,1.46,10.29,10.29,0,0,0,0,7.46,2.27,2.27,0,0,0,2.13,1.46,1.68,1.68,0,0,0,1.39-.53,1.85,1.85,0,0,0,.41-1.16Z" transform="translate(-45 -45.13)"/><path d="M256.93,290.37h-1.22V278.32h1.22v5.36h4.3v-5.36h1.2v12.05h-1.2v-5.48h-4.3Z" transform="translate(-45 -45.13)"/><path d="M269.48,290.37h-1V278.32h1.2l2.89,8.61,2.67-8.61h1.18v12.05h-1.07v-7.18l0-2.16h0l-.61,2.16-1.66,5.37h-1.22l-1.8-5.39-.55-1.95h0l0,1.95Z" transform="translate(-45 -45.13)"/><path d="M282.74,290.74a3.32,3.32,0,0,1-2.85-1.66,10.63,10.63,0,0,1,0-9.46,3.29,3.29,0,0,1,5.71,0,10.63,10.63,0,0,1,0,9.46A3.33,3.33,0,0,1,282.74,290.74Zm0-1.22a2.2,2.2,0,0,0,2-1.41,10.34,10.34,0,0,0,0-7.53,2.1,2.1,0,0,0-4,0,10.2,10.2,0,0,0,0,7.53A2.19,2.19,0,0,0,282.74,289.52Z" transform="translate(-45 -45.13)"/><path d="M290.31,290.37h-1.22V278.32H292a2.62,2.62,0,0,1,1.6.4,2.53,2.53,0,0,1,.85,1.14,4.14,4.14,0,0,1,.32,1.62,4.35,4.35,0,0,1-.21,1.36,4.23,4.23,0,0,1-.6,1.18,3.21,3.21,0,0,1-1.18.93,2.33,2.33,0,0,1,.45.41,3.83,3.83,0,0,1,.36.63q.23.43.39.81l1.49,3.57h-1.4l-1.29-3.17a7.25,7.25,0,0,0-1.22-2h-1.23Zm0-6.38h1.19a1.86,1.86,0,0,0,1.14-.3,2,2,0,0,0,.61-.87,3.12,3.12,0,0,0,.23-1.22,2.73,2.73,0,0,0-.18-1,1.55,1.55,0,0,0-1.71-1.05h-1.28Z" transform="translate(-45 -45.13)"/><path d="M297.5,290.37V278.32h5.28v1.33h-4.07v3.79h3.55v1.22h-3.55v4.39h4.4v1.32Z" transform="translate(-45 -45.13)"/><path d="M207.64,220.34c-.34.42-14.63,18.2-15.61,20.33l-.86,16.49,1.62,3.7s5.49.46,7.51,1.57a1.22,1.22,0,0,1,.6,1.32h0a1.3,1.3,0,0,1-.54.84c-1,.7-3.92,2.1-10.9,1.77-6.78-.31-9.61-1.56-10.63-2.19a1,1,0,0,1-.5-.89h0a1.49,1.49,0,0,1,1-1.27,21,21,0,0,1,7.26-1.28l1.59-3.51.84-16.77L173.8,219.13a1,1,0,0,1,.57-1.54,64,64,0,0,1,32.81,1.24A1,1,0,0,1,207.64,220.34Z" transform="translate(-45 -45.13)"/><path class="cls-5" d="M191.46,267.35c-.64,0-1.32,0-2,0-6.9-.33-9.91-1.61-11.09-2.34a2,2,0,0,1-1-1.69,2.32,2.32,0,0,1,1.54-2.11A21,21,0,0,1,186,259.8l1.27-2.81.81-16.26-15-21a2,2,0,0,1-.24-1.8,1.94,1.94,0,0,1,1.35-1.2,64.36,64.36,0,0,1,33.32,1.24,1.9,1.9,0,0,1,.91,3h0c-2.08,2.56-14.09,17.61-15.41,20L192.13,257l1.3,3c1.53.15,5.51.64,7.33,1.63a2.17,2.17,0,0,1,1.07,2.34,2.27,2.27,0,0,1-.93,1.43C199.78,266.15,197.12,267.35,191.46,267.35Zm-4.86-5.67a20.06,20.06,0,0,0-6.84,1.18c-.15.07-.49.26-.49.42a.13.13,0,0,0,0,.09c.83.51,3.48,1.74,10.18,2.05s9.48-1,10.33-1.6a.4.4,0,0,0,.15-.25.29.29,0,0,0-.13-.31c-1.52-.84-5.67-1.34-7.14-1.46l-.56-.05-1.93-4.42.88-16.89.07-.17c1.06-2.29,15.55-20.3,15.73-20.52h0a63.23,63.23,0,0,0-32.32-1.23L190,240.17l-.86,17.28-1.92,4.23Z" transform="translate(-45 -45.13)"/><path class="cls-5" d="M192.33,223.7h-.27a63.55,63.55,0,0,1-17.48-2.2l.53-1.81a61.73,61.73,0,0,0,16.95,2.13h.27a93.13,93.13,0,0,0,13.65-1l.31,1.86A96.05,96.05,0,0,1,192.33,223.7Z" transform="translate(-45 -45.13)"/><path class="cls-5" d="M184.84,234.85,175.13,221s11.7,3.5,22.41,1.94c0,0-3.85,10.65-12.7,12.41" transform="translate(-45 -45.13)"/><path class="cls-2" d="M197.22,223.7s7.26-.73,9.69-.95l-14.06,20.37L186.34,235S194.45,234.21,197.22,223.7Z" transform="translate(-45 -45.13)"/></svg>