<svg id="Layer_1" data-name="Layer 1" xmlns="http://www.w3.org/2000/svg" viewBox="0 0 207.59 356.82"><defs><style>.cls-1{fill:#fff;stroke:#fff;stroke-miterlimit:10;stroke-width:5px;}</style></defs><title>martini</title><path class="cls-1" d="M210.17,376.48c-36.91,0-71.84-3-72.36-3.08a1.5,1.5,0,0,1-.23-2.95c16.12-4,41.56-12.26,43.17-15.49,2.49-5,7.28-7.46,12-9.8,2.85-7.16,1.28-101.21-.5-163.5l-4.17-10.43h-8.28a1.49,1.49,0,0,1-1.26-.69L99.5,47.38a1.49,1.49,0,0,1,1.26-2.31H300.35a1.49,1.49,0,0,1,1.26,2.31l-79,123.16a1.49,1.49,0,0,1-1.26.69h-8.28l-4.17,10.43c-1.78,62.29-3.35,156.34-.5,163.5,4.69,2.34,9.48,4.82,12,9.8,1.37,1.87,15.87,5.89,25.46,8.54,17.9,5,20.14,5.86,20,8-.06,1-.88,1.68-2.44,1.91C247.93,375.71,228.79,376.48,210.17,376.48Zm-63.48-5.41c21.15,1.51,76.57,4.7,113.41-.25-3.64-1.25-9.81-3-15.08-4.42-17.6-4.88-26-7.47-27.35-10.09-2.1-4.21-6.39-6.35-10.94-8.63-1.58-.79-3.75-1.87-2.57-84.73.57-40.5,1.73-81.24,1.74-81.64a1.55,1.55,0,0,1,.1-.52l4.65-11.62a1.5,1.5,0,0,1,1.4-.94h8.47L297.61,48.07H103.51l77.08,120.16h8.48a1.5,1.5,0,0,1,1.39.94l4.65,11.62a1.55,1.55,0,0,1,.1.52c0,.4,1.17,41.14,1.75,81.64,1.17,82.86-1,83.94-2.58,84.73-4.55,2.28-8.84,4.42-10.94,8.63C181.21,360.76,159.12,367.56,146.69,371.07Z" transform="translate(-96.76 -22.15)"/><path class="cls-1" d="M176,136.37c-11.72,0-21.26-7.45-21.26-16.6s9.54-16.61,21.26-16.61,21.25,7.45,21.25,16.61S187.75,136.37,176,136.37Zm0-30.21c-10.07,0-18.26,6.11-18.26,13.61s8.19,13.6,18.26,13.6,18.25-6.1,18.25-13.6S186.09,106.16,176,106.16Z" transform="translate(-96.76 -22.15)"/><path class="cls-1" d="M190,129.56c-9.68,0-9.8-7.39-9.8-7.47,0-2.64.82-4.57,2.43-5.73,3.23-2.33,8.47-.63,8.69-.55a.51.51,0,0,1,.32.63.52.52,0,0,1-.64.32c-.05,0-5-1.62-7.79.42-1.33,1-2,2.61-2,4.91,0,.27.14,6.47,8.8,6.47a.5.5,0,0,1,.5.5A.5.5,0,0,1,190,129.56Z" transform="translate(-96.76 -22.15)"/><path class="cls-1" d="M170.22,112.64a1,1,0,0,1-.81-.41l-62.74-86a1,1,0,1,1,1.61-1.17l62.74,86a1,1,0,0,1-.21,1.39A1,1,0,0,1,170.22,112.64Z" transform="translate(-96.76 -22.15)"/><path class="cls-1" d="M195.78,149.82a1,1,0,0,1-.77-.36l-11.62-14a1,1,0,0,1,1.54-1.28l11.62,14a1,1,0,0,1-.77,1.64Z" transform="translate(-96.76 -22.15)"/><path class="cls-1" d="M278.27,80.6H121.42a1.5,1.5,0,1,1,0-3H278.27a1.5,1.5,0,0,1,0,3Z" transform="translate(-96.76 -22.15)"/><path class="cls-1" d="M213.21,171.89H192.29a1,1,0,1,1,0-2h20.92a1,1,0,1,1,0,2Z" transform="translate(-96.76 -22.15)"/></svg>