<svg id="Layer_1" data-name="Layer 1" xmlns="http://www.w3.org/2000/svg" viewBox="0 0 297.81 306.35"><defs><style>.cls-1{fill:none;stroke:#fff;stroke-linecap:round;stroke-linejoin:round;stroke-width:7px;}</style></defs><title>rocks</title><path class="cls-1" d="M339.41,62.88l-3,38.21-5.24,66.82L322.91,193,308.47,334.58,261,346H197.09l-49.5-9.13L133.16,188.46l-10.32-27.4-2.72-64.81-1.4-33.37S287.84,83.43,339.41,62.88Z" transform="translate(-45.09 -43.15)"/><path class="cls-1" d="M120.78,62.88s94.88-20.55,216.56,0" transform="translate(-45.09 -43.15)"/><path class="cls-1" d="M121.81,101.7S257,122.25,336.31,104" transform="translate(-45.09 -43.15)"/><path class="cls-1" d="M289.74,228.27l-31.94,17c-5.31,2.82-11.68,1.07-15.18-4.17l-25.93-38.75c-4.73-7.07-2.25-17.18,5.07-20.61l42.3-19.87c6.29-2.95,13.54.34,16.15,7.32l15.56,41.65C298.27,217.49,295.62,225.15,289.74,228.27Z" transform="translate(-45.09 -43.15)"/><path class="cls-1" d="M226.41,213.49l-27.56,32a11.62,11.62,0,0,1-16.88,1.2l-24.55-22a15.82,15.82,0,0,1-2.36-20.12l10.21-15.48c11.48-17.39,34.06-19.89,48.43-5.37L225.87,196A13.16,13.16,0,0,1,226.41,213.49Z" transform="translate(-45.09 -43.15)"/><path class="cls-1" d="M271.8,237.81l-3.57,48.76c-.56,7.57-6.6,13.17-13.43,12.44l-39.51-4.24c-6.67-.71-11.59-7.21-11.06-14.6l2.28-32.11c.51-7.07,5.84-12.52,12.25-12.52h20.15" transform="translate(-45.09 -43.15)"/><polyline class="cls-1" points="266.87 257.18 255.12 266.31 211.81 275.45 152 275.45 112.81 266.31 98.95 257.18"/><path class="cls-1" d="M121.81,141.88l-17.53,16.9L63,142.79c-6.19,18.27,33,45.67,33,45.67l-6.19,16c-20.62,2.28-41.25-41.1-41.25-41.1,24.75-84.48,55.69-6.85,55.69-6.85C79.53,56,112.53,53.75,112.53,53.75c51.56-29.68,35.06,43.38,35.06,43.38,45.38-43.38,66-6.85,66-6.85L173.3,107.66" transform="translate(-45.09 -43.15)"/></svg>