<svg id="Layer_1" data-name="Layer 1" xmlns="http://www.w3.org/2000/svg" viewBox="0 0 141.28 375.34"><defs><style>.cls-1{fill:#fff;}</style></defs><title>tiki</title><path class="cls-1" d="M226.27,380.5c-8.54,0-14.82-1.38-18.65-4.09l-.18-.14-.14-.12h-.05c-.68-.41-3.23-1.7-9.09-2.44a2.25,2.25,0,0,1-1.49-.82,1.68,1.68,0,0,1-.32-1.23,2.06,2.06,0,0,1,2.11-1.58,1.62,1.62,0,0,1,.31,0c7.89,1,10.87,2.95,11.6,3.52,3.09,2.15,8.4,3.22,15.83,3.22a140.73,140.73,0,0,0,27.5-3.28l.27-.06.09-.26c3.71-10.52,5.68-19.68,5.87-27.22.53-21.33-13.22-22.83-13.81-22.88a2.11,2.11,0,0,1-1.82-1.27,1.66,1.66,0,0,1,.57-1.89L256,311.13l0-.19c4.32-26.06.39-31.81-1.49-33.07a2,2,0,0,0-1.15-.37h-.27l-.06,0a2.26,2.26,0,0,1-.9.18,2.34,2.34,0,0,1-1.44-.49,1.65,1.65,0,0,1-.58-1.9c9.87-26.19,9.64-41.84,7.7-50.36-2.17-9.57-6.88-12.61-6.93-12.64a1.73,1.73,0,0,1-.85-1.79,2,2,0,0,1,1.53-1.45c7.72-1.86,9.2-33.24,7.79-54.92a1.68,1.68,0,0,1,.48-1.27c2-2.09,2.89-3.88,2.56-5.33a3.64,3.64,0,0,0-1.87-2.19,1.84,1.84,0,0,1-1.18-1.64V106.58a2.15,2.15,0,0,1,4.26,0v36.2l.21.15a6.85,6.85,0,0,1,2.76,3.94c.54,2.37-.4,4.94-2.79,7.64l-.14.16v.2c.18,3.26.71,14.82.1,26.51-.85,15.93-3.46,25.88-7.78,29.57l-.39.33.34.38c13.82,15.67,4.12,48.51-.69,61.9l-.17.48.48.16a6.83,6.83,0,0,1,1.58.78c5.61,3.75,6.58,15.95,3,37.31a1.78,1.78,0,0,1-.66,1.07l-9,7.14.76.33c5,2.16,13.37,8.3,12.95,25.26-.2,8.18-2.39,18.09-6.5,29.45a2,2,0,0,1-1.47,1.22,167.4,167.4,0,0,1-19.28,3.15,106.68,106.68,0,0,1-10.66.59Z" transform="translate(-131.64 -5.66)"/><path class="cls-1" d="M261.49,105.25a1.51,1.51,0,0,1,1.63,1.33V143l.42.3A6.38,6.38,0,0,1,266.1,147c.5,2.2-.4,4.62-2.68,7.2l-.27.31,0,.41c.18,3.26.71,14.79.1,26.45-.84,15.79-3.4,25.62-7.61,29.22l-.77.66.67.76c2.52,2.86,5.73,8.25,6.72,17.71,1.23,11.72-1.3,26.42-7.5,43.69l-.35,1,1,.32a6.23,6.23,0,0,1,1.46.73c5.36,3.58,6.28,16,2.75,36.8a1.26,1.26,0,0,1-.48.77l-8.31,6.62-1.31,1,1.54.66c11.41,4.9,12.82,17.64,12.64,24.79-.2,8.13-2.38,18-6.47,29.29a1.54,1.54,0,0,1-1.11.91,168.93,168.93,0,0,1-19.22,3.14c-3.83.38-7.4.58-10.62.58-8.44,0-14.62-1.35-18.37-4l-.12-.1-4.54-4,1.54,2.72a36.15,36.15,0,0,0-6.56-1.35,1.67,1.67,0,0,1-1.15-.63,1.15,1.15,0,0,1-.22-.86,1.56,1.56,0,0,1,1.61-1.15h.25c7.76,1,10.65,2.87,11.35,3.43l0,0h0c3.14,2.19,8.56,3.29,16.09,3.29a141.47,141.47,0,0,0,27.6-3.29l.55-.12.18-.53c3.73-10.56,5.71-19.77,5.9-27.37.54-21.78-13.66-23.34-14.26-23.39a1.63,1.63,0,0,1-1.4-.95,1.14,1.14,0,0,1,.41-1.32l11-8.73.3-.24.06-.38c1.46-8.78,4.2-29.62-1.71-33.57a2.57,2.57,0,0,0-1.42-.45h-.33l-.18.07a2,2,0,0,1-.72.14,1.85,1.85,0,0,1-1.13-.38,1.17,1.17,0,0,1-.43-1.33c8-21.12,10.56-38.16,7.73-50.65-2.22-9.77-7.1-12.93-7.15-13a1.23,1.23,0,0,1-.63-1.26,1.47,1.47,0,0,1,1.16-1.06c8.45-2,9.49-35.09,8.16-55.44a1.19,1.19,0,0,1,.35-.89c2.15-2.22,3.06-4.17,2.69-5.79a4.15,4.15,0,0,0-2.18-2.55,1.32,1.32,0,0,1-.86-1.17V106.58a1.51,1.51,0,0,1,1.63-1.33m0-1a2.49,2.49,0,0,0-2.63,2.33v37.16a2.32,2.32,0,0,0,1.46,2.08,3.23,3.23,0,0,1,1.6,1.86c.29,1.26-.55,2.94-2.42,4.87a2.14,2.14,0,0,0-.63,1.65c1.62,24.92-.75,52.8-7.41,54.4a2.48,2.48,0,0,0-1.9,1.85,2.23,2.23,0,0,0,1.08,2.3c.18.11,18,12-1,62.4a2.17,2.17,0,0,0,.73,2.47,2.88,2.88,0,0,0,1.76.6,2.93,2.93,0,0,0,1.09-.21h.14a1.6,1.6,0,0,1,.87.28c1.42,1,5.66,6.09,1.28,32.58l-11,8.73a2.16,2.16,0,0,0-.73,2.45,2.6,2.6,0,0,0,2.25,1.59c.56.06,13.87,1.5,13.35,22.37-.18,7.5-2.15,16.6-5.84,27.07a141.35,141.35,0,0,1-27.39,3.27c-6.42,0-12.21-.81-15.52-3.11-.8-.63-3.87-2.62-11.84-3.63l-.38,0a2.55,2.55,0,0,0-2.6,2,2.4,2.4,0,0,0,2.23,2.63c6.8.86,9,2.44,9,2.44h0l.22.17c3.93,2.78,10.28,4.18,18.94,4.18h0c3.24,0,6.82-.2,10.71-.59a165.05,165.05,0,0,0,19.34-3.16,2.49,2.49,0,0,0,1.83-1.54c4.13-11.41,6.33-21.37,6.53-29.6.42-17-7.73-23.37-13.25-25.74l8.31-6.62a2.27,2.27,0,0,0,.84-1.38c3.66-21.57,2.62-33.93-3.17-37.8a6.87,6.87,0,0,0-1.7-.84c14.41-40.11,5.54-56.78.59-62.4,3.45-3,6.92-10.39,8-29.92.61-11.72.08-23.29-.1-26.56,2.51-2.84,3.48-5.56,2.91-8.09a7.37,7.37,0,0,0-3-4.24V106.58a2.49,2.49,0,0,0-2.63-2.33Z" transform="translate(-131.64 -5.66)"/><path class="cls-1" d="M216.38,359.48c-5.39,0-9.17-.17-9.87-.2a2.31,2.31,0,0,1-1.57-.72,1.65,1.65,0,0,1-.43-1.21,2,2,0,0,1,2.17-1.72c.12,0,4,.19,9.73.19,5.1,0,10-.15,14.44-.45,15.71-1.05,26.12-3.91,29.32-8.06a2.25,2.25,0,0,1,1.79-.83,2.36,2.36,0,0,1,1.22.34,1.83,1.83,0,0,1,.88,1.2,1.64,1.64,0,0,1-.33,1.3c-4.06,5.26-15,8.53-32.6,9.7C226.5,359.33,221.54,359.48,216.38,359.48Z" transform="translate(-131.64 -5.66)"/><path class="cls-1" d="M262,347h0a1.87,1.87,0,0,1,1,.26,1.33,1.33,0,0,1,.64.87,1.1,1.1,0,0,1-.23.9c-4,5.15-14.82,8.35-32.23,9.51-4.62.31-9.57.46-14.72.46-5.37,0-9.14-.17-9.84-.2a1.73,1.73,0,0,1-1.22-.56,1.1,1.1,0,0,1-.31-.84,1.55,1.55,0,0,1,1.67-1.25h.06c.16,0,4,.19,9.68.19,5.1,0,10-.15,14.47-.45,11.21-.75,25.46-2.79,29.68-8.26A1.75,1.75,0,0,1,262,347m0-1a2.76,2.76,0,0,0-2.18,1c-3.11,4-13.4,6.83-29,7.87-5.22.35-10.28.45-14.4.45-5.68,0-9.57-.19-9.63-.19h-.11a2.54,2.54,0,0,0-2.67,2.19,2.44,2.44,0,0,0,2.47,2.45c.28,0,4.19.21,9.9.21,4.2,0,9.38-.1,14.78-.46,17.72-1.18,28.81-4.51,33-9.9a2.16,2.16,0,0,0-.7-3.23A2.77,2.77,0,0,0,262,346Z" transform="translate(-131.64 -5.66)"/><path class="cls-1" d="M220.51,332.67c-.6,0-1.21,0-1.82-.08a20.17,20.17,0,0,1-13.75-7.07,1.69,1.69,0,0,1-.44-1.11V296.54a1.8,1.8,0,0,1,1.09-1.59,37.06,37.06,0,0,1,15-3,39.39,39.39,0,0,1,14.94,2.94,2.12,2.12,0,0,1,.77.53c.53.59,5.13,6.13,3.94,20.86a2,2,0,0,1-2.13,1.7H238a2.24,2.24,0,0,1-1.55-.74A1.68,1.68,0,0,1,236,316c.91-11.19-1.87-16.54-2.74-17.92l-.09-.14-.15-.06a34.62,34.62,0,0,0-12.46-2.32,34.24,34.24,0,0,0-11.49,2l-.32.12v26.12l.14.14a15.59,15.59,0,0,0,10.19,5c.47,0,.93.06,1.39.06,8.36,0,16.16-5.89,16.23-5.95a2.39,2.39,0,0,1,3.05.17,1.67,1.67,0,0,1,.51,1.29,1.76,1.76,0,0,1-.7,1.25C239.21,326.05,230.53,332.67,220.51,332.67Z" transform="translate(-131.64 -5.66)"/><path class="cls-1" d="M220.62,292.45a38.77,38.77,0,0,1,14.75,2.9,1.69,1.69,0,0,1,.59.41c.51.56,5,6,3.82,20.48a1.54,1.54,0,0,1-1.64,1.24H238a1.71,1.71,0,0,1-1.2-.57,1.14,1.14,0,0,1-.3-.84c.89-11-1.67-16.42-2.82-18.23l-.18-.28-.3-.11a35.19,35.19,0,0,0-12.64-2.36,34.81,34.81,0,0,0-11.66,2l-.65.24V324l.28.29a16.17,16.17,0,0,0,10.51,5.17c.47,0,.95.06,1.43.06,8.51,0,16.21-5.8,16.54-6.06a1.85,1.85,0,0,1,1.12-.36,1.83,1.83,0,0,1,1.27.49,1.2,1.2,0,0,1,.36.9,1.27,1.27,0,0,1-.51.89c-.36.28-8.89,6.79-18.76,6.79-.59,0-1.19,0-1.77-.07a19.71,19.71,0,0,1-13.43-6.9,1.18,1.18,0,0,1-.3-.78V296.54a1.29,1.29,0,0,1,.8-1.14,36.66,36.66,0,0,1,14.81-2.95m0-1a37.49,37.49,0,0,0-15.24,3.05,2.28,2.28,0,0,0-1.37,2v27.87a2.12,2.12,0,0,0,.56,1.44,20.64,20.64,0,0,0,14.08,7.24c.63.05,1.25.07,1.86.07,10.2,0,19-6.69,19.37-7a2.15,2.15,0,0,0,.25-3.28,2.81,2.81,0,0,0-2-.79,2.85,2.85,0,0,0-1.73.57c-.08.06-7.7,5.85-15.93,5.85-.45,0-.9,0-1.35-.05a15.15,15.15,0,0,1-9.87-4.88V298a33.66,33.66,0,0,1,11.31-1.93,34.08,34.08,0,0,1,12.28,2.29c.9,1.42,3.55,6.63,2.67,17.61a2.44,2.44,0,0,0,2.43,2.49h.18a2.51,2.51,0,0,0,2.63-2.16c1.21-14.93-3.52-20.63-4.07-21.23a2.47,2.47,0,0,0-.95-.66,39.7,39.7,0,0,0-15.13-3Z" transform="translate(-131.64 -5.66)"/><path class="cls-1" d="M219.47,295.27a1.85,1.85,0,1,1,0-3.65c20.54,0,30.38-15.89,30.79-16.56a2.21,2.21,0,0,1,1.9-1,2.4,2.4,0,0,1,1,.22,1.9,1.9,0,0,1,1,1.14,1.59,1.59,0,0,1-.17,1.29A41.36,41.36,0,0,1,219.47,295.27Z" transform="translate(-131.64 -5.66)"/><path class="cls-1" d="M252.16,274.57h0a1.94,1.94,0,0,1,.8.17,1.42,1.42,0,0,1,.78.84,1.11,1.11,0,0,1-.12.89,40.86,40.86,0,0,1-34.15,18.3,1.35,1.35,0,1,1,0-2.65c20.82,0,30.8-16.12,31.22-16.81a1.72,1.72,0,0,1,1.47-.74m0-1a2.7,2.7,0,0,0-2.33,1.23c-.4.66-10.09,16.32-30.36,16.32a2.34,2.34,0,1,0,0,4.65,41.89,41.89,0,0,0,35-18.79,2.2,2.2,0,0,0-1.09-3.14,2.82,2.82,0,0,0-1.23-.27Z" transform="translate(-131.64 -5.66)"/><path class="cls-1" d="M217.87,220.19a16.52,16.52,0,0,1-3.68-.36,2.05,2.05,0,0,1-1.38-1.12c-5.09-11.7,0-24.42,14.81-36.78a119.2,119.2,0,0,1,23.52-15,2.49,2.49,0,0,1,1-.22,2.37,2.37,0,0,1,1.25.36,1.71,1.71,0,0,1,.85,1.73c-4.12,25.07-12.33,41.26-24.39,48.11A24.27,24.27,0,0,1,217.87,220.19Zm30.57-47.62c-12,6.59-39.19,24-32.14,43.61l.11.31.32,0c.33,0,.72.05,1.16.05a19.56,19.56,0,0,0,9.82-2.82c6.95-4,16.31-14.36,21.46-40.64l.21-1Z" transform="translate(-131.64 -5.66)"/><path class="cls-1" d="M252.16,167.19h0a1.85,1.85,0,0,1,1,.28,1.21,1.21,0,0,1,.63,1.22c-4.1,24.92-12.22,41-24.15,47.77a23.8,23.8,0,0,1-11.75,3.23,15.27,15.27,0,0,1-3.55-.35,1.5,1.5,0,0,1-1-.83c-5-11.47.08-24,14.67-36.2a117.83,117.83,0,0,1,23.42-14.94,1.8,1.8,0,0,1,.8-.18m-34.27,49.87A20,20,0,0,0,228,214.17c7-4.09,16.52-14.51,21.71-41l.41-2.1-1.88,1c-12.12,6.65-39.55,24.28-32.37,44.22l.22.61.64,0c.39,0,.79.05,1.2.05m34.26-50.87a2.92,2.92,0,0,0-1.22.27,119.8,119.8,0,0,0-23.63,15.08c-15,12.52-20.14,25.44-15,37.37a2.51,2.51,0,0,0,1.72,1.4,16.8,16.8,0,0,0,3.8.38,24.8,24.8,0,0,0,12.25-3.36c12.2-6.94,20.49-23.25,24.64-48.47a2.24,2.24,0,0,0-1.08-2.24,3,3,0,0,0-1.53-.43ZM248.68,173c-5.08,25.94-14.24,36.24-21.22,40.3a19.13,19.13,0,0,1-9.57,2.75c-.42,0-.8,0-1.12-.05-7-19.34,20.56-36.77,31.91-43Z" transform="translate(-131.64 -5.66)"/><path class="cls-1" d="M199.63,247.78a1.85,1.85,0,1,1,0-3.66c7.15,0,8.29-5.08,8.4-5.66a1.8,1.8,0,0,1,.7-1.1c1.27-1,3.64-2.77,5.82-2.77a3.25,3.25,0,0,1,1.77.49,2.64,2.64,0,0,1,1.21,1.54l.19.61.55-.33c2.3-1.39,5.08-3.45,5.3-5.34,0-.34.17-1.38-1.9-2.75-2.37-1.57-4.44-2.37-6.16-2.37a5.31,5.31,0,0,0-.91.08,4,4,0,0,0-2.56,1.66,2.23,2.23,0,0,1-1.89,1,2.18,2.18,0,0,1-1.93-1c-6.11-10.8-.39-29.39-.14-30.17a2.1,2.1,0,0,1,2-1.36,2.88,2.88,0,0,1,.59.07,2.1,2.1,0,0,1,1.33,1,1.51,1.51,0,0,1,.14,1.26c0,.15-4.5,14.61-1.47,24.48l.17.56.53-.26a8.68,8.68,0,0,1,2.1-.72,9.33,9.33,0,0,1,2-.2c2.68,0,5.63,1.05,8.77,3.13s3.72,4.46,3.53,6c-.64,5.53-10.18,9.73-12.08,10.52a2.39,2.39,0,0,1-.92.18,2.33,2.33,0,0,1-1.48-.51,1.74,1.74,0,0,1-.65-1.19l-.17-2-.79,1.9C210.85,242.88,207.92,247.78,199.63,247.78Z" transform="translate(-131.64 -5.66)"/><path class="cls-1" d="M210.13,197.13a1.89,1.89,0,0,1,.47.06,1.59,1.59,0,0,1,1,.72,1.1,1.1,0,0,1,.1.87c-.05.15-4.56,14.71-1.48,24.78l.34,1.12,1.06-.52a7.86,7.86,0,0,1,2-.68,9.11,9.11,0,0,1,1.89-.19,15.69,15.69,0,0,1,8.49,3.05c2.41,1.6,3.55,3.51,3.32,5.53-.48,4.06-6.65,8-11.79,10.1a1.75,1.75,0,0,1-.72.15,1.79,1.79,0,0,1-1.16-.4,1.19,1.19,0,0,1-.47-.84l-.35-4.1-1.57,3.8c-.84,2-3.64,6.7-11.63,6.7a1.36,1.36,0,1,1,0-2.66c7.55,0,8.78-5.44,8.89-6.07a1.37,1.37,0,0,1,.51-.8c1.23-.93,3.51-2.66,5.52-2.66a2.76,2.76,0,0,1,1.51.41,2.19,2.19,0,0,1,1,1.27l.38,1.22,1.1-.66c2.39-1.45,5.3-3.62,5.54-5.71.13-1.14-.56-2.19-2.12-3.22-2.46-1.63-4.62-2.46-6.44-2.46a5.5,5.5,0,0,0-1,.09,4.43,4.43,0,0,0-2.88,1.89,1.76,1.76,0,0,1-1.45.76h0a1.71,1.71,0,0,1-1.47-.75c-6-10.62-.34-29-.09-29.78a1.6,1.6,0,0,1,1.57-1m0-1a2.6,2.6,0,0,0-2.53,1.71c-.25.79-6,19.57.18,30.57a2.68,2.68,0,0,0,2.32,1.26h.05a2.74,2.74,0,0,0,2.32-1.22,3.47,3.47,0,0,1,2.22-1.44,4.39,4.39,0,0,1,.82-.07,11.44,11.44,0,0,1,5.89,2.29c1.8,1.2,1.71,2,1.68,2.27-.18,1.51-2.48,3.41-5.07,5a3.2,3.2,0,0,0-1.42-1.83,3.81,3.81,0,0,0-2-.56c-2.34,0-4.79,1.85-6.12,2.87a2.3,2.3,0,0,0-.89,1.41c-.1.54-1.16,5.25-7.91,5.25a2.35,2.35,0,1,0,0,4.66c7.57,0,11.21-4.09,12.55-7.32a2.24,2.24,0,0,0,.84,1.54,2.88,2.88,0,0,0,1.79.62,3.09,3.09,0,0,0,1.11-.22c2-.81,11.71-5.12,12.39-10.92.2-1.68-.29-4.18-3.76-6.47-3.23-2.15-6.26-3.22-9-3.22a10.29,10.29,0,0,0-2.09.21,9.88,9.88,0,0,0-2.23.76c-3-9.71,1.43-24,1.48-24.18a2.3,2.3,0,0,0-1.83-2.86,2.94,2.94,0,0,0-.71-.09Z" transform="translate(-131.64 -5.66)"/><path class="cls-1" d="M226.33,280.86A32.61,32.61,0,0,1,205.11,273l-.15-.12h0a5.46,5.46,0,0,0-2.76-.64,9.52,9.52,0,0,0-2,.23,2.33,2.33,0,0,1-.53.06,2.38,2.38,0,0,1-1.33-.41,1.73,1.73,0,0,1-.8-1.42V259.37a1.91,1.91,0,0,1,1.66-1.78,24.23,24.23,0,0,1,4.31-.32,47.52,47.52,0,0,1,21.66,5.65,8.75,8.75,0,0,0,3,.5,10.44,10.44,0,0,0,3.39-.57c4-1.39,7.65-5.33,10.47-11.38a2.13,2.13,0,0,1,2-1.15,2.63,2.63,0,0,1,.83.14,2,2,0,0,1,1.17,1.08,1.51,1.51,0,0,1,0,1.28c-3.34,7.19-7.72,11.72-13,13.48a15,15,0,0,1-4.74.76,13.32,13.32,0,0,1-5-.9l-.13-.06a43.48,43.48,0,0,0-19.64-5.16l-1.16,0-.48,0v7.63h.5a9.13,9.13,0,0,1,5.9,1.88,28,28,0,0,0,18.17,6.72c.69,0,1.08,0,1.1,0h.21c16.36,0,16.55-8.41,16.55-8.5a1.58,1.58,0,0,1,.05-.38c4.91-19.32,7.42-41.4,3.33-43.47a2.73,2.73,0,0,0-1.24-.29,4.19,4.19,0,0,0-1,.13c-5,1.26-12.36,10.46-15.79,16a1.7,1.7,0,0,1-.15.22,39.83,39.83,0,0,1-14.9,11.39,27.86,27.86,0,0,1-10.68,2.2,18.36,18.36,0,0,1-4.85-.55,2,2,0,0,1-1.27-1,1.63,1.63,0,0,1-.07-1.28,2.13,2.13,0,0,1,2-1.26,2.59,2.59,0,0,1,.68.09,13.75,13.75,0,0,0,3.47.38,23.33,23.33,0,0,0,8.84-1.86,35.62,35.62,0,0,0,13.19-10.12c1-1.64,10-15.6,18.32-17.66a8.77,8.77,0,0,1,2.19-.28,7.44,7.44,0,0,1,3.41.8c8.79,4.44,1.24,37.27-1.29,47.23-.22,2-2.18,11.88-20.68,11.92C227.49,280.83,227,280.86,226.33,280.86Z" transform="translate(-131.64 -5.66)"/><path class="cls-1" d="M246.32,221.37h0a7.06,7.06,0,0,1,3.19.74c5.7,2.89,5.12,20.33-1.55,46.66l0,.07v.08c-.2,1.89-2.1,11.36-20.17,11.4h-.07c-.4,0-.88,0-1.36,0a32.13,32.13,0,0,1-20.89-7.7l-.29-.25h-.1a6.08,6.08,0,0,0-2.89-.64,9.74,9.74,0,0,0-2.1.24,2,2,0,0,1-.43.05,1.91,1.91,0,0,1-1-.32,1.23,1.23,0,0,1-.58-1V259.37a1.45,1.45,0,0,1,1.26-1.29,23.89,23.89,0,0,1,4.21-.31,47.1,47.1,0,0,1,21.44,5.59l.05,0,0,0a9.18,9.18,0,0,0,3.14.51,10.85,10.85,0,0,0,3.55-.6c4.16-1.43,7.88-5.46,10.76-11.64a1.67,1.67,0,0,1,1.53-.86,2.06,2.06,0,0,1,.65.11,1.51,1.51,0,0,1,.89.8,1.08,1.08,0,0,1,0,.88c-3.29,7.06-7.57,11.5-12.72,13.21a14.65,14.65,0,0,1-4.59.74,13.28,13.28,0,0,1-4.82-.85l-.1,0a43.44,43.44,0,0,0-19.88-5.22l-1.18,0-1,0v8.6h1a8.58,8.58,0,0,1,5.57,1.76,28.46,28.46,0,0,0,18.49,6.84c.68,0,1.1,0,1.15,0h.17c16.85,0,17.05-8.91,17.05-9a1.22,1.22,0,0,1,0-.26,187.78,187.78,0,0,0,5.13-28.87c1.14-13.55-1.26-14.76-2-15.16a3.15,3.15,0,0,0-1.48-.35,4.69,4.69,0,0,0-1.13.15c-5.84,1.45-13.59,12.17-16.09,16.18l-.11.16a39.35,39.35,0,0,1-14.71,11.24,27.3,27.3,0,0,1-10.49,2.17,18.32,18.32,0,0,1-4.71-.53,1.57,1.57,0,0,1-1-.75,1.07,1.07,0,0,1-.05-.88,1.65,1.65,0,0,1,1.56-.94,1.79,1.79,0,0,1,.55.08,14.39,14.39,0,0,0,3.6.39,23.64,23.64,0,0,0,9-1.9,36.21,36.21,0,0,0,13.38-10.25l.05-.06,0-.06c1-1.57,9.87-15.37,18-17.39a8.76,8.76,0,0,1,2.07-.26m0-1a9.75,9.75,0,0,0-2.31.29c-8.4,2.09-17.21,15.65-18.58,17.83a35.21,35.21,0,0,1-13,10,22.72,22.72,0,0,1-8.65,1.82,12.75,12.75,0,0,1-3.33-.36,2.94,2.94,0,0,0-.82-.11,2.6,2.6,0,0,0-2.49,1.59,2.27,2.27,0,0,0,1.66,2.94,18.79,18.79,0,0,0,5,.57,28.35,28.35,0,0,0,10.88-2.24,40.32,40.32,0,0,0,15.08-11.53,2.69,2.69,0,0,0,.2-.27c3.39-5.44,10.58-14.52,15.48-15.74a3.53,3.53,0,0,1,.89-.12,2.2,2.2,0,0,1,1,.24c3.45,1.74,1.77,21.79-3.6,42.89a2.22,2.22,0,0,0-.06.51c0,.08-.19,8-16.05,8h-.26a8.76,8.76,0,0,1-1.06,0,27.56,27.56,0,0,1-17.82-6.59,9.62,9.62,0,0,0-6.24-2v-6.65l1.14,0a42.82,42.82,0,0,1,19.42,5.1l.15.08a14.06,14.06,0,0,0,5.23.94,15.53,15.53,0,0,0,4.9-.79c5.43-1.8,9.91-6.42,13.32-13.74a2.25,2.25,0,0,0-1.43-3,2.92,2.92,0,0,0-1-.17,2.66,2.66,0,0,0-2.44,1.44c-2.76,5.93-6.28,9.77-10.18,11.11a9.88,9.88,0,0,1-3.22.55,8.11,8.11,0,0,1-2.79-.45,48.29,48.29,0,0,0-21.89-5.7,25.06,25.06,0,0,0-4.41.33,2.42,2.42,0,0,0-2.06,2.27v11.36a2.22,2.22,0,0,0,1,1.83,2.82,2.82,0,0,0,1.62.5,3.39,3.39,0,0,0,.64-.07,8.64,8.64,0,0,1,1.89-.22,4.66,4.66,0,0,1,2.62.64,33.17,33.17,0,0,0,21.55,7.95c.69,0,1.19,0,1.43,0,18.93-.05,21-10.25,21.16-12.3,3.3-13,9.9-43.32,1-47.8a8,8,0,0,0-3.64-.85Z" transform="translate(-131.64 -5.66)"/><path class="cls-1" d="M213.64,259.13a2,2,0,0,1-2.13-1.82v-6.2a2.16,2.16,0,0,1,4.26,0v6.2A2,2,0,0,1,213.64,259.13Z" transform="translate(-131.64 -5.66)"/><path class="cls-1" d="M213.64,249.79a1.5,1.5,0,0,1,1.63,1.32v6.2a1.67,1.67,0,0,1-3.26,0v-6.2a1.5,1.5,0,0,1,1.63-1.32m0-1a2.49,2.49,0,0,0-2.63,2.32v6.2a2.65,2.65,0,0,0,5.26,0v-6.2a2.49,2.49,0,0,0-2.63-2.32Z" transform="translate(-131.64 -5.66)"/><path class="cls-1" d="M225.24,252.94a2.3,2.3,0,0,1-1.6-.69,1.66,1.66,0,0,1-.46-1.21l.41-9.21a2,2,0,0,1,2.13-1.75,2.32,2.32,0,0,1,1.67.69,1.68,1.68,0,0,1,.46,1.2l-.41,9.21a2,2,0,0,1-2.13,1.76Z" transform="translate(-131.64 -5.66)"/><path class="cls-1" d="M225.72,240.58h.07a1.75,1.75,0,0,1,1.23.53,1.17,1.17,0,0,1,.33.84l-.41,9.21a1.52,1.52,0,0,1-1.63,1.28h-.07a1.75,1.75,0,0,1-1.23-.53,1.15,1.15,0,0,1-.33-.84l.41-9.22a1.53,1.53,0,0,1,1.63-1.27m0-1a2.52,2.52,0,0,0-2.63,2.23l-.41,9.21a2.47,2.47,0,0,0,2.53,2.42h.1a2.51,2.51,0,0,0,2.63-2.24l.41-9.21a2.47,2.47,0,0,0-2.53-2.41Z" transform="translate(-131.64 -5.66)"/><path class="cls-1" d="M235.81,245.71a2,2,0,0,1-2.13-1.82V229.17a2.15,2.15,0,0,1,4.26,0v14.72A2,2,0,0,1,235.81,245.71Z" transform="translate(-131.64 -5.66)"/><path class="cls-1" d="M235.81,227.84a1.5,1.5,0,0,1,1.63,1.33v14.72a1.67,1.67,0,0,1-3.26,0V229.17a1.51,1.51,0,0,1,1.63-1.33m0-1a2.49,2.49,0,0,0-2.63,2.33v14.72a2.65,2.65,0,0,0,5.26,0V229.17a2.49,2.49,0,0,0-2.63-2.33Z" transform="translate(-131.64 -5.66)"/><path class="cls-1" d="M222.43,280.59a2.27,2.27,0,0,1-1.62-.7,1.67,1.67,0,0,1-.45-1.2l.49-10.1a2,2,0,0,1,2.16-1.75,2.27,2.27,0,0,1,1.64.7,1.63,1.63,0,0,1,.45,1.2l-.49,10.1a2,2,0,0,1-2.12,1.75Z" transform="translate(-131.64 -5.66)"/><path class="cls-1" d="M223,267.34h0a1.75,1.75,0,0,1,1.23.53,1.17,1.17,0,0,1,.32.85l-.49,10.1a1.52,1.52,0,0,1-1.62,1.27h-.08a1.72,1.72,0,0,1-1.23-.54,1.12,1.12,0,0,1-.32-.84l.49-10.1a1.57,1.57,0,0,1,1.66-1.27m0-1a2.54,2.54,0,0,0-2.66,2.22l-.49,10.1a2.46,2.46,0,0,0,2.51,2.43h.12a2.51,2.51,0,0,0,2.62-2.23l.49-10.1a2.45,2.45,0,0,0-2.51-2.42Z" transform="translate(-131.64 -5.66)"/><path class="cls-1" d="M208.21,274.88a2,2,0,0,1-2.12-1.74l-.42-7.49a1.67,1.67,0,0,1,.45-1.2,2.29,2.29,0,0,1,1.58-.71h0a2.07,2.07,0,0,1,2.23,1.74l.41,7.49a1.62,1.62,0,0,1-.44,1.2,2.29,2.29,0,0,1-1.58.71Z" transform="translate(-131.64 -5.66)"/><path class="cls-1" d="M207.76,264.24a1.55,1.55,0,0,1,1.67,1.27l.42,7.49a1.14,1.14,0,0,1-.32.84,1.75,1.75,0,0,1-1.21.54h-.11a1.54,1.54,0,0,1-1.62-1.27l-.42-7.48a1.17,1.17,0,0,1,.32-.85,1.75,1.75,0,0,1,1.21-.54h.06m0-1h-.09a2.45,2.45,0,0,0-2.49,2.44l.41,7.49a2.51,2.51,0,0,0,2.62,2.21h.13a2.45,2.45,0,0,0,2.5-2.44l-.41-7.49a2.53,2.53,0,0,0-2.67-2.21Z" transform="translate(-131.64 -5.66)"/><path class="cls-1" d="M235.81,279.78a2,2,0,0,1-2.13-1.82V269.7a2.15,2.15,0,0,1,4.26,0V278A2,2,0,0,1,235.81,279.78Z" transform="translate(-131.64 -5.66)"/><path class="cls-1" d="M235.81,268.37a1.51,1.51,0,0,1,1.63,1.33V278a1.67,1.67,0,0,1-3.26,0V269.7a1.51,1.51,0,0,1,1.63-1.33m0-1a2.49,2.49,0,0,0-2.63,2.33V278a2.65,2.65,0,0,0,5.26,0V269.7a2.49,2.49,0,0,0-2.63-2.33Z" transform="translate(-131.64 -5.66)"/><path class="cls-1" d="M199.63,190a2.25,2.25,0,0,1-1.67-.7,1.6,1.6,0,0,1-.45-1.28,1.73,1.73,0,0,1,.76-1.24l61.86-44.4a2.36,2.36,0,0,1,1.36-.42,2.28,2.28,0,0,1,1.68.69,1.67,1.67,0,0,1,.44,1.29,1.72,1.72,0,0,1-.75,1.24L201,189.54A2.39,2.39,0,0,1,199.63,190Z" transform="translate(-131.64 -5.66)"/><path class="cls-1" d="M261.49,142.42h0a1.76,1.76,0,0,1,1.31.53,1.16,1.16,0,0,1,.32.9,1.29,1.29,0,0,1-.55.89l-61.86,44.39a1.82,1.82,0,0,1-1.08.33,1.75,1.75,0,0,1-1.3-.53,1.12,1.12,0,0,1-.32-.9,1.25,1.25,0,0,1,.55-.89l61.86-44.39a1.81,1.81,0,0,1,1.07-.33m0-1a2.81,2.81,0,0,0-1.65.52L198,186.33a2.15,2.15,0,0,0-.38,3.27,2.76,2.76,0,0,0,2,.86,2.84,2.84,0,0,0,1.66-.52l61.86-44.39a2.14,2.14,0,0,0,.38-3.27,2.73,2.73,0,0,0-2-.86Z" transform="translate(-131.64 -5.66)"/><path class="cls-1" d="M204.3,174.48a2.38,2.38,0,0,1-1.41-.46,1.71,1.71,0,0,1-.71-1.25,1.63,1.63,0,0,1,.48-1.28c6.89-7.14,42.06-42.75,57.69-42.75a8.41,8.41,0,0,1,1.62.15,2.14,2.14,0,0,1,1.4.91,1.63,1.63,0,0,1,.21,1.25,2.1,2.1,0,0,1-2.08,1.45,2.61,2.61,0,0,1-.48-.05,5.34,5.34,0,0,0-1-.09c-10.23,0-38.59,25.43-54.07,41.45A2.23,2.23,0,0,1,204.3,174.48Z" transform="translate(-131.64 -5.66)"/><path class="cls-1" d="M260.35,129.24a8.1,8.1,0,0,1,1.52.14,1.61,1.61,0,0,1,1.07.69,1.09,1.09,0,0,1,.15.86,1.58,1.58,0,0,1-1.6,1.06,2.31,2.31,0,0,1-.37,0,5.66,5.66,0,0,0-1.11-.1c-10.39,0-38.9,25.52-54.43,41.61a1.79,1.79,0,0,1-1.28.51,1.81,1.81,0,0,1-1.1-.36,1.26,1.26,0,0,1-.53-.89,1.19,1.19,0,0,1,.35-.9c19-19.65,45.37-42.59,57.33-42.59m0-1c-15.77,0-50.94,35.53-58.05,42.9a2.15,2.15,0,0,0,.29,3.28,2.89,2.89,0,0,0,1.71.56,2.78,2.78,0,0,0,2-.82c16.93-17.53,44.12-41.3,53.71-41.3a4.4,4.4,0,0,1,.91.08,2.81,2.81,0,0,0,.57.05,2.57,2.57,0,0,0,2.57-1.82,2.33,2.33,0,0,0-2-2.77,8.56,8.56,0,0,0-1.71-.16Z" transform="translate(-131.64 -5.66)"/><path class="cls-1" d="M172.6,380.5a106.68,106.68,0,0,1-10.66-.59,165.09,165.09,0,0,1-19.28-3.15,2,2,0,0,1-1.48-1.22c-4.11-11.36-6.29-21.27-6.49-29.45-.42-17,7.93-23.1,12.94-25.26l.77-.33-9-7.14a1.73,1.73,0,0,1-.66-1.07c-3.62-21.36-2.66-33.56,3-37.31a7,7,0,0,1,1.58-.78l.48-.16-.17-.48c-4.81-13.39-14.52-46.23-.69-61.9l.34-.38-.39-.33c-4.32-3.69-6.94-13.64-7.78-29.57-.62-11.69-.08-23.24.09-26.51v-.2l-.13-.16c-2.39-2.7-3.33-5.27-2.79-7.64a6.85,6.85,0,0,1,2.76-3.94l.2-.15v-36.2a2.15,2.15,0,0,1,4.26,0v37.16a1.82,1.82,0,0,1-1.15,1.63,3.6,3.6,0,0,0-1.9,2.25c-.3,1.44.56,3.21,2.56,5.28a1.65,1.65,0,0,1,.49,1.27c-1.41,21.68.07,53.06,7.79,54.92a2,2,0,0,1,1.52,1.45,1.72,1.72,0,0,1-.85,1.79c-.06,0-4.69,3.25-6.83,12.85-1.92,8.59-2.15,24.26,7.61,50.15a1.68,1.68,0,0,1-.55,2,2.33,2.33,0,0,1-1.37.46,2.08,2.08,0,0,1-1-.24l-.07,0-.07,0h-.24a2,2,0,0,0-1.24.45c-1.84,1.35-5.64,7.28-1.38,33l0,.19L154,320a1.65,1.65,0,0,1,.58,1.9,2.1,2.1,0,0,1-1.84,1.26c-.6.05-14.32,1.56-13.8,22.88.19,7.54,2.17,16.7,5.88,27.22l.09.26.27.06a140.63,140.63,0,0,0,27.5,3.28c7.43,0,12.74-1.07,15.8-3.2.75-.59,3.74-2.55,11.62-3.54l.31,0a2.06,2.06,0,0,1,2.11,1.58,1.6,1.6,0,0,1-.32,1.23,2.2,2.2,0,0,1-1.48.82c-6.79.86-9.08,2.42-9.32,2.59l-.09.08C187.43,379.12,181.15,380.5,172.6,380.5Z" transform="translate(-131.64 -5.66)"/><path class="cls-1" d="M137.38,105.25a1.51,1.51,0,0,1,1.63,1.33v37.16a1.3,1.3,0,0,1-.85,1.17l-.77.34,0,.12a3.76,3.76,0,0,0-1.45,2.14c-.34,1.62.57,3.55,2.69,5.74a1.15,1.15,0,0,1,.35.89c-1.32,20.35-.28,53.4,8.17,55.44a1.46,1.46,0,0,1,1.15,1.06,1.23,1.23,0,0,1-.65,1.28c-.05,0-4.85,3.35-7,13.16-2.81,12.58-.24,29.55,7.63,50.43a1.18,1.18,0,0,1-.37,1.42,1.85,1.85,0,0,1-1.08.37,1.59,1.59,0,0,1-.74-.18l-.14-.07-.14,0s-.16,0-.33,0a2.56,2.56,0,0,0-1.54.54c-5.73,4.24-3,24.83-1.58,33.48l.06.38.31.24,11,8.73a1.17,1.17,0,0,1,.43,1.33,1.65,1.65,0,0,1-1.44.94c-.6.06-14.77,1.61-14.23,23.39.18,7.6,2.17,16.81,5.89,27.37l.19.53.54.12a141.67,141.67,0,0,0,27.61,3.29c7.53,0,12.94-1.1,16.09-3.29h0l0,0c.7-.56,3.59-2.45,11.34-3.43h.24a1.58,1.58,0,0,1,1.63,1.15,1.11,1.11,0,0,1-.23.86,1.67,1.67,0,0,1-1.14.63c-7,.88-9.32,2.5-9.57,2.69l-.05,0,0,0,0,0h0c-3.75,2.65-9.93,4-18.37,4-3.21,0-6.78-.2-10.61-.58a167,167,0,0,1-19.22-3.14,1.57,1.57,0,0,1-1.12-.91c-4.09-11.31-6.26-21.16-6.46-29.29-.18-7.15,1.23-19.89,12.64-24.79l1.54-.66-1.31-1L139.75,313a1.26,1.26,0,0,1-.48-.77c-3.54-20.84-2.61-33.22,2.74-36.8a6.3,6.3,0,0,1,1.47-.73l1-.32-.34-1c-14.36-39.94-5.33-56.24-.79-61.4l.68-.76-.78-.66c-4.21-3.6-6.77-13.43-7.6-29.22-.62-11.65-.08-23.19.09-26.45l0-.41-.28-.31c-2.28-2.58-3.18-5-2.68-7.2a6.43,6.43,0,0,1,2.57-3.65l.41-.3V106.58a1.51,1.51,0,0,1,1.63-1.33m0-1a2.49,2.49,0,0,0-2.63,2.33v35.94a7.36,7.36,0,0,0-2.95,4.24c-.58,2.53.4,5.25,2.9,8.09-.17,3.27-.71,14.84-.09,26.56,1,19.53,4.5,27,7.95,29.92-4.95,5.62-13.82,22.29.6,62.4a6.54,6.54,0,0,0-1.7.84c-5.8,3.87-6.83,16.23-3.18,37.8a2.24,2.24,0,0,0,.85,1.38l8.31,6.62c-5.52,2.37-13.68,8.76-13.25,25.74.2,8.23,2.4,18.19,6.52,29.6a2.53,2.53,0,0,0,1.83,1.54,165.91,165.91,0,0,0,19.35,3.16q5.84.58,10.71.59c8.66,0,15-1.4,19-4.18a1.71,1.71,0,0,0,.14-.11s2.21-1.63,9.09-2.5a2.38,2.38,0,0,0,2.23-2.63,2.55,2.55,0,0,0-2.61-2l-.36,0c-8,1-11,3-11.84,3.63-3.32,2.3-9.1,3.11-15.52,3.11a141.35,141.35,0,0,1-27.39-3.27c-3.69-10.47-5.66-19.57-5.85-27.07-.51-20.87,12.79-22.31,13.33-22.36a2.61,2.61,0,0,0,2.28-1.58,2.16,2.16,0,0,0-.73-2.47l-11-8.73c-4.33-26.13-.2-31.49,1.19-32.51a1.57,1.57,0,0,1,.94-.35h.15a2.75,2.75,0,0,0,1.2.29,2.86,2.86,0,0,0,1.67-.56,2.2,2.2,0,0,0,.72-2.59c-18.79-49.85-1.13-62.3-1-62.4a2.21,2.21,0,0,0,1.07-2.3,2.46,2.46,0,0,0-1.9-1.85c-6.65-1.6-9-29.48-7.4-54.4a2.18,2.18,0,0,0-.63-1.65c-1.85-1.91-2.69-3.58-2.43-4.83a3.22,3.22,0,0,1,1.61-1.9h0a2.31,2.31,0,0,0,1.45-2.08V106.58a2.49,2.49,0,0,0-2.63-2.33Z" transform="translate(-131.64 -5.66)"/><path class="cls-1" d="M182.5,359.48c-5.16,0-10.13-.15-14.75-.46-17.57-1.17-28.54-4.44-32.6-9.7a1.64,1.64,0,0,1-.33-1.3,1.76,1.76,0,0,1,.88-1.2,2.33,2.33,0,0,1,1.22-.34,2.23,2.23,0,0,1,1.78.83c3.2,4.15,13.62,7,29.32,8.06,4.48.3,9.34.45,14.44.45,5.72,0,9.62-.19,9.65-.19h0a2.08,2.08,0,0,1,2.25,1.72,1.66,1.66,0,0,1-.44,1.21,2.29,2.29,0,0,1-1.56.72C191.66,359.31,187.89,359.48,182.5,359.48Z" transform="translate(-131.64 -5.66)"/><path class="cls-1" d="M136.92,347a1.74,1.74,0,0,1,1.38.63c4.22,5.47,18.48,7.51,29.69,8.26,4.49.3,9.36.45,14.46.45,5.64,0,9.53-.19,9.67-.19h.08a1.55,1.55,0,0,1,1.67,1.25,1.18,1.18,0,0,1-.31.84,1.75,1.75,0,0,1-1.22.56c-.7,0-4.47.2-9.84.2-5.15,0-10.1-.15-14.72-.46-17.42-1.16-28.27-4.36-32.24-9.51a1.1,1.1,0,0,1-.23-.9,1.38,1.38,0,0,1,.65-.87,1.84,1.84,0,0,1,1-.26m0-1a2.8,2.8,0,0,0-1.48.41,2.16,2.16,0,0,0-.69,3.23c4.16,5.39,15.25,8.72,33,9.9,5.41.36,10.58.46,14.79.46,5.7,0,9.61-.19,9.89-.21a2.45,2.45,0,0,0,2.48-2.45,2.53,2.53,0,0,0-2.67-2.19h-.11c-.07,0-4,.19-9.64.19-4.12,0-9.18-.1-14.39-.45-15.56-1-25.85-3.83-29-7.87a2.76,2.76,0,0,0-2.18-1Z" transform="translate(-131.64 -5.66)"/><path class="cls-1" d="M178.36,332.67c-10,0-18.7-6.62-19.06-6.9a1.73,1.73,0,0,1-.7-1.25,1.69,1.69,0,0,1,.5-1.29,2.39,2.39,0,0,1,3.05-.17c.08.06,7.85,5.95,16.22,5.95.48,0,.95,0,1.43-.06a15.66,15.66,0,0,0,10.17-5l.14-.14V297.67l-.33-.12a34.57,34.57,0,0,0-23.95.37l-.15.05-.09.14c-.87,1.38-3.64,6.72-2.74,17.92a1.63,1.63,0,0,1-.41,1.21,2.25,2.25,0,0,1-1.56.74h-.15a2,2,0,0,1-2.13-1.7c-1.19-14.72,3.42-20.27,4-20.86a2.17,2.17,0,0,1,.76-.53A39.46,39.46,0,0,1,178.25,292a37.06,37.06,0,0,1,15,3,1.8,1.8,0,0,1,1.09,1.59v27.87a1.64,1.64,0,0,1-.44,1.11,20.15,20.15,0,0,1-13.75,7.07C179.57,332.64,179,332.67,178.36,332.67Z" transform="translate(-131.64 -5.66)"/><path class="cls-1" d="M178.26,291.45v1a36.69,36.69,0,0,1,14.8,2.95,1.3,1.3,0,0,1,.81,1.14v27.87a1.19,1.19,0,0,1-.31.78,19.68,19.68,0,0,1-13.42,6.9c-.59.05-1.19.07-1.78.07-9.88,0-18.39-6.51-18.75-6.79a1.2,1.2,0,0,1-.51-.89,1.13,1.13,0,0,1,.36-.89,1.76,1.76,0,0,1,1.27-.5,1.84,1.84,0,0,1,1.12.37c.08.06,8,6.05,16.52,6.05q.75,0,1.47-.06a16.16,16.16,0,0,0,10.49-5.17l.28-.29V297.33l-.66-.25a35.09,35.09,0,0,0-24.3.37l-.3.12-.18.28c-.89,1.4-3.73,6.87-2.82,18.22a1.13,1.13,0,0,1-.29.84,1.71,1.71,0,0,1-1.2.57h-.12a1.54,1.54,0,0,1-1.64-1.24c-1.17-14.51,3.3-19.91,3.82-20.48a1.65,1.65,0,0,1,.58-.41,38.85,38.85,0,0,1,14.75-2.9v-1m0,0a39.69,39.69,0,0,0-15.12,3,2.58,2.58,0,0,0-1,.66c-.54.6-5.27,6.3-4.07,21.23a2.53,2.53,0,0,0,2.64,2.16h.17a2.45,2.45,0,0,0,2.44-2.49c-.89-11,1.78-16.22,2.66-17.61a34.12,34.12,0,0,1,12.28-2.29A33.73,33.73,0,0,1,189.61,298v25.56a15.18,15.18,0,0,1-9.85,4.87c-.47,0-.93.06-1.39.06-8.17,0-15.77-5.74-15.91-5.85a2.87,2.87,0,0,0-1.73-.57,2.81,2.81,0,0,0-2,.79,2.14,2.14,0,0,0,.24,3.28c.39.31,9.17,7,19.37,7,.62,0,1.24,0,1.86-.07a20.68,20.68,0,0,0,14.09-7.24,2.17,2.17,0,0,0,.56-1.44V296.54a2.3,2.3,0,0,0-1.37-2,37.56,37.56,0,0,0-15.25-3.05Z" transform="translate(-131.64 -5.66)"/><path class="cls-1" d="M179.4,295.27a41.29,41.29,0,0,1-34.57-18.55,1.59,1.59,0,0,1-.17-1.29,1.88,1.88,0,0,1,1-1.14,2.38,2.38,0,0,1,1-.23,2.16,2.16,0,0,1,1.89,1c.41.67,10.25,16.56,30.79,16.56a1.85,1.85,0,1,1,0,3.65Z" transform="translate(-131.64 -5.66)"/><path class="cls-1" d="M146.72,274.56a1.72,1.72,0,0,1,1.47.76c.41.68,10.39,16.8,31.21,16.8a1.35,1.35,0,1,1,0,2.65,40.84,40.84,0,0,1-34.15-18.3,1.06,1.06,0,0,1-.11-.89,1.37,1.37,0,0,1,.78-.84,1.8,1.8,0,0,1,.8-.18m0-1a2.93,2.93,0,0,0-1.23.27A2.21,2.21,0,0,0,144.4,277a41.87,41.87,0,0,0,35,18.79,2.34,2.34,0,1,0,0-4.65c-20.26,0-30-15.65-30.36-16.32a2.68,2.68,0,0,0-2.32-1.24Z" transform="translate(-131.64 -5.66)"/><path class="cls-1" d="M181,220.19a24.32,24.32,0,0,1-12-3.29c-12.07-6.86-20.28-23.05-24.4-48.12a1.72,1.72,0,0,1,.86-1.73,2.34,2.34,0,0,1,1.25-.36,2.48,2.48,0,0,1,1,.22,119.35,119.35,0,0,1,23.53,15C186,194.29,191.15,207,186.07,218.71a2.07,2.07,0,0,1-1.39,1.12A16.62,16.62,0,0,1,181,220.19Zm3.07-1.61h0v0ZM149.7,173.1c5.19,26.45,14.64,36.76,21.66,40.75a19.57,19.57,0,0,0,9.66,2.7c.43,0,.8,0,1.12-.05l.33,0,.11-.31c7-19.57-20.14-37-32.15-43.6l-.94-.51Z" transform="translate(-131.64 -5.66)"/><path class="cls-1" d="M146.72,167.19h0a1.8,1.8,0,0,1,.8.18,118.59,118.59,0,0,1,23.42,14.94c14.59,12.21,19.66,24.72,14.67,36.2a1.52,1.52,0,0,1-1.05.83,15.41,15.41,0,0,1-3.56.35,23.83,23.83,0,0,1-11.75-3.23c-11.92-6.78-20.05-22.85-24.15-47.77a1.25,1.25,0,0,1,.63-1.22,1.87,1.87,0,0,1,1-.28M181,217.05c.4,0,.79,0,1.16-.05l.65-.05.22-.61c7.17-19.93-20.26-37.56-32.38-44.21l-1.87-1,.41,2.1c5.22,26.63,14.79,37,21.9,41.08a20,20,0,0,0,9.91,2.77m3.06,2v-2h0v2m-37.36-52.89a2.91,2.91,0,0,0-1.52.43,2.23,2.23,0,0,0-1.08,2.24c4.15,25.22,12.44,41.53,24.64,48.47A24.76,24.76,0,0,0,181,220.69a16.84,16.84,0,0,0,3.81-.38,2.51,2.51,0,0,0,1.71-1.4c5.19-11.93,0-24.85-14.94-37.37a120,120,0,0,0-23.64-15.08,2.86,2.86,0,0,0-1.22-.27ZM181,216.05a19.2,19.2,0,0,1-9.42-2.63c-7-4-16.29-14.3-21.41-40.41,11.36,6.23,38.87,23.66,31.92,43-.31,0-.68,0-1.09,0Zm3,2h0Z" transform="translate(-131.64 -5.66)"/><path class="cls-1" d="M199.24,247.78c-8.29,0-11.21-4.91-12.09-7l-.79-1.91-.17,2.06a1.73,1.73,0,0,1-.65,1.2,2.3,2.3,0,0,1-1.47.51,2.6,2.6,0,0,1-.92-.18c-1.91-.79-11.44-5-12.09-10.52-.18-1.54.29-3.84,3.54-6s6.09-3.13,8.77-3.13a9.24,9.24,0,0,1,2,.2,8.61,8.61,0,0,1,2.11.72l.53.26.17-.56c3-9.87-1.43-24.33-1.48-24.48a1.59,1.59,0,0,1,.14-1.26,2.08,2.08,0,0,1,1.34-1,2.32,2.32,0,0,1,.58-.08A2.11,2.11,0,0,1,190.8,198c.24.78,6,19.37-.14,30.17a2.29,2.29,0,0,1-3.84,0,4,4,0,0,0-2.54-1.64,5.31,5.31,0,0,0-.91-.08c-1.72,0-3.8.8-6.17,2.37-2.06,1.37-1.94,2.41-1.9,2.75.22,1.89,3,3.95,5.31,5.34l.54.33.19-.61a2.68,2.68,0,0,1,1.21-1.54,3.3,3.3,0,0,1,1.77-.49c2.18,0,4.55,1.8,5.83,2.77a1.77,1.77,0,0,1,.7,1.11c.11.59,1.24,5.65,8.39,5.65a1.85,1.85,0,1,1,0,3.66Z" transform="translate(-131.64 -5.66)"/><path class="cls-1" d="M188.74,197.13a1.61,1.61,0,0,1,1.58,1c.24.77,5.9,19.16-.1,29.78a1.81,1.81,0,0,1-3,0l0-.06,0,0a4.49,4.49,0,0,0-2.83-1.8,5.39,5.39,0,0,0-1-.09c-1.82,0-4,.83-6.44,2.46-1.57,1-2.26,2.09-2.13,3.22.25,2.09,3.15,4.26,5.55,5.71l1.09.66.38-1.22a2.2,2.2,0,0,1,1-1.27,2.75,2.75,0,0,1,1.5-.41c2,0,4.3,1.73,5.53,2.66a1.29,1.29,0,0,1,.51.83c.11.61,1.33,6,8.88,6a1.36,1.36,0,1,1,0,2.66c-8,0-10.79-4.69-11.62-6.71L186,236.75l-.33,4.12a1.26,1.26,0,0,1-.48.85,1.85,1.85,0,0,1-1.88.25c-5.14-2.12-11.3-6-11.78-10.1-.24-2,.91-3.93,3.31-5.53,3.06-2,5.92-3.05,8.5-3.05a9,9,0,0,1,1.88.19,7.72,7.72,0,0,1,2,.68l1.06.52.35-1.12c3.08-10.06-1.44-24.63-1.48-24.78a1.06,1.06,0,0,1,.1-.87,1.54,1.54,0,0,1,1-.72,1.82,1.82,0,0,1,.46-.06m0-1a2.8,2.8,0,0,0-.7.09,2.31,2.31,0,0,0-1.84,2.86c.05.16,4.46,14.47,1.48,24.18a9.79,9.79,0,0,0-2.22-.76,10.36,10.36,0,0,0-2.09-.21c-2.78,0-5.82,1.07-9.05,3.22-3.46,2.29-3.95,4.79-3.75,6.47.68,5.8,10.44,10.11,12.39,10.92a3,3,0,0,0,1.11.22,2.83,2.83,0,0,0,1.78-.62,2.26,2.26,0,0,0,.84-1.54c1.34,3.22,5,7.32,12.55,7.32a2.35,2.35,0,1,0,0-4.66c-6.74,0-7.8-4.71-7.9-5.23a2.23,2.23,0,0,0-.89-1.43c-1.33-1-3.78-2.87-6.13-2.87a3.8,3.8,0,0,0-2,.56,3.16,3.16,0,0,0-1.42,1.83c-2.59-1.57-4.9-3.47-5.07-5,0-.26-.13-1.07,1.68-2.27a11.44,11.44,0,0,1,5.89-2.29,5.09,5.09,0,0,1,.81.07,3.55,3.55,0,0,1,2.21,1.4,2.8,2.8,0,0,0,4.7,0c6.22-11,.43-29.78.18-30.57a2.59,2.59,0,0,0-2.53-1.71Z" transform="translate(-131.64 -5.66)"/><path class="cls-1" d="M172.56,280.86c-.69,0-1.17,0-1.41,0-18.54,0-20.5-9.88-20.7-11.85-2.54-10-10.1-42.86-1.31-47.3a7.52,7.52,0,0,1,3.42-.8,8.77,8.77,0,0,1,2.19.28c8.3,2.06,17.27,16,18.27,17.6a35.69,35.69,0,0,0,13.23,10.18,23.33,23.33,0,0,0,8.84,1.86,14.14,14.14,0,0,0,3.47-.37,2.22,2.22,0,0,1,.67-.1,2.14,2.14,0,0,1,2,1.28,1.59,1.59,0,0,1-.07,1.28,2,2,0,0,1-1.26,1,18.33,18.33,0,0,1-4.84.55,27.91,27.91,0,0,1-10.69-2.2,39.72,39.72,0,0,1-14.89-11.39l-.16-.21c-3.43-5.51-10.74-14.71-15.79-16a4.18,4.18,0,0,0-1-.13,2.75,2.75,0,0,0-1.25.29c-4.09,2.07-1.57,24.15,3.34,43.47a1.73,1.73,0,0,1,.05.38c0,.37.45,8.5,16.54,8.5h.21c.09,0,.51,0,1.2,0a27.74,27.74,0,0,0,18.07-6.72,9.2,9.2,0,0,1,5.91-1.88h.49V261l-.48,0-1.13,0a43.57,43.57,0,0,0-19.67,5.16l-.12.06a13.47,13.47,0,0,1-5,.9,15.31,15.31,0,0,1-4.74-.76c-5.29-1.76-9.67-6.29-13-13.48a1.59,1.59,0,0,1,0-1.28,2,2,0,0,1,1.18-1.08,2.63,2.63,0,0,1,.83-.14,2.14,2.14,0,0,1,2,1.15c2.82,6,6.44,10,10.47,11.38a10.33,10.33,0,0,0,3.37.57,8.7,8.7,0,0,0,3-.49,47.74,47.74,0,0,1,21.7-5.66,24.42,24.42,0,0,1,4.32.32,1.92,1.92,0,0,1,1.65,1.78v11.36a1.75,1.75,0,0,1-.79,1.42,2.38,2.38,0,0,1-1.34.41,2.46,2.46,0,0,1-.53-.06,9.41,9.41,0,0,0-2-.23,4.91,4.91,0,0,0-3,.8A32.58,32.58,0,0,1,172.56,280.86Z" transform="translate(-131.64 -5.66)"/><path class="cls-1" d="M152.56,221.37a8.82,8.82,0,0,1,2.07.26c8.11,2,17,15.82,18,17.39l0,.06,0,.06a36.21,36.21,0,0,0,13.38,10.25,23.71,23.71,0,0,0,9,1.9,14.38,14.38,0,0,0,3.62-.4,2.25,2.25,0,0,1,.52-.07,1.64,1.64,0,0,1,1.57,1,1.07,1.07,0,0,1-.06.87,1.48,1.48,0,0,1-1,.74,18.28,18.28,0,0,1-4.7.53,27.31,27.31,0,0,1-10.5-2.17,39.25,39.25,0,0,1-14.7-11.24.91.91,0,0,1-.11-.16c-2.5-4-10.25-14.73-16.09-16.18a4.83,4.83,0,0,0-1.14-.15,3.1,3.1,0,0,0-1.47.35c-.79.4-3.19,1.61-2.06,15.16a187.78,187.78,0,0,0,5.13,28.87.91.91,0,0,1,0,.3c0,.36.48,9,17,9h.17s.48,0,1.24,0a28.3,28.3,0,0,0,18.4-6.84,8.62,8.62,0,0,1,5.58-1.76h1v-8.6l-1,0-1.16,0a44,44,0,0,0-19.89,5.21l-.09.05a12.86,12.86,0,0,1-4.84.86,14.59,14.59,0,0,1-4.58-.74c-5.16-1.71-9.44-6.15-12.73-13.21a1.12,1.12,0,0,1,0-.88,1.54,1.54,0,0,1,.89-.8,2.08,2.08,0,0,1,.66-.11,1.67,1.67,0,0,1,1.53.86c2.87,6.18,6.59,10.21,10.76,11.64a10.73,10.73,0,0,0,3.53.6,9.3,9.3,0,0,0,3.16-.52l.06,0,0,0a47,47,0,0,1,21.42-5.59,24.09,24.09,0,0,1,4.22.31,1.44,1.44,0,0,1,1.25,1.29v11.36a1.23,1.23,0,0,1-.58,1,1.85,1.85,0,0,1-1,.32,2,2,0,0,1-.43-.05,9.72,9.72,0,0,0-2.09-.24,5.43,5.43,0,0,0-3.31.9l0,0,0,0a32.07,32.07,0,0,1-20.82,7.65c-.72,0-1.2,0-1.37,0h-.07c-18.08,0-20-9.51-20.17-11.4v-.08l0-.07c-6.68-26.33-7.26-43.77-1.55-46.66a7,7,0,0,1,3.19-.74m0-1a7.93,7.93,0,0,0-3.64.85c-8.87,4.48-2.27,34.79,1,47.8.21,2.05,2.23,12.25,21.17,12.3.24,0,.74,0,1.44,0,3.76,0,13.41-.77,21.48-7.9a4.54,4.54,0,0,1,2.69-.69,8.63,8.63,0,0,1,1.88.22,3.39,3.39,0,0,0,.64.07,2.77,2.77,0,0,0,1.61-.5,2.22,2.22,0,0,0,1-1.83V259.37a2.41,2.41,0,0,0-2.06-2.27,24.93,24.93,0,0,0-4.41-.33,48.25,48.25,0,0,0-21.88,5.7,8.3,8.3,0,0,1-2.81.45,9.87,9.87,0,0,1-3.21-.55c-3.9-1.34-7.42-5.18-10.18-11.11a2.64,2.64,0,0,0-2.43-1.44,2.92,2.92,0,0,0-1,.17,2.25,2.25,0,0,0-1.43,3c3.41,7.32,7.89,11.94,13.31,13.74a15.58,15.58,0,0,0,4.9.79,14.21,14.21,0,0,0,5.24-.94l.15-.08a42.75,42.75,0,0,1,19.43-5.1l1.12,0v6.65a9.61,9.61,0,0,0-6.23,2,27.4,27.4,0,0,1-17.74,6.59c-.66,0-1.07,0-1.15,0h-.26c-15.61,0-16-7.7-16-8a2.24,2.24,0,0,0-.07-.51c-5.36-21.1-7-41.15-3.59-42.89a2.15,2.15,0,0,1,1-.24,3.47,3.47,0,0,1,.89.12c4.9,1.22,12.1,10.3,15.49,15.74a1.71,1.71,0,0,0,.2.27,40.24,40.24,0,0,0,15.08,11.53,28.28,28.28,0,0,0,10.88,2.24,18.79,18.79,0,0,0,5-.57,2.26,2.26,0,0,0,1.65-2.92,2.62,2.62,0,0,0-2.5-1.61,3.21,3.21,0,0,0-.8.11,13.14,13.14,0,0,1-3.34.36,22.68,22.68,0,0,1-8.64-1.82,35.24,35.24,0,0,1-13-10c-1.37-2.18-10.18-15.74-18.57-17.83a9.81,9.81,0,0,0-2.31-.29Z" transform="translate(-131.64 -5.66)"/><path class="cls-1" d="M185.24,259.13a2,2,0,0,1-2.13-1.82v-6.2a2.16,2.16,0,0,1,4.26,0v6.2A2,2,0,0,1,185.24,259.13Z" transform="translate(-131.64 -5.66)"/><path class="cls-1" d="M185.24,249.79a1.5,1.5,0,0,1,1.63,1.32v6.2a1.67,1.67,0,0,1-3.26,0v-6.2a1.5,1.5,0,0,1,1.63-1.32m0-1a2.49,2.49,0,0,0-2.63,2.32v6.2a2.65,2.65,0,0,0,5.26,0v-6.2a2.49,2.49,0,0,0-2.63-2.32Z" transform="translate(-131.64 -5.66)"/><path class="cls-1" d="M173.56,252.94a2,2,0,0,1-2.12-1.76L171,242a1.64,1.64,0,0,1,.46-1.2,2.25,2.25,0,0,1,1.58-.69h0a2.06,2.06,0,0,1,2.21,1.75l.4,9.21a1.69,1.69,0,0,1-.45,1.21,2.31,2.31,0,0,1-1.59.69Z" transform="translate(-131.64 -5.66)"/><path class="cls-1" d="M173.15,240.58a1.54,1.54,0,0,1,1.64,1.27l.4,9.22a1.14,1.14,0,0,1-.32.84,1.79,1.79,0,0,1-1.24.53h-.07a1.52,1.52,0,0,1-1.62-1.28l-.41-9.21a1.13,1.13,0,0,1,.33-.84,1.71,1.71,0,0,1,1.23-.53h.06m0-1h-.09a2.46,2.46,0,0,0-2.53,2.41l.41,9.21a2.5,2.5,0,0,0,2.62,2.24h.11a2.46,2.46,0,0,0,2.52-2.42l-.4-9.21a2.53,2.53,0,0,0-2.64-2.23Z" transform="translate(-131.64 -5.66)"/><path class="cls-1" d="M163.06,245.71a2,2,0,0,1-2.13-1.82V229.17a2.15,2.15,0,0,1,4.26,0v14.72A2,2,0,0,1,163.06,245.71Z" transform="translate(-131.64 -5.66)"/><path class="cls-1" d="M163.06,227.84a1.5,1.5,0,0,1,1.63,1.33v14.72a1.67,1.67,0,0,1-3.26,0V229.17a1.5,1.5,0,0,1,1.63-1.33m0-1a2.49,2.49,0,0,0-2.63,2.33v14.72a2.65,2.65,0,0,0,5.26,0V229.17a2.49,2.49,0,0,0-2.63-2.33Z" transform="translate(-131.64 -5.66)"/><path class="cls-1" d="M176.39,280.59a2,2,0,0,1-2.13-1.75l-.49-10.1a1.64,1.64,0,0,1,.46-1.2,2.24,2.24,0,0,1,1.58-.7h0a2.05,2.05,0,0,1,2.22,1.75l.49,10.1a1.64,1.64,0,0,1-.46,1.2,2.24,2.24,0,0,1-1.58.7Z" transform="translate(-131.64 -5.66)"/><path class="cls-1" d="M175.85,267.34a1.55,1.55,0,0,1,1.68,1.27l.49,10.1a1.16,1.16,0,0,1-.32.84,1.75,1.75,0,0,1-1.23.54h-.08a1.53,1.53,0,0,1-1.63-1.27l-.49-10.1a1.21,1.21,0,0,1,.32-.85,1.78,1.78,0,0,1,1.22-.53h0m0-1h-.06a2.46,2.46,0,0,0-2.52,2.42l.49,10.1a2.52,2.52,0,0,0,2.63,2.23h.11a2.47,2.47,0,0,0,2.52-2.43l-.49-10.1a2.52,2.52,0,0,0-2.68-2.22Z" transform="translate(-131.64 -5.66)"/><path class="cls-1" d="M190.54,274.88a2.26,2.26,0,0,1-1.56-.71,1.67,1.67,0,0,1-.45-1.2l.42-7.49a2,2,0,0,1,2.18-1.74,2.33,2.33,0,0,1,1.63.71,1.62,1.62,0,0,1,.44,1.2l-.41,7.49a2,2,0,0,1-2.13,1.74Z" transform="translate(-131.64 -5.66)"/><path class="cls-1" d="M191.13,263.24l0,1a1.78,1.78,0,0,1,1.23.54,1.21,1.21,0,0,1,.31.85l-.41,7.48a1.54,1.54,0,0,1-1.63,1.27h-.09a1.75,1.75,0,0,1-1.22-.54A1.14,1.14,0,0,1,189,273l.41-7.49a1.58,1.58,0,0,1,1.69-1.27v-1m0,0a2.54,2.54,0,0,0-2.68,2.21l-.42,7.49a2.46,2.46,0,0,0,2.5,2.44h.13a2.52,2.52,0,0,0,2.63-2.21l.41-7.49a2.47,2.47,0,0,0-2.5-2.44Z" transform="translate(-131.64 -5.66)"/><path class="cls-1" d="M163.06,279.78a2,2,0,0,1-2.13-1.82V269.7a2.15,2.15,0,0,1,4.26,0V278A2,2,0,0,1,163.06,279.78Z" transform="translate(-131.64 -5.66)"/><path class="cls-1" d="M163.06,268.37a1.51,1.51,0,0,1,1.63,1.33V278a1.67,1.67,0,0,1-3.26,0V269.7a1.51,1.51,0,0,1,1.63-1.33m0-1a2.49,2.49,0,0,0-2.63,2.33V278a2.65,2.65,0,0,0,5.26,0V269.7a2.49,2.49,0,0,0-2.63-2.33Z" transform="translate(-131.64 -5.66)"/><path class="cls-1" d="M199.24,190a2.36,2.36,0,0,1-1.36-.42L136,145.14a1.73,1.73,0,0,1-.76-1.24,1.64,1.64,0,0,1,.45-1.29,2.28,2.28,0,0,1,1.67-.69,2.39,2.39,0,0,1,1.37.42l61.86,44.4a1.73,1.73,0,0,1,.76,1.24,1.68,1.68,0,0,1-.45,1.28A2.25,2.25,0,0,1,199.24,190Z" transform="translate(-131.64 -5.66)"/><path class="cls-1" d="M137.38,142.42h0a1.82,1.82,0,0,1,1.08.33l61.86,44.39a1.29,1.29,0,0,1,.55.89,1.16,1.16,0,0,1-.32.9,1.76,1.76,0,0,1-1.31.53,1.81,1.81,0,0,1-1.07-.33l-61.86-44.39a1.25,1.25,0,0,1-.55-.89,1.16,1.16,0,0,1,.32-.9,1.75,1.75,0,0,1,1.3-.53m0-1a2.76,2.76,0,0,0-2,.86,2.15,2.15,0,0,0,.39,3.27l61.86,44.39a2.81,2.81,0,0,0,1.65.52,2.76,2.76,0,0,0,2-.86,2.15,2.15,0,0,0-.39-3.27L139,141.94a2.84,2.84,0,0,0-1.66-.52Z" transform="translate(-131.64 -5.66)"/><path class="cls-1" d="M194.58,174.48a2.27,2.27,0,0,1-1.65-.67c-.1-.11-10.86-11.23-23.23-21.92-19.67-17-27.83-19.52-30.95-19.52a4.91,4.91,0,0,0-.89.08,2.61,2.61,0,0,1-.48.05,2.1,2.1,0,0,1-2.08-1.45,1.59,1.59,0,0,1,.21-1.25,2.09,2.09,0,0,1,1.4-.91,8.23,8.23,0,0,1,1.61-.15c15.64,0,50.8,35.61,57.69,42.75a1.64,1.64,0,0,1,.49,1.28A1.72,1.72,0,0,1,196,174,2.37,2.37,0,0,1,194.58,174.48Z" transform="translate(-131.64 -5.66)"/><path class="cls-1" d="M138.53,128.24v1h0c6.35,0,17.29,6.38,31.63,18.45,11.49,9.67,21.8,20.11,25.7,24.14a1.18,1.18,0,0,1,.34.9,1.21,1.21,0,0,1-.52.89,1.83,1.83,0,0,1-1.1.36,1.81,1.81,0,0,1-1.29-.51c-.1-.11-11-11.34-23.27-21.95-18.79-16.24-27.38-19.65-31.26-19.65a5.16,5.16,0,0,0-1,.09,2.33,2.33,0,0,1-.38,0,1.58,1.58,0,0,1-1.59-1.07,1.05,1.05,0,0,1,.14-.86,1.61,1.61,0,0,1,1.08-.69,8,8,0,0,1,1.52-.14v-1m0,0a8.63,8.63,0,0,0-1.71.16,2.33,2.33,0,0,0-2,2.77,2.57,2.57,0,0,0,2.56,1.83,2.76,2.76,0,0,0,.57-.06,4.43,4.43,0,0,1,.81-.07c3,0,11,2.47,30.61,19.4,12.32,10.64,23.1,21.78,23.2,21.89a2.79,2.79,0,0,0,2,.82,2.84,2.84,0,0,0,1.7-.56,2.14,2.14,0,0,0,.29-3.28c-7.11-7.37-42.25-42.9-58-42.9Z" transform="translate(-131.64 -5.66)"/><path class="cls-1" d="M199.63,116.66a350,350,0,0,1-44.07-2.44c-17.65-2.36-19.92-5.32-19.92-7.64,0-1.68,0-6.79,36.08-9.21h.16A2,2,0,0,1,174,99.06a1.63,1.63,0,0,1-.41,1.21,2.22,2.22,0,0,1-1.55.74c-18.63,1.25-28.45,3.48-31.43,5.15l-.75.42.74.44c4.11,2.49,25.15,6,59,6s54.86-3.49,59-6l.36-.21v.71h0v-.72l.37-.22-.76-.42a26.53,26.53,0,0,0-7-2.19,2.06,2.06,0,0,1-1.37-.93,1.54,1.54,0,0,1-.19-1.25,2.11,2.11,0,0,1,2.08-1.41,2.21,2.21,0,0,1,.51,0c7.58,1.62,11,3.51,11,6.14,0,2.32-2.26,5.28-19.92,7.64A350,350,0,0,1,199.63,116.66Z" transform="translate(-131.64 -5.66)"/><path class="cls-1" d="M171.88,97.87a1.53,1.53,0,0,1,1.63,1.23,1.18,1.18,0,0,1-.29.85,1.71,1.71,0,0,1-1.2.56c-23.56,1.59-30.17,4.39-31.64,5.21l-1.5.84,1.47.89c4.93,3,28.45,6.06,59.28,6.06s54.3-3.08,59.27-6.05l.1-.06v0l1.37-.83-1.51-.84a27.32,27.32,0,0,0-7.12-2.24,1.58,1.58,0,0,1-1.06-.7,1.1,1.1,0,0,1-.13-.86,1.61,1.61,0,0,1,1.6-1,1.9,1.9,0,0,1,.41,0c7.3,1.56,10.55,3.3,10.55,5.65,0,2-2,4.81-19.49,7.15a350.78,350.78,0,0,1-44,2.43,350.89,350.89,0,0,1-44-2.43c-17.47-2.34-19.49-5.2-19.49-7.15,0-.8,0-2.14,4-3.75,5.48-2.25,16.13-3.92,31.66-5h.13m0-1h-.19c-36.55,2.46-36.55,7.72-36.55,9.71,0,2.68,2.42,5.74,20.36,8.14a352.93,352.93,0,0,0,44.13,2.44,353.1,353.1,0,0,0,44.14-2.44c17.93-2.4,20.35-5.46,20.35-8.14,0-3-3.39-4.93-11.35-6.63a3.15,3.15,0,0,0-.61-.06,2.6,2.6,0,0,0-2.56,1.77,2.33,2.33,0,0,0,1.94,2.81,26.58,26.58,0,0,1,6.84,2.13c-4.29,2.57-26,5.91-58.75,5.91s-54.51-3.34-58.76-5.91c2.22-1.25,10.39-3.69,31.21-5.09A2.43,2.43,0,0,0,174.51,99a2.52,2.52,0,0,0-2.63-2.15ZM259,107h0Z" transform="translate(-131.64 -5.66)"/><path class="cls-1" d="M220.06,115.11a2,2,0,0,1-2.13-1.82c0-13.05,6.26-28.08,18.61-44.68a215.83,215.83,0,0,1,32.23-34.07,2.31,2.31,0,0,1,1.48-.51,2.4,2.4,0,0,1,.84.15,1.85,1.85,0,0,1,1.28,1.63c1.18,36.23-22.85,74.37-23.87,76a2.25,2.25,0,0,1-1.88.95,2.4,2.4,0,0,1-1.06-.25,1.86,1.86,0,0,1-1-1.16,1.6,1.6,0,0,1,.2-1.29c.22-.34,22-34.82,23.34-68.57l.05-1.19-.88.8a215.56,215.56,0,0,0-27.13,29.49c-11.9,16-17.94,30.38-17.94,42.72A2,2,0,0,1,220.06,115.11Z" transform="translate(-131.64 -5.66)"/><path class="cls-1" d="M270.25,34.53a1.84,1.84,0,0,1,.66.12,1.35,1.35,0,0,1,1,1.17c1.17,36.09-22.78,74.1-23.8,75.7a1.71,1.71,0,0,1-1.45.72,1.89,1.89,0,0,1-.84-.2,1.4,1.4,0,0,1-.75-.84,1.1,1.1,0,0,1,.15-.89c.22-.35,22.08-34.91,23.41-68.82l.1-2.38-1.77,1.6a215.66,215.66,0,0,0-27.19,29.57c-12,16.09-18,30.56-18,43a1.67,1.67,0,0,1-3.26,0c0-12.93,6.23-27.86,18.51-44.38a216.05,216.05,0,0,1,32.15-34,1.79,1.79,0,0,1,1.16-.4m0-1a2.83,2.83,0,0,0-1.8.62,217.55,217.55,0,0,0-32.31,34.17c-12.42,16.69-18.71,31.82-18.71,45a2.65,2.65,0,0,0,5.26,0c0-12.23,6-26.5,17.84-42.42a215,215,0,0,1,27.06-29.42c-1.31,33.44-23,68-23.26,68.32a2.2,2.2,0,0,0,1,3.17,3,3,0,0,0,1.29.3,2.73,2.73,0,0,0,2.3-1.19c1-1.61,25.13-39.9,24-76.26a2.35,2.35,0,0,0-1.61-2.08,3,3,0,0,0-1-.18Z" transform="translate(-131.64 -5.66)"/><path class="cls-1" d="M200.21,115.11a2.05,2.05,0,0,1-2.11-1.59,285.61,285.61,0,0,1-2.49-42.46c.59-30.74,6.69-52.35,18.14-64.24a2.27,2.27,0,0,1,1.65-.66h.28a2.12,2.12,0,0,1,1.65,1.06C218,8.5,233.85,38.87,231.52,83.3A2,2,0,0,1,229.41,85h-.11a2.26,2.26,0,0,1-1.58-.7,1.61,1.61,0,0,1-.45-1.21c1.82-34.7-7.85-61-12.1-70.72l-.34-.77-.51.67c-22.48,29.31-12.1,100-12,100.74a1.62,1.62,0,0,1-.33,1.23,2.21,2.21,0,0,1-1.5.82Z" transform="translate(-131.64 -5.66)"/><path class="cls-1" d="M215.4,6.66h.22a1.64,1.64,0,0,1,1.27.79C217.56,8.73,233.35,39,231,83.27a1.52,1.52,0,0,1-1.61,1.27h-.1a1.75,1.75,0,0,1-1.22-.54,1.14,1.14,0,0,1-.32-.84c1.82-34.81-7.88-61.21-12.14-70.95L215,10.66l-1,1.34c-22.59,29.46-12.19,100.42-12.09,101.13a1.09,1.09,0,0,1-.23.85,1.71,1.71,0,0,1-1.15.62h-.24a1.54,1.54,0,0,1-1.61-1.17,282.36,282.36,0,0,1-2.49-42.37c.58-30.61,6.64-52.11,18-63.9a1.81,1.81,0,0,1,1.29-.51m0-1a2.79,2.79,0,0,0-2,.81c-11.54,12-17.69,33.71-18.28,64.58a285.19,285.19,0,0,0,2.5,42.54,2.53,2.53,0,0,0,2.6,2,2,2,0,0,0,.35,0,2.39,2.39,0,0,0,2.26-2.61c-.11-.74-10.41-71.28,11.89-100.37,4.07,9.31,13.88,35.72,12.06,70.5a2.45,2.45,0,0,0,2.5,2.43h.14A2.5,2.5,0,0,0,232,83.32c2.34-44.59-13.57-75-14.25-76.33a2.63,2.63,0,0,0-2-1.31,2,2,0,0,0-.34,0Z" transform="translate(-131.64 -5.66)"/><path class="cls-1" d="M185.24,115.63a2.29,2.29,0,0,1-1.53-.56c-1.13-1-27.64-25-28.81-71.95a1.77,1.77,0,0,1,1-1.57,2.43,2.43,0,0,1,2.14-.08c1.3.59,32,14.71,41.68,38.21a1.59,1.59,0,0,1,0,1.28,2,2,0,0,1-1.23,1,2.67,2.67,0,0,1-.75.11,2.14,2.14,0,0,1-2-1.22c-7.14-17.33-27.28-29.65-35.61-34.14l-.79-.43.06.9c2.56,42.84,27.18,65.09,27.43,65.31a1.74,1.74,0,0,1,.6,1.27,1.71,1.71,0,0,1-.6,1.27A2.31,2.31,0,0,1,185.24,115.63Z" transform="translate(-131.64 -5.66)"/><path class="cls-1" d="M157,41.76a2,2,0,0,1,.79.16c1.29.59,31.8,14.62,41.42,38a1.09,1.09,0,0,1,0,.88,1.56,1.56,0,0,1-.94.77,2,2,0,0,1-.59.09,1.64,1.64,0,0,1-1.55-.91c-7.2-17.48-27.46-29.88-35.83-34.39l-1.58-.85.11,1.79c2.57,43,27.34,65.43,27.59,65.66a1.18,1.18,0,0,1,.44.89,1.22,1.22,0,0,1-.44.9,1.76,1.76,0,0,1-1.19.43,1.78,1.78,0,0,1-1.2-.43c-1.12-1-27.47-24.83-28.64-71.59a1.27,1.27,0,0,1,.72-1.12,1.86,1.86,0,0,1,.91-.23m0-1a3,3,0,0,0-1.4.35,2.29,2.29,0,0,0-1.23,2c1.18,47.2,27.84,71.31,29,72.32a2.81,2.81,0,0,0,1.86.68,2.85,2.85,0,0,0,1.86-.68,2.15,2.15,0,0,0,0-3.29c-.26-.23-24.72-22.35-27.26-65,8.54,4.6,28.33,16.78,35.38,33.89a2.63,2.63,0,0,0,2.47,1.53,2.82,2.82,0,0,0,.9-.14,2.25,2.25,0,0,0,1.57-3C190.39,55.79,159.54,41.6,158.23,41a2.93,2.93,0,0,0-1.2-.25Z" transform="translate(-131.64 -5.66)"/><path class="cls-1" d="M199.63,110.61a2.19,2.19,0,0,1-1.89-1L175,71.79a1.59,1.59,0,0,1-.17-1.29,1.88,1.88,0,0,1,1-1.14,2.38,2.38,0,0,1,1-.23,2.21,2.21,0,0,1,1.9,1L201.53,108a1.55,1.55,0,0,1,.16,1.29,1.89,1.89,0,0,1-1,1.15A2.49,2.49,0,0,1,199.63,110.61Z" transform="translate(-131.64 -5.66)"/><path class="cls-1" d="M176.87,69.63a1.74,1.74,0,0,1,1.47.75l22.76,37.83a1.11,1.11,0,0,1,.12.89,1.41,1.41,0,0,1-.78.83,1.85,1.85,0,0,1-.81.18,1.69,1.69,0,0,1-1.46-.75L175.41,71.54a1.07,1.07,0,0,1-.12-.89,1.38,1.38,0,0,1,.77-.84,1.88,1.88,0,0,1,.81-.18m0-1a2.93,2.93,0,0,0-1.23.27,2.2,2.2,0,0,0-1.09,3.15l22.76,37.83a2.7,2.7,0,0,0,2.32,1.23,3,3,0,0,0,1.24-.27,2.2,2.2,0,0,0,1.08-3.15L179.19,69.87a2.68,2.68,0,0,0-2.32-1.24Z" transform="translate(-131.64 -5.66)"/><path class="cls-1" d="M213,115.43a2.27,2.27,0,0,1-1.59-.69,1.62,1.62,0,0,1-.46-1.2l2.33-58.13a2,2,0,0,1,2.14-1.76,2.3,2.3,0,0,1,1.65.68,1.66,1.66,0,0,1,.47,1.21l-2.34,58.13a2,2,0,0,1-2.12,1.76Z" transform="translate(-131.64 -5.66)"/><path class="cls-1" d="M215.4,54.15h0a1.75,1.75,0,0,1,1.24.53,1.16,1.16,0,0,1,.33.83l-2.34,58.14a1.51,1.51,0,0,1-1.62,1.28H213a1.71,1.71,0,0,1-1.23-.53,1.17,1.17,0,0,1-.34-.84l2.34-58.13a1.51,1.51,0,0,1,1.64-1.28m0-1a2.49,2.49,0,0,0-2.64,2.24l-2.33,58.13a2.45,2.45,0,0,0,2.53,2.41h.1a2.49,2.49,0,0,0,2.62-2.24L218,55.55a2.47,2.47,0,0,0-2.54-2.4Z" transform="translate(-131.64 -5.66)"/><path class="cls-1" d="M232.89,113.05a2.35,2.35,0,0,1-.87-.16,2,2,0,0,1-1.15-1.09,1.61,1.61,0,0,1,.06-1.29l16.35-33a2.16,2.16,0,0,1,2-1.11,2.35,2.35,0,0,1,.87.16,2,2,0,0,1,1.15,1.09,1.61,1.61,0,0,1-.06,1.29l-16.34,33A2.17,2.17,0,0,1,232.89,113.05Z" transform="translate(-131.64 -5.66)"/><path class="cls-1" d="M249.24,76.86a1.8,1.8,0,0,1,.69.13,1.48,1.48,0,0,1,.86.8,1.05,1.05,0,0,1,0,.88l-16.34,33a1.7,1.7,0,0,1-1.52.84,1.84,1.84,0,0,1-.69-.13,1.48,1.48,0,0,1-.86-.8,1.08,1.08,0,0,1,0-.89l16.34-33a1.68,1.68,0,0,1,1.52-.84m0-1a2.67,2.67,0,0,0-2.41,1.39l-16.34,33a2.22,2.22,0,0,0,1.35,3.06,2.76,2.76,0,0,0,1,.2,2.68,2.68,0,0,0,2.42-1.39l16.34-33a2.24,2.24,0,0,0-1.36-3.07,3,3,0,0,0-1-.19Z" transform="translate(-131.64 -5.66)"/></svg>