<svg id="Layer_1" data-name="Layer 1" xmlns="http://www.w3.org/2000/svg" viewBox="0 0 110.06 289.65"><defs><style>.cls-1{fill:none;stroke:#fff;stroke-linecap:round;stroke-linejoin:round;stroke-width:5px;}</style></defs><title>wine</title><ellipse class="cls-1" cx="55.13" cy="57.66" rx="45.9" ry="6.43"/><ellipse class="cls-1" cx="55.13" cy="8.35" rx="39.48" ry="5.85"/><path class="cls-1" d="M211.67,309.66l.05-95.73c53.25-34,48.59-54.87,48.59-54.87L247.46,64.51h-.55a1.24,1.24,0,0,0,.55-.91c0-3-17.67-5.51-39.47-5.51s-39.47,2.47-39.47,5.51h-.16l-12.85,94.55s-5.35,22,47.89,56l-.28,95.55c-25.6.8-45.62,7.85-45.62,16.44,0,9.13,22.6,16.52,50.49,16.52s50.49-7.39,50.49-16.52C258.48,317.41,237.83,310.27,211.67,309.66Z" transform="translate(-152.86 -55.5)"/><path class="cls-1" d="M193.3,191.19s-32.13-12.85-26.62-45" transform="translate(-152.86 -55.5)"/></svg>